<?xml version="1.0" encoding="utf-8"?>
<!-- Generator: Adobe Illustrator 24.1.2, SVG Export Plug-In . SVG Version: 6.00 Build 0)  -->
<svg version="1.1" id="Layer_1" xmlns="http://www.w3.org/2000/svg" xmlns:xlink="http://www.w3.org/1999/xlink" x="0px" y="0px"
	 viewBox="0 0 841.89 595.28" style="enable-background:new 0 0 841.89 595.28;" xml:space="preserve">
<g>
	<g>
		<path style="fill:#E0E8D2;" d="M258.29,316.77c20.84,28.86,61.13,35.37,90,14.53l-4.29-5.95c-25.58,18.47-61.29,12.7-79.75-12.88
			c-18.47-25.58-12.7-61.29,12.88-79.75l-4.29-5.95C243.96,247.61,237.45,287.9,258.29,316.77"/>
		<path style="fill:#EB0045;" d="M308.31,256.23c22.82,21.79,23.66,57.95,1.87,80.77c-21.79,22.82-57.95,23.66-80.77,1.87
			L308.31,256.23z"/>
		<path style="fill:#00BC70;" d="M363.92,281.3c-15.85-31.88-54.54-44.87-86.42-29.02c-31.88,15.85-44.87,54.54-29.02,86.42
			l-0.44,0.22c-0.78,0.39-1.72,0.06-2.08-0.73c-15.28-32.61-1.79-71.63,30.63-87.75c32.42-16.12,71.67-3.33,88.45,28.54
			c0.4,0.77,0.1,1.72-0.68,2.1L363.92,281.3z"/>
		<path style="fill:#FFFFFF;" d="M326.64,345.92c-1.64-0.94-3.31-1.12-3.73-0.4c-0.42,0.72,0.57,2.08,2.22,3.02
			c1.64,0.95,3.31,1.12,3.73,0.4C329.27,348.22,328.28,346.86,326.64,345.92"/>
		<path style="fill:#FFFFFF;" d="M330.8,334.81c-1.83-0.49-3.49-0.23-3.7,0.58c-0.22,0.81,1.09,1.86,2.92,2.35
			c1.83,0.49,3.49,0.23,3.7-0.58C333.94,336.35,332.63,335.29,330.8,334.81"/>
		<path style="fill:#FFFFFF;" d="M331.94,322.99c-1.89,0-3.43,0.68-3.43,1.52c0,0.84,1.54,1.51,3.43,1.51
			c1.89,0,3.43-0.68,3.43-1.52C335.37,323.67,333.83,322.99,331.94,322.99"/>
		<path style="fill:#FFFFFF;" d="M329.99,311.29c-1.83,0.49-3.13,1.55-2.92,2.35c0.22,0.81,1.88,1.06,3.71,0.57s3.13-1.55,2.92-2.35
			C333.47,311.05,331.82,310.79,329.99,311.29"/>
		<path style="fill:#FFFFFF;" d="M325.07,300.49c-1.64,0.95-2.63,2.31-2.21,3.03c0.42,0.72,2.09,0.54,3.73-0.41
			c1.64-0.95,2.63-2.31,2.21-3.03C328.38,299.35,326.71,299.54,325.07,300.49"/>
		<path style="fill:#FFFFFF;" d="M317.52,291.32c-1.34,1.34-1.94,2.91-1.35,3.5c0.59,0.59,2.16-0.02,3.5-1.36
			c1.34-1.34,1.94-2.91,1.35-3.5C320.43,289.38,318.86,289.98,317.52,291.32"/>
		<path style="fill:#FFFFFF;" d="M307.87,284.43c-0.94,1.64-1.12,3.31-0.4,3.73c0.72,0.42,2.08-0.57,3.02-2.22
			c0.95-1.64,1.12-3.31,0.4-3.73C310.16,281.8,308.81,282.79,307.87,284.43"/>
		<path style="fill:#FFFFFF;" d="M296.75,280.27c-0.49,1.83-0.23,3.49,0.58,3.7c0.81,0.22,1.86-1.09,2.35-2.92
			c0.49-1.83,0.23-3.49-0.58-3.7C298.29,277.13,297.24,278.44,296.75,280.27"/>
		<path style="fill:#FFFFFF;" d="M284.94,279.13c0,1.89,0.68,3.43,1.52,3.43c0.84,0,1.51-1.54,1.51-3.43c0-1.89-0.68-3.43-1.52-3.43
			C285.61,275.69,284.94,277.23,284.94,279.13"/>
		<path style="fill:#FFFFFF;" d="M273.23,281.08c0.49,1.83,1.55,3.13,2.35,2.92c0.81-0.22,1.06-1.88,0.57-3.71s-1.55-3.13-2.35-2.92
			C273,277.59,272.74,279.25,273.23,281.08"/>
		<path style="fill:#FFFFFF;" d="M262.43,286c0.95,1.64,2.31,2.63,3.03,2.21c0.72-0.42,0.54-2.09-0.41-3.73
			c-0.95-1.64-2.31-2.63-3.03-2.21C261.3,282.69,261.48,284.36,262.43,286"/>
		<path style="fill:#FFFFFF;" d="M393.43,308.26c0,3.31-0.94,5.81-2.86,7.64c-1.92,1.82-4.87,2.75-8.77,2.75h-16.59v-20.69h16.59
			c3.9,0,6.85,0.92,8.77,2.75C392.5,302.53,393.43,305.01,393.43,308.26 M382.22,289.22h-26.07v57.6h9.07v-19.51h17
			c6.19,0,11.17-1.73,14.79-5.14c3.64-3.44,5.49-8.11,5.49-13.9c0-5.78-1.85-10.46-5.49-13.9
			C393.39,290.95,388.41,289.22,382.22,289.22"/>
		<path style="fill:#FFFFFF;" d="M431.93,317.91c0.99,2.14,1.5,4.54,1.5,7.14c0,2.55-0.51,4.94-1.5,7.1
			c-0.97,2.12-2.41,3.82-4.27,5.08c-1.84,1.24-4.16,1.88-6.9,1.88c-2.69,0-5.04-0.64-6.96-1.89c-1.94-1.26-3.44-2.97-4.46-5.09
			c-1.04-2.16-1.57-4.54-1.57-7.08c0-2.59,0.53-4.98,1.57-7.11c1.02-2.09,2.52-3.79,4.47-5.05c1.93-1.25,4.27-1.89,6.96-1.89
			c2.74,0,5.06,0.63,6.9,1.87C429.52,314.13,430.96,315.82,431.93,317.91 M433.1,307.48c-1.14-1.06-2.41-1.97-3.82-2.73
			c-2.61-1.41-5.75-2.12-9.34-2.12c-4.21,0-7.96,1.02-11.13,3.03c-3.16,2-5.64,4.73-7.38,8.12c-1.72,3.36-2.6,7.16-2.6,11.27
			c0,4.06,0.87,7.83,2.6,11.22c1.74,3.42,4.22,6.17,7.38,8.17c3.18,2.01,6.92,3.03,11.13,3.03c3.59,0,6.73-0.72,9.34-2.13
			c1.41-0.76,2.68-1.66,3.82-2.7v4.18h8.93v-43.53h-8.93V307.48z"/>
	</g>
	<polygon style="fill:#EB0045;" points="484.22,346.82 484.22,295.41 463.17,295.41 463.17,289.24 511.79,289.24 511.79,295.41 
		490.74,295.41 490.74,346.82 	"/>
	<g>
		<path style="fill:#EB0045;" d="M496.99,321.59h29.57c-0.58-3.71-2.15-6.81-4.7-9.31c-2.55-2.49-5.91-3.74-10.09-3.74
			c-4.18,0-7.52,1.25-10.05,3.74C499.21,314.78,497.63,317.89,496.99,321.59 M512.21,347.51c-4.41,0-8.26-1-11.57-3
			c-3.31-2-5.87-4.71-7.7-8.13c-1.83-3.42-2.74-7.19-2.74-11.31c0-4.18,0.87-7.96,2.61-11.35c1.74-3.39,4.23-6.09,7.48-8.09
			c3.25-2,7.07-3,11.48-3c4.46,0,8.3,1,11.52,3c3.22,2,5.7,4.7,7.44,8.09c1.74,3.39,2.61,7.17,2.61,11.35v2.61H496.9
			c0.35,2.55,1.18,4.88,2.48,7c1.3,2.12,3.06,3.8,5.26,5.04c2.2,1.25,4.75,1.87,7.65,1.87c3.07,0,5.65-0.68,7.74-2.04
			c2.09-1.36,3.71-3.12,4.87-5.26h7.13c-1.51,3.89-3.9,7.06-7.17,9.53C521.59,346.28,517.37,347.51,512.21,347.51"/>
		<path style="fill:#EB0045;" d="M554.23,347.51c-4.35,0-8.12-1-11.31-3c-3.19-2-5.67-4.71-7.44-8.13
			c-1.77-3.42-2.66-7.19-2.66-11.31c0-4.18,0.88-7.96,2.66-11.35c1.77-3.39,4.25-6.09,7.44-8.09c3.19-2,6.96-3,11.31-3
			c5.16,0,9.55,1.33,13.18,4c3.62,2.66,6.07,6.12,7.35,10.35h-7.04c-0.99-2.49-2.57-4.52-4.74-6.09c-2.17-1.57-4.8-2.35-7.87-2.35
			c-3.19,0-5.97,0.75-8.35,2.26c-2.38,1.51-4.21,3.51-5.48,6c-1.28,2.49-1.91,5.25-1.91,8.26c0,2.96,0.64,5.7,1.91,8.22
			c1.27,2.52,3.1,4.54,5.48,6.04c2.38,1.51,5.16,2.26,8.35,2.26c3.07,0,5.7-0.78,7.87-2.35c2.17-1.57,3.76-3.6,4.74-6.09h7.04
			c-1.28,4.23-3.73,7.68-7.35,10.35C563.78,346.18,559.39,347.51,554.23,347.51"/>
		<path style="fill:#EB0045;" d="M574.12,346.82v-60.88h6.52v24.18c1.57-2.09,3.48-3.85,5.74-5.31c2.26-1.45,5.16-2.17,8.7-2.17
			c3.02,0,5.84,0.71,8.48,2.13c2.64,1.42,4.78,3.54,6.44,6.35c1.65,2.81,2.48,6.28,2.48,10.39v25.31h-6.52v-25.14
			c0-3.94-1.13-7.12-3.39-9.53c-2.26-2.4-5.19-3.61-8.79-3.61c-2.44,0-4.64,0.55-6.61,1.65c-1.97,1.1-3.55,2.65-4.74,4.65
			c-1.19,2-1.78,4.31-1.78,6.92v25.05H574.12z"/>
		<path style="fill:#FFFFFF;" d="M477.94,354.86v6.44c0,0.94,0.22,1.69,0.65,2.22c0.43,0.54,1.09,0.81,1.98,0.81
			c0.66,0,1.27-0.17,1.84-0.5c0.57-0.33,1.08-0.8,1.53-1.39v-7.58h0.96v10.08h-0.53c-0.19,0-0.28-0.09-0.29-0.26l-0.09-1.5
			c-0.47,0.58-1.01,1.05-1.62,1.4c-0.61,0.35-1.29,0.53-2.04,0.53c-0.56,0-1.05-0.09-1.47-0.26c-0.42-0.18-0.77-0.43-1.04-0.76
			s-0.49-0.73-0.63-1.19c-0.14-0.47-0.21-0.99-0.21-1.58v-6.44H477.94z"/>
		<path style="fill:#FFFFFF;" d="M491.77,355.47c-0.67,0-1.28,0.17-1.82,0.52c-0.54,0.35-1.03,0.83-1.44,1.45v5.29
			c0.38,0.58,0.81,0.99,1.28,1.23c0.47,0.24,1,0.35,1.61,0.35c0.59,0,1.11-0.11,1.56-0.32s0.82-0.52,1.12-0.92s0.53-0.87,0.68-1.42
			c0.16-0.55,0.23-1.16,0.23-1.82c0-1.5-0.28-2.6-0.83-3.31C493.6,355.82,492.8,355.47,491.77,355.47 M487.54,368.5v-13.65h0.53
			c0.09,0,0.16,0.02,0.21,0.06c0.06,0.04,0.09,0.1,0.09,0.2l0.09,1.56c0.45-0.61,0.97-1.09,1.57-1.45c0.6-0.36,1.27-0.54,2.01-0.54
			c1.24,0,2.21,0.43,2.9,1.28c0.69,0.86,1.03,2.14,1.03,3.86c0,0.74-0.09,1.42-0.29,2.06c-0.19,0.64-0.47,1.19-0.85,1.66
			c-0.37,0.47-0.83,0.84-1.37,1.11c-0.54,0.27-1.17,0.4-1.88,0.4c-0.69,0-1.28-0.13-1.78-0.37c-0.5-0.25-0.93-0.62-1.3-1.12v4.92
			H487.54z"/>
	</g>
	<polygon style="fill:#FFFFFF;" points="411.09,350.6 411.09,351.46 403.55,351.46 403.55,357.48 410.08,357.48 410.08,358.34 
		403.55,358.34 403.55,364.93 402.5,364.93 402.5,350.6 	"/>
	<g>
		<path style="fill:#FFFFFF;" d="M412.83,364.93v-10.08h0.51c0.12,0,0.2,0.02,0.25,0.07c0.05,0.05,0.08,0.13,0.09,0.24l0.08,2.13
			c0.32-0.82,0.76-1.46,1.3-1.92c0.54-0.46,1.21-0.69,2-0.69c0.3,0,0.58,0.03,0.84,0.1c0.26,0.06,0.5,0.16,0.73,0.28l-0.13,0.67
			c-0.02,0.11-0.09,0.16-0.2,0.16c-0.04,0-0.1-0.01-0.17-0.04c-0.07-0.03-0.17-0.06-0.28-0.09c-0.11-0.03-0.25-0.06-0.41-0.09
			c-0.16-0.03-0.35-0.04-0.56-0.04c-0.76,0-1.39,0.24-1.88,0.71c-0.49,0.47-0.88,1.16-1.19,2.05v6.55H412.83z"/>
		<path style="fill:#FFFFFF;" d="M424.29,355.41c-0.52,0-0.98,0.08-1.4,0.25c-0.41,0.16-0.77,0.39-1.07,0.7
			c-0.3,0.3-0.54,0.67-0.73,1.09c-0.19,0.43-0.31,0.9-0.37,1.43h6.64c0-0.54-0.07-1.02-0.22-1.45c-0.15-0.43-0.36-0.79-0.63-1.09
			c-0.27-0.3-0.59-0.53-0.97-0.68C425.16,355.49,424.75,355.41,424.29,355.41 M424.27,354.69c0.57,0,1.09,0.1,1.57,0.29
			c0.48,0.19,0.9,0.48,1.26,0.86c0.35,0.37,0.63,0.84,0.83,1.38c0.2,0.55,0.3,1.18,0.3,1.88c0,0.15-0.02,0.25-0.07,0.3
			c-0.04,0.06-0.11,0.08-0.21,0.08h-7.27v0.19c0,0.76,0.09,1.42,0.26,2c0.18,0.57,0.43,1.06,0.75,1.44
			c0.32,0.39,0.72,0.68,1.17,0.88c0.46,0.2,0.97,0.29,1.54,0.29c0.51,0,0.95-0.06,1.32-0.17c0.37-0.11,0.68-0.24,0.94-0.37
			c0.25-0.14,0.45-0.26,0.6-0.38c0.15-0.11,0.26-0.17,0.32-0.17c0.09,0,0.16,0.03,0.2,0.1l0.26,0.32c-0.16,0.2-0.38,0.39-0.64,0.57
			c-0.27,0.17-0.56,0.32-0.89,0.45c-0.33,0.12-0.68,0.22-1.05,0.3s-0.75,0.11-1.13,0.11c-0.69,0-1.32-0.12-1.88-0.36
			c-0.57-0.24-1.05-0.59-1.46-1.05s-0.72-1.02-0.94-1.69c-0.22-0.67-0.33-1.43-0.33-2.28c0-0.72,0.1-1.39,0.31-2
			c0.21-0.61,0.5-1.14,0.89-1.58c0.39-0.44,0.86-0.79,1.43-1.04C422.92,354.81,423.56,354.69,424.27,354.69"/>
		<path style="fill:#FFFFFF;" d="M436.61,356.11c-0.05,0.09-0.12,0.14-0.22,0.14c-0.07,0-0.17-0.04-0.29-0.13
			c-0.12-0.08-0.27-0.18-0.47-0.28c-0.19-0.1-0.43-0.2-0.71-0.28c-0.28-0.09-0.62-0.13-1.03-0.13c-0.36,0-0.7,0.05-1,0.16
			c-0.3,0.1-0.56,0.24-0.77,0.42c-0.21,0.18-0.38,0.38-0.5,0.61c-0.12,0.23-0.18,0.48-0.18,0.73c0,0.32,0.08,0.58,0.24,0.79
			c0.16,0.21,0.38,0.39,0.64,0.53c0.26,0.15,0.56,0.28,0.9,0.38c0.33,0.11,0.68,0.22,1.03,0.32c0.35,0.11,0.69,0.23,1.03,0.36
			c0.34,0.13,0.63,0.3,0.9,0.49c0.26,0.2,0.48,0.44,0.64,0.72c0.16,0.28,0.24,0.63,0.24,1.03c0,0.44-0.08,0.85-0.24,1.23
			c-0.16,0.38-0.39,0.7-0.69,0.98c-0.3,0.28-0.67,0.5-1.11,0.66c-0.44,0.16-0.94,0.24-1.5,0.24c-0.71,0-1.32-0.11-1.83-0.34
			s-0.97-0.52-1.38-0.89l0.23-0.35c0.03-0.05,0.07-0.09,0.11-0.12c0.04-0.03,0.1-0.04,0.17-0.04c0.09,0,0.2,0.06,0.32,0.16
			c0.13,0.11,0.29,0.23,0.5,0.35c0.21,0.12,0.46,0.24,0.77,0.35c0.31,0.11,0.69,0.16,1.14,0.16c0.43,0,0.8-0.06,1.13-0.18
			c0.32-0.12,0.59-0.28,0.81-0.48c0.22-0.2,0.38-0.44,0.49-0.72c0.11-0.27,0.17-0.56,0.17-0.87c0-0.34-0.08-0.62-0.24-0.84
			c-0.16-0.22-0.38-0.41-0.64-0.57c-0.26-0.16-0.56-0.29-0.9-0.4c-0.34-0.11-0.68-0.22-1.03-0.32c-0.35-0.11-0.7-0.23-1.03-0.35
			c-0.33-0.13-0.63-0.29-0.9-0.49c-0.26-0.2-0.48-0.44-0.64-0.72c-0.16-0.28-0.24-0.63-0.24-1.05c0-0.36,0.08-0.7,0.23-1.03
			c0.16-0.33,0.38-0.62,0.66-0.87s0.64-0.45,1.05-0.6c0.41-0.15,0.87-0.22,1.39-0.22c0.62,0,1.16,0.09,1.64,0.27
			c0.48,0.18,0.91,0.45,1.31,0.82L436.61,356.11z"/>
		<path style="fill:#FFFFFF;" d="M439.64,364.93v-14.74h0.96v6.38c0.47-0.57,1-1.03,1.6-1.37c0.6-0.34,1.27-0.51,2.01-0.51
			c0.55,0,1.04,0.09,1.46,0.26c0.42,0.18,0.77,0.43,1.05,0.76c0.28,0.33,0.49,0.73,0.63,1.2c0.14,0.47,0.21,0.99,0.21,1.58v6.44
			h-0.96v-6.44c0-0.95-0.22-1.69-0.65-2.22c-0.43-0.54-1.09-0.81-1.99-0.81c-0.66,0-1.28,0.17-1.84,0.51
			c-0.57,0.34-1.07,0.81-1.52,1.4v7.56H439.64z"/>
		<path style="fill:#FFFFFF;" d="M454.68,355.41c-0.52,0-0.98,0.08-1.4,0.25c-0.41,0.16-0.77,0.39-1.07,0.7
			c-0.3,0.3-0.54,0.67-0.73,1.09c-0.19,0.43-0.31,0.9-0.37,1.43h6.64c0-0.54-0.07-1.02-0.22-1.45c-0.15-0.43-0.36-0.79-0.63-1.09
			c-0.27-0.3-0.59-0.53-0.97-0.68S455.14,355.41,454.68,355.41 M454.67,354.69c0.57,0,1.09,0.1,1.58,0.29
			c0.48,0.19,0.9,0.48,1.25,0.86c0.35,0.37,0.63,0.84,0.83,1.38c0.2,0.55,0.3,1.18,0.3,1.88c0,0.15-0.02,0.25-0.07,0.3
			c-0.04,0.06-0.11,0.08-0.21,0.08h-7.27v0.19c0,0.76,0.09,1.42,0.26,2c0.18,0.57,0.43,1.06,0.75,1.44
			c0.32,0.39,0.72,0.68,1.18,0.88c0.46,0.2,0.97,0.29,1.54,0.29c0.51,0,0.95-0.06,1.32-0.17c0.37-0.11,0.68-0.24,0.94-0.37
			c0.25-0.14,0.45-0.26,0.6-0.38c0.15-0.11,0.26-0.17,0.32-0.17c0.09,0,0.16,0.03,0.2,0.1l0.26,0.32c-0.16,0.2-0.38,0.39-0.64,0.57
			c-0.27,0.17-0.56,0.32-0.89,0.45c-0.33,0.12-0.68,0.22-1.05,0.3s-0.75,0.11-1.13,0.11c-0.69,0-1.32-0.12-1.88-0.36
			c-0.57-0.24-1.05-0.59-1.46-1.05c-0.41-0.46-0.72-1.02-0.94-1.69c-0.22-0.67-0.33-1.43-0.33-2.28c0-0.72,0.1-1.39,0.31-2
			c0.21-0.61,0.5-1.14,0.89-1.58c0.39-0.44,0.86-0.79,1.43-1.04C453.31,354.81,453.95,354.69,454.67,354.69"/>
		<path style="fill:#FFFFFF;" d="M461.3,364.93v-10.08h0.53c0.18,0,0.28,0.08,0.3,0.25l0.09,1.52c0.46-0.58,0.99-1.05,1.6-1.4
			c0.61-0.35,1.29-0.53,2.04-0.53c0.55,0,1.04,0.09,1.46,0.26c0.42,0.18,0.77,0.43,1.05,0.76c0.28,0.33,0.49,0.73,0.63,1.2
			c0.14,0.47,0.21,0.99,0.21,1.58v6.44h-0.96v-6.44c0-0.95-0.22-1.69-0.65-2.22c-0.43-0.54-1.09-0.81-1.98-0.81
			c-0.66,0-1.28,0.17-1.84,0.51c-0.57,0.34-1.07,0.81-1.52,1.4v7.56H461.3z"/>
		<path style="fill:#FFFFFF;" d="M477.94,354.86v6.44c0,0.94,0.22,1.69,0.65,2.22c0.43,0.54,1.09,0.81,1.98,0.81
			c0.66,0,1.27-0.17,1.84-0.5c0.57-0.33,1.08-0.8,1.53-1.39v-7.58h0.96v10.08h-0.53c-0.19,0-0.28-0.09-0.29-0.26l-0.09-1.5
			c-0.47,0.58-1.01,1.05-1.62,1.4c-0.61,0.35-1.29,0.53-2.04,0.53c-0.56,0-1.05-0.09-1.47-0.26c-0.42-0.18-0.77-0.43-1.04-0.76
			s-0.49-0.73-0.63-1.19c-0.14-0.47-0.21-0.99-0.21-1.58v-6.44H477.94z"/>
		<path style="fill:#FFFFFF;" d="M491.77,355.47c-0.67,0-1.28,0.17-1.82,0.52c-0.54,0.35-1.03,0.83-1.44,1.45v5.29
			c0.38,0.58,0.81,0.99,1.28,1.23c0.47,0.24,1,0.35,1.61,0.35c0.59,0,1.11-0.11,1.56-0.32s0.82-0.52,1.12-0.92s0.53-0.87,0.68-1.42
			c0.16-0.55,0.23-1.16,0.23-1.82c0-1.5-0.28-2.6-0.83-3.31C493.6,355.82,492.8,355.47,491.77,355.47 M487.54,368.5v-13.65h0.53
			c0.09,0,0.16,0.02,0.21,0.06c0.06,0.04,0.09,0.1,0.09,0.2l0.09,1.56c0.45-0.61,0.97-1.09,1.57-1.45c0.6-0.36,1.27-0.54,2.01-0.54
			c1.24,0,2.21,0.43,2.9,1.28c0.69,0.86,1.03,2.14,1.03,3.86c0,0.74-0.09,1.42-0.29,2.06c-0.19,0.64-0.47,1.19-0.85,1.66
			c-0.37,0.47-0.83,0.84-1.37,1.11c-0.54,0.27-1.17,0.4-1.88,0.4c-0.69,0-1.28-0.13-1.78-0.37c-0.5-0.25-0.93-0.62-1.3-1.12v4.92
			H487.54z"/>
		<path style="fill:#FFFFFF;" d="M504.82,368.17c-0.04,0.09-0.09,0.17-0.16,0.23c-0.06,0.06-0.16,0.09-0.28,0.09h-0.69l1.77-3.94
			l-4.26-9.71h0.8c0.1,0,0.18,0.03,0.24,0.08c0.06,0.05,0.1,0.1,0.13,0.17l3.39,7.84c0.04,0.1,0.08,0.2,0.11,0.31
			c0.03,0.1,0.06,0.21,0.09,0.32c0.03-0.11,0.07-0.21,0.11-0.32c0.04-0.11,0.08-0.21,0.12-0.31l3.35-7.84
			c0.03-0.07,0.08-0.13,0.14-0.18c0.06-0.04,0.13-0.07,0.2-0.07h0.74L504.82,368.17z"/>
		<path style="fill:#FFFFFF;" d="M515.81,364.3c0.6,0,1.13-0.1,1.57-0.31c0.45-0.21,0.82-0.5,1.13-0.89
			c0.3-0.39,0.52-0.85,0.67-1.39c0.15-0.54,0.22-1.15,0.22-1.83c0-0.67-0.08-1.28-0.22-1.82c-0.15-0.55-0.37-1.01-0.67-1.4
			c-0.3-0.39-0.68-0.69-1.13-0.9c-0.45-0.21-0.97-0.31-1.57-0.31c-0.6,0-1.13,0.11-1.58,0.31c-0.45,0.21-0.82,0.51-1.13,0.9
			c-0.3,0.39-0.53,0.86-0.68,1.4s-0.23,1.15-0.23,1.82c0,0.68,0.08,1.28,0.23,1.83c0.15,0.54,0.38,1.01,0.68,1.39
			c0.3,0.38,0.68,0.68,1.13,0.89C514.68,364.2,515.2,364.3,515.81,364.3 M515.81,354.69c0.72,0,1.37,0.12,1.94,0.37
			c0.57,0.25,1.05,0.6,1.44,1.05c0.39,0.45,0.69,1,0.9,1.63c0.21,0.64,0.31,1.35,0.31,2.14c0,0.79-0.1,1.5-0.31,2.14
			c-0.21,0.63-0.5,1.18-0.9,1.63c-0.39,0.45-0.87,0.8-1.44,1.04c-0.57,0.24-1.22,0.36-1.94,0.36c-0.72,0-1.37-0.12-1.94-0.36
			c-0.57-0.24-1.05-0.59-1.45-1.04c-0.39-0.45-0.69-1-0.9-1.63c-0.21-0.63-0.31-1.35-0.31-2.14c0-0.79,0.1-1.5,0.31-2.14
			c0.21-0.64,0.51-1.18,0.9-1.63c0.4-0.45,0.88-0.8,1.45-1.05C514.44,354.81,515.08,354.69,515.81,354.69"/>
		<path style="fill:#FFFFFF;" d="M523.62,354.85v6.44c0,0.94,0.22,1.69,0.65,2.22c0.43,0.54,1.1,0.81,1.98,0.81
			c0.66,0,1.27-0.17,1.84-0.5c0.57-0.33,1.08-0.8,1.53-1.39v-7.58h0.96v10.08h-0.53c-0.19,0-0.28-0.09-0.29-0.26l-0.09-1.5
			c-0.47,0.58-1.01,1.05-1.62,1.4c-0.61,0.35-1.29,0.53-2.04,0.53c-0.56,0-1.05-0.09-1.47-0.26c-0.42-0.18-0.77-0.43-1.04-0.76
			s-0.49-0.73-0.63-1.19c-0.14-0.47-0.21-0.99-0.21-1.58v-6.44H523.62z"/>
		<path style="fill:#FFFFFF;" d="M533.22,364.93v-10.08h0.51c0.11,0,0.2,0.02,0.25,0.07c0.05,0.05,0.08,0.13,0.09,0.24l0.08,2.13
			c0.32-0.82,0.76-1.46,1.3-1.92c0.54-0.46,1.21-0.69,2-0.69c0.3,0,0.58,0.03,0.84,0.1c0.25,0.06,0.5,0.16,0.73,0.28l-0.13,0.67
			c-0.02,0.11-0.09,0.16-0.2,0.16c-0.04,0-0.1-0.01-0.17-0.04c-0.07-0.03-0.17-0.06-0.28-0.09c-0.11-0.03-0.25-0.06-0.41-0.09
			c-0.16-0.03-0.35-0.04-0.56-0.04c-0.76,0-1.39,0.24-1.88,0.71c-0.49,0.47-0.89,1.16-1.19,2.05v6.55H533.22z"/>
		<path style="fill:#FFFFFF;" d="M549.24,355.46c-0.67,0-1.28,0.17-1.82,0.52c-0.54,0.34-1.03,0.83-1.45,1.44v5.32
			c0.39,0.58,0.81,0.99,1.28,1.22c0.47,0.23,1.01,0.35,1.61,0.35c0.59,0,1.12-0.11,1.56-0.32c0.45-0.22,0.82-0.52,1.12-0.92
			c0.3-0.4,0.53-0.87,0.68-1.42c0.15-0.55,0.23-1.16,0.23-1.82c0-1.5-0.28-2.6-0.83-3.31C551.07,355.81,550.28,355.46,549.24,355.46
			 M545.01,364.93v-14.74h0.96l0.01,6.42c0.44-0.59,0.96-1.06,1.55-1.41c0.59-0.35,1.25-0.52,1.99-0.52c1.24,0,2.2,0.43,2.89,1.28
			c0.69,0.85,1.04,2.14,1.04,3.85c0,0.74-0.1,1.42-0.29,2.06c-0.19,0.64-0.48,1.19-0.85,1.66c-0.38,0.47-0.84,0.84-1.38,1.11
			c-0.54,0.27-1.17,0.41-1.88,0.41c-0.7,0-1.31-0.14-1.82-0.41c-0.51-0.27-0.94-0.68-1.31-1.21l-0.06,1.24
			c-0.02,0.17-0.11,0.25-0.27,0.25H545.01z"/>
		<path style="fill:#FFFFFF;" d="M556.54,354.85v6.44c0,0.94,0.22,1.69,0.65,2.22c0.43,0.54,1.1,0.81,1.98,0.81
			c0.66,0,1.27-0.17,1.84-0.5c0.57-0.33,1.08-0.8,1.53-1.39v-7.58h0.96v10.08h-0.53c-0.19,0-0.28-0.09-0.29-0.26l-0.09-1.5
			c-0.47,0.58-1.01,1.05-1.62,1.4s-1.29,0.53-2.04,0.53c-0.56,0-1.05-0.09-1.47-0.26c-0.42-0.17-0.77-0.43-1.04-0.76
			c-0.28-0.33-0.49-0.73-0.63-1.19c-0.14-0.47-0.22-0.99-0.22-1.58v-6.44H556.54z"/>
		<path style="fill:#FFFFFF;" d="M571.74,356.11c-0.05,0.09-0.12,0.14-0.22,0.14c-0.07,0-0.17-0.04-0.29-0.13
			c-0.12-0.08-0.28-0.18-0.47-0.28c-0.19-0.1-0.43-0.2-0.71-0.28c-0.28-0.09-0.62-0.13-1.03-0.13c-0.36,0-0.7,0.05-1,0.16
			c-0.3,0.1-0.56,0.24-0.77,0.42c-0.21,0.18-0.38,0.38-0.5,0.61c-0.12,0.23-0.18,0.48-0.18,0.73c0,0.32,0.08,0.58,0.24,0.79
			c0.16,0.21,0.38,0.39,0.64,0.53c0.26,0.15,0.56,0.28,0.9,0.38c0.33,0.11,0.68,0.22,1.03,0.32c0.35,0.11,0.69,0.23,1.03,0.36
			c0.33,0.13,0.63,0.3,0.9,0.49c0.26,0.2,0.48,0.44,0.64,0.72c0.16,0.28,0.24,0.63,0.24,1.03c0,0.44-0.08,0.85-0.24,1.23
			c-0.16,0.38-0.39,0.7-0.69,0.98c-0.3,0.28-0.67,0.5-1.11,0.66c-0.44,0.16-0.94,0.24-1.5,0.24c-0.71,0-1.32-0.11-1.83-0.34
			s-0.97-0.52-1.38-0.89l0.23-0.35c0.03-0.05,0.07-0.09,0.11-0.12c0.04-0.03,0.1-0.04,0.17-0.04c0.09,0,0.19,0.06,0.32,0.16
			c0.13,0.11,0.3,0.23,0.5,0.35c0.21,0.12,0.46,0.24,0.77,0.35c0.31,0.11,0.69,0.16,1.14,0.16c0.43,0,0.8-0.06,1.13-0.18
			s0.59-0.28,0.81-0.48c0.22-0.2,0.38-0.44,0.49-0.72c0.11-0.27,0.17-0.56,0.17-0.87c0-0.34-0.08-0.62-0.24-0.84
			c-0.16-0.22-0.38-0.41-0.64-0.57c-0.26-0.16-0.56-0.29-0.9-0.4c-0.33-0.11-0.68-0.22-1.03-0.32c-0.35-0.11-0.7-0.23-1.03-0.35
			c-0.34-0.13-0.63-0.29-0.9-0.49c-0.26-0.2-0.47-0.44-0.64-0.72c-0.16-0.28-0.24-0.63-0.24-1.05c0-0.36,0.08-0.7,0.23-1.03
			c0.16-0.33,0.38-0.62,0.66-0.87c0.29-0.25,0.64-0.45,1.05-0.6c0.41-0.15,0.88-0.22,1.39-0.22c0.61,0,1.16,0.09,1.64,0.27
			c0.47,0.18,0.91,0.45,1.31,0.82L571.74,356.11z"/>
		<path style="fill:#FFFFFF;" d="M575.39,364.93h-0.96v-10.08h0.96V364.93z M575.81,351.38c0,0.12-0.02,0.23-0.08,0.34
			c-0.05,0.1-0.12,0.2-0.2,0.28c-0.08,0.08-0.18,0.15-0.28,0.19c-0.11,0.05-0.22,0.07-0.34,0.07c-0.12,0-0.24-0.02-0.34-0.07
			c-0.11-0.05-0.2-0.11-0.28-0.19c-0.08-0.08-0.15-0.17-0.19-0.28c-0.05-0.1-0.07-0.22-0.07-0.34c0-0.12,0.02-0.24,0.07-0.35
			c0.05-0.11,0.11-0.21,0.19-0.29c0.08-0.08,0.17-0.15,0.28-0.19c0.11-0.05,0.22-0.07,0.34-0.07c0.12,0,0.24,0.02,0.34,0.07
			c0.11,0.05,0.2,0.11,0.28,0.19c0.08,0.08,0.15,0.18,0.2,0.29C575.79,351.14,575.81,351.25,575.81,351.38"/>
		<path style="fill:#FFFFFF;" d="M578.01,364.93v-10.08h0.53c0.18,0,0.28,0.08,0.3,0.25l0.09,1.52c0.46-0.58,0.99-1.05,1.6-1.4
			c0.61-0.35,1.29-0.53,2.04-0.53c0.55,0,1.04,0.09,1.46,0.26c0.42,0.18,0.77,0.43,1.05,0.76c0.28,0.33,0.49,0.73,0.63,1.2
			c0.14,0.47,0.21,0.99,0.21,1.58v6.44h-0.96v-6.44c0-0.95-0.22-1.69-0.65-2.22c-0.43-0.54-1.09-0.81-1.99-0.81
			c-0.66,0-1.28,0.17-1.84,0.51c-0.57,0.34-1.07,0.81-1.52,1.4v7.56H578.01z"/>
		<path style="fill:#FFFFFF;" d="M592.61,355.41c-0.52,0-0.99,0.08-1.4,0.25c-0.41,0.16-0.77,0.39-1.07,0.7
			c-0.3,0.3-0.54,0.67-0.73,1.09c-0.19,0.43-0.31,0.9-0.37,1.43h6.64c0-0.54-0.07-1.02-0.22-1.45c-0.15-0.43-0.36-0.79-0.63-1.09
			c-0.27-0.3-0.59-0.53-0.97-0.68S593.06,355.41,592.61,355.41 M592.59,354.69c0.57,0,1.09,0.1,1.58,0.29
			c0.48,0.19,0.9,0.48,1.26,0.86c0.35,0.37,0.63,0.84,0.83,1.38c0.2,0.55,0.3,1.18,0.3,1.88c0,0.15-0.02,0.25-0.07,0.3
			c-0.04,0.06-0.11,0.08-0.21,0.08H589v0.19c0,0.76,0.09,1.42,0.26,2s0.43,1.06,0.75,1.44c0.32,0.39,0.72,0.68,1.17,0.88
			c0.46,0.2,0.97,0.29,1.54,0.29c0.51,0,0.94-0.06,1.32-0.17c0.37-0.11,0.68-0.24,0.94-0.37c0.25-0.14,0.46-0.26,0.6-0.38
			c0.15-0.11,0.26-0.17,0.32-0.17c0.09,0,0.16,0.03,0.2,0.1l0.26,0.32c-0.16,0.2-0.38,0.39-0.64,0.57
			c-0.27,0.17-0.56,0.32-0.89,0.45c-0.33,0.12-0.68,0.22-1.05,0.3c-0.38,0.07-0.75,0.11-1.13,0.11c-0.69,0-1.32-0.12-1.88-0.36
			c-0.57-0.24-1.05-0.59-1.46-1.05s-0.72-1.02-0.94-1.69c-0.22-0.67-0.33-1.43-0.33-2.28c0-0.72,0.1-1.39,0.31-2
			c0.21-0.61,0.5-1.14,0.89-1.58c0.39-0.44,0.87-0.79,1.43-1.04C591.24,354.81,591.88,354.69,592.59,354.69"/>
		<path style="fill:#FFFFFF;" d="M604.31,356.11c-0.05,0.09-0.12,0.14-0.22,0.14c-0.07,0-0.17-0.04-0.29-0.13
			c-0.12-0.08-0.28-0.18-0.47-0.28c-0.19-0.1-0.43-0.2-0.71-0.28c-0.28-0.09-0.62-0.13-1.03-0.13c-0.36,0-0.7,0.05-1,0.16
			c-0.3,0.1-0.56,0.24-0.77,0.42c-0.21,0.18-0.38,0.38-0.5,0.61c-0.12,0.23-0.18,0.48-0.18,0.73c0,0.32,0.08,0.58,0.24,0.79
			c0.16,0.21,0.38,0.39,0.64,0.53c0.26,0.15,0.56,0.28,0.9,0.38c0.33,0.11,0.68,0.22,1.03,0.32c0.35,0.11,0.69,0.23,1.03,0.36
			c0.33,0.13,0.63,0.3,0.9,0.49c0.26,0.2,0.47,0.44,0.64,0.72c0.16,0.28,0.24,0.63,0.24,1.03c0,0.44-0.08,0.85-0.24,1.23
			c-0.16,0.38-0.39,0.7-0.69,0.98c-0.3,0.28-0.67,0.5-1.11,0.66c-0.44,0.16-0.94,0.24-1.5,0.24c-0.71,0-1.32-0.11-1.83-0.34
			s-0.97-0.52-1.38-0.89l0.23-0.35c0.03-0.05,0.07-0.09,0.11-0.12c0.04-0.03,0.1-0.04,0.17-0.04c0.09,0,0.19,0.06,0.32,0.16
			c0.13,0.11,0.3,0.23,0.5,0.35c0.21,0.12,0.46,0.24,0.77,0.35c0.31,0.11,0.69,0.16,1.14,0.16c0.43,0,0.8-0.06,1.13-0.18
			s0.59-0.28,0.81-0.48c0.22-0.2,0.38-0.44,0.49-0.72c0.11-0.27,0.17-0.56,0.17-0.87c0-0.34-0.08-0.62-0.24-0.84
			c-0.16-0.22-0.38-0.41-0.64-0.57c-0.26-0.16-0.56-0.29-0.9-0.4c-0.33-0.11-0.68-0.22-1.03-0.32c-0.35-0.11-0.7-0.23-1.03-0.35
			c-0.33-0.13-0.63-0.29-0.9-0.49c-0.26-0.2-0.48-0.44-0.64-0.72c-0.16-0.28-0.24-0.63-0.24-1.05c0-0.36,0.08-0.7,0.23-1.03
			c0.16-0.33,0.38-0.62,0.66-0.87c0.29-0.25,0.64-0.45,1.05-0.6c0.41-0.15,0.88-0.22,1.39-0.22c0.62,0,1.16,0.09,1.64,0.27
			c0.48,0.18,0.91,0.45,1.31,0.82L604.31,356.11z"/>
		<path style="fill:#FFFFFF;" d="M612.05,356.1c-0.05,0.09-0.11,0.14-0.21,0.14c-0.07,0-0.16-0.04-0.27-0.13
			c-0.11-0.08-0.26-0.18-0.44-0.28c-0.18-0.1-0.41-0.2-0.67-0.28c-0.26-0.08-0.59-0.12-0.97-0.12c-0.34,0-0.66,0.05-0.94,0.16
			c-0.28,0.11-0.53,0.25-0.72,0.42c-0.2,0.18-0.36,0.38-0.47,0.61c-0.11,0.23-0.17,0.48-0.17,0.73c0,0.32,0.08,0.58,0.23,0.79
			c0.15,0.21,0.35,0.39,0.6,0.54c0.25,0.15,0.53,0.28,0.85,0.38c0.31,0.11,0.64,0.22,0.97,0.33c0.33,0.11,0.65,0.23,0.97,0.36
			c0.32,0.13,0.6,0.3,0.85,0.49c0.25,0.2,0.45,0.44,0.6,0.72c0.15,0.28,0.23,0.63,0.23,1.03c0,0.44-0.07,0.85-0.22,1.23
			c-0.15,0.38-0.37,0.71-0.65,0.98c-0.28,0.28-0.63,0.5-1.05,0.66c-0.41,0.16-0.88,0.24-1.41,0.24c-0.67,0-1.25-0.11-1.73-0.34
			c-0.48-0.23-0.92-0.52-1.3-0.89l0.22-0.34c0.03-0.05,0.07-0.09,0.1-0.12c0.04-0.03,0.09-0.04,0.16-0.04
			c0.08,0,0.19,0.05,0.31,0.16c0.12,0.11,0.28,0.22,0.47,0.35c0.19,0.13,0.44,0.24,0.73,0.35c0.29,0.11,0.65,0.16,1.07,0.16
			c0.4,0,0.75-0.06,1.06-0.18c0.31-0.12,0.56-0.28,0.76-0.48c0.2-0.2,0.36-0.44,0.46-0.72c0.1-0.27,0.16-0.56,0.16-0.87
			c0-0.34-0.08-0.62-0.23-0.84c-0.15-0.22-0.35-0.41-0.6-0.57c-0.25-0.16-0.53-0.29-0.85-0.4c-0.31-0.11-0.64-0.22-0.97-0.32
			c-0.33-0.11-0.66-0.23-0.97-0.35c-0.31-0.13-0.6-0.29-0.84-0.49c-0.25-0.2-0.45-0.43-0.6-0.72c-0.15-0.28-0.23-0.63-0.23-1.05
			c0-0.36,0.07-0.7,0.22-1.03c0.15-0.33,0.35-0.62,0.63-0.87c0.27-0.25,0.6-0.45,0.99-0.6c0.39-0.15,0.82-0.22,1.31-0.22
			c0.58,0,1.09,0.09,1.54,0.27c0.45,0.18,0.86,0.45,1.24,0.82L612.05,356.1z"/>
		<path style="fill:#FFFFFF;" d="M477.94,354.85v6.44c0,0.94,0.22,1.69,0.65,2.22c0.43,0.54,1.09,0.81,1.98,0.81
			c0.66,0,1.27-0.17,1.84-0.5c0.57-0.34,1.08-0.8,1.53-1.39v-7.58h0.96v10.08h-0.53c-0.19,0-0.28-0.09-0.29-0.26l-0.09-1.5
			c-0.47,0.58-1.01,1.05-1.62,1.4c-0.61,0.35-1.29,0.53-2.04,0.53c-0.56,0-1.05-0.09-1.47-0.26c-0.42-0.17-0.77-0.43-1.04-0.76
			s-0.49-0.73-0.63-1.19c-0.14-0.47-0.21-0.99-0.21-1.58v-6.44H477.94z"/>
		<path style="fill:#FFFFFF;" d="M491.77,355.46c-0.67,0-1.28,0.17-1.82,0.52c-0.54,0.35-1.03,0.83-1.44,1.45v5.29
			c0.38,0.58,0.81,0.99,1.28,1.22c0.47,0.24,1,0.35,1.61,0.35c0.59,0,1.11-0.11,1.56-0.32c0.45-0.22,0.82-0.52,1.12-0.92
			s0.53-0.87,0.68-1.42c0.16-0.55,0.23-1.16,0.23-1.82c0-1.5-0.28-2.6-0.83-3.31C493.6,355.81,492.8,355.46,491.77,355.46
			 M487.54,368.5v-13.65h0.53c0.09,0,0.16,0.02,0.21,0.06c0.06,0.04,0.09,0.1,0.09,0.2l0.09,1.56c0.45-0.61,0.97-1.09,1.57-1.45
			c0.6-0.36,1.27-0.54,2.01-0.54c1.24,0,2.21,0.43,2.9,1.28c0.69,0.86,1.03,2.15,1.03,3.86c0,0.74-0.09,1.42-0.29,2.06
			c-0.19,0.64-0.47,1.19-0.85,1.66c-0.37,0.47-0.83,0.84-1.37,1.11c-0.54,0.27-1.17,0.41-1.88,0.41c-0.69,0-1.28-0.12-1.78-0.38
			c-0.5-0.25-0.93-0.62-1.3-1.11v4.92H487.54z"/>
	</g>
	<polygon style="fill:#FFFFFF;" points="484.23,303.28 472.84,303.28 463.17,317.57 453.42,303.28 442.03,303.28 457.82,324.4 
		441.05,346.82 452.35,346.82 463.17,331.27 473.91,346.82 485.3,346.82 468.44,324.4 	"/>
</g>
</svg>
