<?xml version="1.0" encoding="utf-8"?>
<!-- Generator: Adobe Illustrator 24.1.2, SVG Export Plug-In . SVG Version: 6.00 Build 0)  -->
<svg version="1.1" id="Layer_1" xmlns="http://www.w3.org/2000/svg" xmlns:xlink="http://www.w3.org/1999/xlink" x="0px" y="0px"
	 viewBox="0 0 841.89 595.28" style="enable-background:new 0 0 841.89 595.28;" xml:space="preserve">
<g>
	<g>
		<path style="fill:#E0E8D2;" d="M240.71,324.54c23.09,31.98,67.74,39.19,99.72,16.11l-4.76-6.59
			c-28.34,20.46-67.91,14.07-88.38-14.27c-20.46-28.35-14.07-67.91,14.27-88.38l-4.76-6.59
			C224.83,247.91,217.62,292.56,240.71,324.54"/>
		<path style="fill:#EB0045;" d="M296.13,257.47c25.29,24.14,26.21,64.21,2.07,89.5c-24.14,25.29-64.21,26.21-89.5,2.07
			L296.13,257.47z"/>
		<path style="fill:#00BC70;" d="M357.76,285.24c-17.56-35.32-60.44-49.72-95.76-32.16c-35.32,17.56-49.72,60.44-32.16,95.76
			l-0.49,0.24c-0.86,0.43-1.9,0.06-2.31-0.81c-16.93-36.14-1.98-79.37,33.94-97.23c35.93-17.86,79.42-3.69,98.01,31.63
			c0.45,0.85,0.11,1.9-0.75,2.33L357.76,285.24z"/>
		<path style="fill:#FFFFFF;" d="M316.44,356.85c-1.82-1.05-3.67-1.24-4.13-0.44c-0.46,0.8,0.64,2.3,2.45,3.35
			c1.82,1.05,3.67,1.24,4.13,0.44C319.36,359.39,318.26,357.89,316.44,356.85"/>
		<path style="fill:#FFFFFF;" d="M321.05,344.53c-2.03-0.54-3.87-0.25-4.1,0.64s1.21,2.06,3.24,2.6c2.03,0.54,3.87,0.25,4.1-0.64
			C324.53,346.24,323.08,345.07,321.05,344.53"/>
		<path style="fill:#FFFFFF;" d="M322.32,331.44c-2.1,0-3.8,0.76-3.8,1.68c0,0.93,1.7,1.68,3.8,1.68c2.1,0,3.8-0.76,3.8-1.69
			C326.12,332.19,324.42,331.44,322.32,331.44"/>
		<path style="fill:#FFFFFF;" d="M320.15,318.47c-2.03,0.55-3.47,1.71-3.23,2.61c0.24,0.9,2.08,1.18,4.11,0.63
			c2.03-0.55,3.47-1.71,3.23-2.61C324.02,318.21,322.18,317.92,320.15,318.47"/>
		<path style="fill:#FFFFFF;" d="M314.71,306.5c-1.82,1.05-2.91,2.55-2.45,3.36c0.46,0.8,2.31,0.6,4.13-0.45
			c1.82-1.05,2.91-2.55,2.45-3.36C318.37,305.25,316.52,305.45,314.71,306.5"/>
		<path style="fill:#FFFFFF;" d="M306.35,296.35c-1.48,1.49-2.15,3.22-1.5,3.88c0.66,0.65,2.39-0.02,3.87-1.5
			c1.48-1.49,2.15-3.22,1.5-3.88C309.56,294.19,307.83,294.86,306.35,296.35"/>
		<path style="fill:#FFFFFF;" d="M295.64,288.71c-1.05,1.82-1.24,3.67-0.44,4.13c0.8,0.46,2.3-0.64,3.35-2.45
			c1.05-1.82,1.24-3.67,0.44-4.13C298.19,285.79,296.69,286.89,295.64,288.71"/>
		<path style="fill:#FFFFFF;" d="M283.33,284.1c-0.54,2.03-0.25,3.87,0.64,4.1c0.9,0.24,2.06-1.21,2.6-3.24
			c0.54-2.03,0.25-3.87-0.64-4.1C285.03,280.62,283.87,282.07,283.33,284.1"/>
		<path style="fill:#FFFFFF;" d="M270.24,282.83c0,2.1,0.76,3.8,1.68,3.8c0.93,0,1.68-1.7,1.68-3.8c0-2.1-0.76-3.8-1.69-3.8
			C270.99,279.03,270.24,280.73,270.24,282.83"/>
		<path style="fill:#FFFFFF;" d="M257.27,285c0.55,2.03,1.71,3.47,2.61,3.23c0.9-0.24,1.18-2.08,0.63-4.11
			c-0.55-2.03-1.71-3.47-2.61-3.23C257,281.13,256.72,282.97,257.27,285"/>
		<path style="fill:#FFFFFF;" d="M245.3,290.45c1.05,1.82,2.55,2.91,3.36,2.45c0.8-0.46,0.6-2.31-0.45-4.13
			c-1.05-1.82-2.55-2.91-3.36-2.45C244.04,286.78,244.24,288.63,245.3,290.45"/>
		<path style="fill:#FFFFFF;" d="M390.46,315.12c0,3.67-1.04,6.44-3.17,8.47c-2.13,2.02-5.39,3.04-9.71,3.04H359.2V303.7h18.38
			c4.32,0,7.59,1.02,9.71,3.04C389.42,308.77,390.46,311.51,390.46,315.12 M378.03,294.02h-28.89v63.83h10.05v-21.62h18.84
			c6.86,0,12.38-1.92,16.39-5.7c4.04-3.81,6.08-8.99,6.08-15.4c0-6.41-2.05-11.59-6.08-15.4
			C390.41,295.93,384.89,294.02,378.03,294.02"/>
		<path style="fill:#FFFFFF;" d="M433.12,325.81c1.1,2.37,1.66,5.03,1.66,7.91c0,2.82-0.56,5.47-1.66,7.87
			c-1.08,2.34-2.67,4.24-4.73,5.63c-2.04,1.38-4.62,2.08-7.65,2.08c-2.98,0-5.58-0.7-7.72-2.1c-2.15-1.39-3.81-3.29-4.95-5.64
			c-1.15-2.39-1.74-5.03-1.74-7.84c0-2.87,0.59-5.52,1.74-7.88c1.13-2.31,2.8-4.2,4.95-5.6c2.13-1.39,4.73-2.09,7.72-2.09
			c3.04,0,5.61,0.7,7.65,2.08C430.45,321.62,432.04,323.5,433.12,325.81 M434.42,314.26c-1.26-1.17-2.67-2.18-4.23-3.02
			c-2.89-1.56-6.38-2.35-10.35-2.35c-4.67,0-8.82,1.13-12.34,3.35c-3.5,2.22-6.25,5.24-8.18,9c-1.91,3.73-2.88,7.93-2.88,12.49
			c0,4.5,0.97,8.68,2.88,12.44c1.93,3.79,4.68,6.83,8.18,9.05c3.52,2.23,7.67,3.36,12.34,3.36c3.98,0,7.46-0.79,10.35-2.35
			c1.56-0.84,2.97-1.84,4.23-3v4.63h9.9V309.6h-9.9V314.26z"/>
	</g>
	<polygon style="fill:#EB0045;" points="491.05,357.84 491.05,300.88 467.73,300.88 467.73,294.04 521.61,294.04 521.61,300.88 
		498.28,300.88 498.28,357.84 	"/>
	<g>
		<path style="fill:#EB0045;" d="M505.21,329.89h32.77c-0.64-4.11-2.38-7.55-5.21-10.31c-2.83-2.76-6.55-4.14-11.18-4.14
			c-4.63,0-8.34,1.38-11.13,4.14C507.67,322.34,505.92,325.78,505.21,329.89 M522.08,358.61c-4.88,0-9.15-1.11-12.82-3.33
			c-3.66-2.22-6.51-5.22-8.53-9.01c-2.03-3.79-3.04-7.97-3.04-12.53c0-4.63,0.96-8.82,2.89-12.58c1.93-3.76,4.69-6.75,8.29-8.96
			c3.6-2.22,7.84-3.32,12.72-3.32c4.95,0,9.2,1.11,12.77,3.32c3.57,2.22,6.31,5.2,8.24,8.96c1.93,3.76,2.89,7.95,2.89,12.58v2.89
			h-40.38c0.39,2.83,1.3,5.41,2.75,7.76c1.44,2.35,3.39,4.21,5.83,5.59c2.44,1.38,5.27,2.07,8.48,2.07c3.41,0,6.27-0.76,8.58-2.26
			c2.31-1.51,4.11-3.45,5.4-5.83h7.9c-1.67,4.31-4.32,7.83-7.95,10.56C532.47,357.25,527.8,358.61,522.08,358.61"/>
		<path style="fill:#EB0045;" d="M568.64,358.61c-4.82,0-9-1.11-12.53-3.33c-3.53-2.22-6.28-5.22-8.24-9.01
			c-1.96-3.79-2.94-7.97-2.94-12.53c0-4.63,0.98-8.82,2.94-12.58c1.96-3.76,4.7-6.75,8.24-8.96c3.53-2.22,7.71-3.32,12.53-3.32
			c5.72,0,10.59,1.48,14.6,4.43c4.01,2.95,6.73,6.78,8.14,11.47h-7.81c-1.09-2.76-2.84-5.01-5.25-6.75c-2.41-1.74-5.32-2.6-8.72-2.6
			c-3.53,0-6.62,0.83-9.25,2.5c-2.64,1.67-4.66,3.89-6.07,6.65c-1.42,2.76-2.12,5.81-2.12,9.16c0,3.28,0.7,6.31,2.12,9.11
			c1.41,2.79,3.44,5.03,6.07,6.7c2.63,1.67,5.72,2.51,9.25,2.51c3.41,0,6.31-0.87,8.72-2.6c2.41-1.74,4.16-3.98,5.25-6.75h7.81
			c-1.42,4.69-4.13,8.51-8.14,11.47C579.22,357.14,574.36,358.61,568.64,358.61"/>
		<path style="fill:#EB0045;" d="M590.68,357.84v-67.47h7.23v26.79c1.74-2.31,3.86-4.27,6.36-5.88c2.51-1.61,5.72-2.41,9.64-2.41
			c3.34,0,6.47,0.79,9.4,2.36c2.92,1.58,5.3,3.92,7.13,7.03c1.83,3.12,2.75,6.96,2.75,11.52v28.05h-7.23v-27.85
			c0-4.37-1.25-7.89-3.76-10.56c-2.51-2.66-5.75-4-9.74-4c-2.7,0-5.14,0.61-7.32,1.83c-2.19,1.22-3.94,2.94-5.25,5.16
			c-1.32,2.22-1.98,4.77-1.98,7.66v27.76H590.68z"/>
	</g>
	<polygon style="fill:#FFFFFF;" points="491.07,309.6 478.45,309.6 467.73,325.43 456.93,309.6 444.31,309.6 461.81,333 
		443.23,357.84 455.74,357.84 467.73,340.62 479.63,357.84 492.25,357.84 473.57,333 	"/>
</g>
</svg>
