<?xml version="1.0" encoding="UTF-8" standalone="no"?>
<!-- Generator: Adobe Illustrator 24.1.2, SVG Export Plug-In . SVG Version: 6.00 Build 0)  -->

<svg
   version="1.1"
   id="Layer_1"
   x="0px"
   y="0px"
   viewBox="0 0 424.48998 141.7382"
   xml:space="preserve"
   sodipodi:docname="PaxTech-Horizontal-Negatif.svg"
   width="424.48999"
   height="141.7382"
   inkscape:version="1.3.2 (091e20e, 2023-11-25, custom)"
   xmlns:inkscape="http://www.inkscape.org/namespaces/inkscape"
   xmlns:sodipodi="http://sodipodi.sourceforge.net/DTD/sodipodi-0.dtd"
   xmlns="http://www.w3.org/2000/svg"
   xmlns:svg="http://www.w3.org/2000/svg"><defs
   id="defs20" /><sodipodi:namedview
   id="namedview20"
   pagecolor="#ffffff"
   bordercolor="#000000"
   borderopacity="0.25"
   inkscape:showpageshadow="2"
   inkscape:pageopacity="0.0"
   inkscape:pagecheckerboard="0"
   inkscape:deskcolor="#d1d1d1"
   inkscape:zoom="2.5514022"
   inkscape:cx="212.43221"
   inkscape:cy="72.70512"
   inkscape:window-width="3840"
   inkscape:window-height="2054"
   inkscape:window-x="-11"
   inkscape:window-y="-11"
   inkscape:window-maximized="1"
   inkscape:current-layer="Layer_1" />
<g
   id="g20"
   transform="translate(-208.7,-224.82)">
	<g
   id="g16">
		<path
   style="fill:#e0e8d2"
   d="m 240.71,324.54 c 23.09,31.98 67.74,39.19 99.72,16.11 l -4.76,-6.59 c -28.34,20.46 -67.91,14.07 -88.38,-14.27 -20.46,-28.35 -14.07,-67.91 14.27,-88.38 l -4.76,-6.59 c -31.97,23.09 -39.18,67.74 -16.09,99.72"
   id="path1" />
		<path
   style="fill:#eb0045"
   d="m 296.13,257.47 c 25.29,24.14 26.21,64.21 2.07,89.5 -24.14,25.29 -64.21,26.21 -89.5,2.07 z"
   id="path2" />
		<path
   style="fill:#00bc70"
   d="M 357.76,285.24 C 340.2,249.92 297.32,235.52 262,253.08 c -35.32,17.56 -49.72,60.44 -32.16,95.76 l -0.49,0.24 c -0.86,0.43 -1.9,0.06 -2.31,-0.81 -16.93,-36.14 -1.98,-79.37 33.94,-97.23 35.93,-17.86 79.42,-3.69 98.01,31.63 0.45,0.85 0.11,1.9 -0.75,2.33 z"
   id="path3" />
		<path
   style="fill:#ffffff"
   d="m 316.44,356.85 c -1.82,-1.05 -3.67,-1.24 -4.13,-0.44 -0.46,0.8 0.64,2.3 2.45,3.35 1.82,1.05 3.67,1.24 4.13,0.44 0.47,-0.81 -0.63,-2.31 -2.45,-3.35"
   id="path4" />
		<path
   style="fill:#ffffff"
   d="m 321.05,344.53 c -2.03,-0.54 -3.87,-0.25 -4.1,0.64 -0.23,0.89 1.21,2.06 3.24,2.6 2.03,0.54 3.87,0.25 4.1,-0.64 0.24,-0.89 -1.21,-2.06 -3.24,-2.6"
   id="path5" />
		<path
   style="fill:#ffffff"
   d="m 322.32,331.44 c -2.1,0 -3.8,0.76 -3.8,1.68 0,0.93 1.7,1.68 3.8,1.68 2.1,0 3.8,-0.76 3.8,-1.69 0,-0.92 -1.7,-1.67 -3.8,-1.67"
   id="path6" />
		<path
   style="fill:#ffffff"
   d="m 320.15,318.47 c -2.03,0.55 -3.47,1.71 -3.23,2.61 0.24,0.9 2.08,1.18 4.11,0.63 2.03,-0.55 3.47,-1.71 3.23,-2.61 -0.24,-0.89 -2.08,-1.18 -4.11,-0.63"
   id="path7" />
		<path
   style="fill:#ffffff"
   d="m 314.71,306.5 c -1.82,1.05 -2.91,2.55 -2.45,3.36 0.46,0.8 2.31,0.6 4.13,-0.45 1.82,-1.05 2.91,-2.55 2.45,-3.36 -0.47,-0.8 -2.32,-0.6 -4.13,0.45"
   id="path8" />
		<path
   style="fill:#ffffff"
   d="m 306.35,296.35 c -1.48,1.49 -2.15,3.22 -1.5,3.88 0.66,0.65 2.39,-0.02 3.87,-1.5 1.48,-1.49 2.15,-3.22 1.5,-3.88 -0.66,-0.66 -2.39,0.01 -3.87,1.5"
   id="path9" />
		<path
   style="fill:#ffffff"
   d="m 295.64,288.71 c -1.05,1.82 -1.24,3.67 -0.44,4.13 0.8,0.46 2.3,-0.64 3.35,-2.45 1.05,-1.82 1.24,-3.67 0.44,-4.13 -0.8,-0.47 -2.3,0.63 -3.35,2.45"
   id="path10" />
		<path
   style="fill:#ffffff"
   d="m 283.33,284.1 c -0.54,2.03 -0.25,3.87 0.64,4.1 0.9,0.24 2.06,-1.21 2.6,-3.24 0.54,-2.03 0.25,-3.87 -0.64,-4.1 -0.9,-0.24 -2.06,1.21 -2.6,3.24"
   id="path11" />
		<path
   style="fill:#ffffff"
   d="m 270.24,282.83 c 0,2.1 0.76,3.8 1.68,3.8 0.93,0 1.68,-1.7 1.68,-3.8 0,-2.1 -0.76,-3.8 -1.69,-3.8 -0.92,0 -1.67,1.7 -1.67,3.8"
   id="path12" />
		<path
   style="fill:#ffffff"
   d="m 257.27,285 c 0.55,2.03 1.71,3.47 2.61,3.23 0.9,-0.24 1.18,-2.08 0.63,-4.11 -0.55,-2.03 -1.71,-3.47 -2.61,-3.23 -0.9,0.24 -1.18,2.08 -0.63,4.11"
   id="path13" />
		<path
   style="fill:#ffffff"
   d="m 245.3,290.45 c 1.05,1.82 2.55,2.91 3.36,2.45 0.8,-0.46 0.6,-2.31 -0.45,-4.13 -1.05,-1.82 -2.55,-2.91 -3.36,-2.45 -0.81,0.46 -0.61,2.31 0.45,4.13"
   id="path14" />
		<path
   style="fill:#ffffff"
   d="m 390.46,315.12 c 0,3.67 -1.04,6.44 -3.17,8.47 -2.13,2.02 -5.39,3.04 -9.71,3.04 H 359.2 V 303.7 h 18.38 c 4.32,0 7.59,1.02 9.71,3.04 2.13,2.03 3.17,4.77 3.17,8.38 m -12.43,-21.1 h -28.89 v 63.83 h 10.05 v -21.62 h 18.84 c 6.86,0 12.38,-1.92 16.39,-5.7 4.04,-3.81 6.08,-8.99 6.08,-15.4 0,-6.41 -2.05,-11.59 -6.08,-15.4 -4.01,-3.8 -9.53,-5.71 -16.39,-5.71"
   id="path15" />
		<path
   style="fill:#ffffff"
   d="m 433.12,325.81 c 1.1,2.37 1.66,5.03 1.66,7.91 0,2.82 -0.56,5.47 -1.66,7.87 -1.08,2.34 -2.67,4.24 -4.73,5.63 -2.04,1.38 -4.62,2.08 -7.65,2.08 -2.98,0 -5.58,-0.7 -7.72,-2.1 -2.15,-1.39 -3.81,-3.29 -4.95,-5.64 -1.15,-2.39 -1.74,-5.03 -1.74,-7.84 0,-2.87 0.59,-5.52 1.74,-7.88 1.13,-2.31 2.8,-4.2 4.95,-5.6 2.13,-1.39 4.73,-2.09 7.72,-2.09 3.04,0 5.61,0.7 7.65,2.08 2.06,1.39 3.65,3.27 4.73,5.58 m 1.3,-11.55 c -1.26,-1.17 -2.67,-2.18 -4.23,-3.02 -2.89,-1.56 -6.38,-2.35 -10.35,-2.35 -4.67,0 -8.82,1.13 -12.34,3.35 -3.5,2.22 -6.25,5.24 -8.18,9 -1.91,3.73 -2.88,7.93 -2.88,12.49 0,4.5 0.97,8.68 2.88,12.44 1.93,3.79 4.68,6.83 8.18,9.05 3.52,2.23 7.67,3.36 12.34,3.36 3.98,0 7.46,-0.79 10.35,-2.35 1.56,-0.84 2.97,-1.84 4.23,-3 v 4.63 h 9.9 V 309.6 h -9.9 z"
   id="path16" />
	</g>
	<polygon
   style="fill:#eb0045"
   points="467.73,300.88 467.73,294.04 521.61,294.04 521.61,300.88 498.28,300.88 498.28,357.84 491.05,357.84 491.05,300.88 "
   id="polygon16" />
	<g
   id="g19">
		<path
   style="fill:#eb0045"
   d="m 505.21,329.89 h 32.77 c -0.64,-4.11 -2.38,-7.55 -5.21,-10.31 -2.83,-2.76 -6.55,-4.14 -11.18,-4.14 -4.63,0 -8.34,1.38 -11.13,4.14 -2.79,2.76 -4.54,6.2 -5.25,10.31 m 16.87,28.72 c -4.88,0 -9.15,-1.11 -12.82,-3.33 -3.66,-2.22 -6.51,-5.22 -8.53,-9.01 -2.03,-3.79 -3.04,-7.97 -3.04,-12.53 0,-4.63 0.96,-8.82 2.89,-12.58 1.93,-3.76 4.69,-6.75 8.29,-8.96 3.6,-2.22 7.84,-3.32 12.72,-3.32 4.95,0 9.2,1.11 12.77,3.32 3.57,2.22 6.31,5.2 8.24,8.96 1.93,3.76 2.89,7.95 2.89,12.58 v 2.89 h -40.38 c 0.39,2.83 1.3,5.41 2.75,7.76 1.44,2.35 3.39,4.21 5.83,5.59 2.44,1.38 5.27,2.07 8.48,2.07 3.41,0 6.27,-0.76 8.58,-2.26 2.31,-1.51 4.11,-3.45 5.4,-5.83 h 7.9 c -1.67,4.31 -4.32,7.83 -7.95,10.56 -3.63,2.73 -8.3,4.09 -14.02,4.09"
   id="path17" />
		<path
   style="fill:#eb0045"
   d="m 568.64,358.61 c -4.82,0 -9,-1.11 -12.53,-3.33 -3.53,-2.22 -6.28,-5.22 -8.24,-9.01 -1.96,-3.79 -2.94,-7.97 -2.94,-12.53 0,-4.63 0.98,-8.82 2.94,-12.58 1.96,-3.76 4.7,-6.75 8.24,-8.96 3.53,-2.22 7.71,-3.32 12.53,-3.32 5.72,0 10.59,1.48 14.6,4.43 4.01,2.95 6.73,6.78 8.14,11.47 h -7.81 c -1.09,-2.76 -2.84,-5.01 -5.25,-6.75 -2.41,-1.74 -5.32,-2.6 -8.72,-2.6 -3.53,0 -6.62,0.83 -9.25,2.5 -2.64,1.67 -4.66,3.89 -6.07,6.65 -1.42,2.76 -2.12,5.81 -2.12,9.16 0,3.28 0.7,6.31 2.12,9.11 1.41,2.79 3.44,5.03 6.07,6.7 2.63,1.67 5.72,2.51 9.25,2.51 3.41,0 6.31,-0.87 8.72,-2.6 2.41,-1.74 4.16,-3.98 5.25,-6.75 h 7.81 c -1.42,4.69 -4.13,8.51 -8.14,11.47 -4.02,2.96 -8.88,4.43 -14.6,4.43"
   id="path18" />
		<path
   style="fill:#eb0045"
   d="m 590.68,357.84 v -67.47 h 7.23 v 26.79 c 1.74,-2.31 3.86,-4.27 6.36,-5.88 2.51,-1.61 5.72,-2.41 9.64,-2.41 3.34,0 6.47,0.79 9.4,2.36 2.92,1.58 5.3,3.92 7.13,7.03 1.83,3.12 2.75,6.96 2.75,11.52 v 28.05 h -7.23 v -27.85 c 0,-4.37 -1.25,-7.89 -3.76,-10.56 -2.51,-2.66 -5.75,-4 -9.74,-4 -2.7,0 -5.14,0.61 -7.32,1.83 -2.19,1.22 -3.94,2.94 -5.25,5.16 -1.32,2.22 -1.98,4.77 -1.98,7.66 v 27.76 h -7.23 z"
   id="path19" />
	</g>
	<polygon
   style="fill:#ffffff"
   points="467.73,325.43 456.93,309.6 444.31,309.6 461.81,333 443.23,357.84 455.74,357.84 467.73,340.62 479.63,357.84 492.25,357.84 473.57,333 491.07,309.6 478.45,309.6 "
   id="polygon19" />
</g>
</svg>
