<svg id="Layer_1" data-name="Layer 1" xmlns="http://www.w3.org/2000/svg" viewBox="0 0 841.89 595.28"><defs><style>.cls-1{fill:#d9d9d9;}.cls-2{fill:#595959;}.cls-3{fill:#a6a6a6;}</style></defs><path class="cls-1" d="M296.42,296.63a100.8,100.8,0,0,0,140.73,22.73l-6.71-9.3A89.33,89.33,0,1,1,325.86,165.21l-6.71-9.3A100.79,100.79,0,0,0,296.42,296.63Z"/><path class="cls-2" d="M374.64,202A89.33,89.33,0,1,1,251.26,331.2Z"/><path class="cls-3" d="M461.6,241.17a100.8,100.8,0,0,0-180.52,89.75l-.69.34a2.41,2.41,0,0,1-3.26-1.13,104,104,0,0,1,186.22-92.59,2.42,2.42,0,0,1-1.06,3.29Z"/><ellipse cx="402.12" cy="344.28" rx="2.37" ry="5.36" transform="translate(-96.89 520.95) rotate(-60.07)"/><ellipse cx="409.2" cy="327.13" rx="2.37" ry="5.36" transform="translate(-12.34 638.2) rotate(-75.07)"/><ellipse cx="411.6" cy="308.74" rx="5.36" ry="2.37" transform="translate(-0.35 0.47) rotate(-0.07)"/><ellipse cx="409.15" cy="290.35" rx="5.36" ry="2.37" transform="translate(-61.41 116.33) rotate(-15.07)"/><ellipse cx="402.04" cy="273.23" rx="5.36" ry="2.37" transform="matrix(0.87, -0.5, 0.5, 0.87, -82.79, 238.18)"/><ellipse cx="390.73" cy="258.52" rx="5.36" ry="2.37" transform="translate(-68.26 352.53) rotate(-45.07)"/><ellipse cx="376" cy="247.25" rx="5.36" ry="2.37" transform="translate(-25.89 449.71) rotate(-60.07)"/><ellipse cx="358.86" cy="240.17" rx="5.36" ry="2.37" transform="translate(34.32 525.01) rotate(-75.07)"/><ellipse cx="340.46" cy="237.77" rx="2.37" ry="5.36" transform="translate(-0.27 0.39) rotate(-0.07)"/><ellipse cx="322.08" cy="240.21" rx="2.37" ry="5.36" transform="translate(-51.37 91.97) rotate(-15.07)"/><ellipse cx="304.95" cy="247.33" rx="2.37" ry="5.36" transform="translate(-82.88 186.05) rotate(-30.07)"/><path d="M300.21,365.84H267.33v72.65h11.44V413.88h21.44c7.81,0,14.09-2.18,18.66-6.49s6.92-10.23,6.92-17.53-2.33-13.19-6.92-17.53S308,365.84,300.21,365.84Zm14.14,24c0,4.18-1.18,7.33-3.6,9.64S304.61,403,299.69,403H278.77V376.87h20.92c4.91,0,8.64,1.16,11.06,3.46S314.35,385.76,314.35,389.86Z"/><path d="M364.39,388.88a23.81,23.81,0,0,0-4.82-3.44,24.54,24.54,0,0,0-11.78-2.68,25.79,25.79,0,0,0-14.05,3.82,26.06,26.06,0,0,0-9.31,10.24,32.4,32.4,0,0,0,0,28.37,25.28,25.28,0,0,0,23.36,14.12,24.54,24.54,0,0,0,11.78-2.68,24.19,24.19,0,0,0,4.82-3.41v5.27h11.26V383.58H364.39ZM362.91,402a22.28,22.28,0,0,1,0,18,14.55,14.55,0,0,1-14.1,8.77,15.84,15.84,0,0,1-8.78-2.38A15.64,15.64,0,0,1,334.4,420a21.22,21.22,0,0,1,0-17.9,15.33,15.33,0,0,1,14.41-8.75,15.26,15.26,0,0,1,8.71,2.36A15.46,15.46,0,0,1,362.91,402Z"/><polygon points="428.87 383.58 414.51 383.58 402.3 401.6 390.01 383.58 375.65 383.58 395.57 410.21 374.41 438.49 388.66 438.49 402.3 418.88 415.85 438.49 430.22 438.49 408.95 410.21 428.87 383.58"/><path class="cls-2" d="M428.85,438.49V373.66H402.3v-7.79h61.33v7.79H437.08v64.83Z"/><path class="cls-2" d="M464.17,439.37a27.54,27.54,0,0,1-14.59-3.79,26.16,26.16,0,0,1-9.71-10.25,29.75,29.75,0,0,1-3.46-14.26,31,31,0,0,1,3.29-14.32,25.35,25.35,0,0,1,9.44-10.2,29.65,29.65,0,0,1,29,0,25.41,25.41,0,0,1,9.38,10.2,30.84,30.84,0,0,1,3.29,14.32v3.29h-46a22.34,22.34,0,0,0,3.13,8.83,18.07,18.07,0,0,0,6.63,6.36,19.31,19.31,0,0,0,9.66,2.36,17.48,17.48,0,0,0,9.76-2.58,18.09,18.09,0,0,0,6.14-6.64h9a26.94,26.94,0,0,1-9.05,12Q473.92,439.38,464.17,439.37ZM445,406.68h37.3a20.34,20.34,0,0,0-5.93-11.74q-4.83-4.71-12.72-4.72T451,394.94A21.08,21.08,0,0,0,445,406.68Z"/><path class="cls-2" d="M517.16,439.37a26.22,26.22,0,0,1-14.26-3.79,25.92,25.92,0,0,1-9.38-10.25,32.15,32.15,0,0,1,0-28.58,26,26,0,0,1,9.38-10.2,26.31,26.31,0,0,1,14.26-3.79,27.29,27.29,0,0,1,16.62,5.05,24.7,24.7,0,0,1,9.27,13.05h-8.89a16.91,16.91,0,0,0-6-7.67,16.54,16.54,0,0,0-9.93-3,19,19,0,0,0-17.45,10.43,23.6,23.6,0,0,0,0,20.78,18.87,18.87,0,0,0,17.45,10.48,16.6,16.6,0,0,0,9.93-3,17,17,0,0,0,6-7.68h8.89a24.66,24.66,0,0,1-9.27,13.05A27.22,27.22,0,0,1,517.16,439.37Z"/><path class="cls-2" d="M542.25,438.49V361.7h8.23v30.5a27.43,27.43,0,0,1,7.24-6.7,20,20,0,0,1,11-2.74,22.23,22.23,0,0,1,10.69,2.69,20.81,20.81,0,0,1,8.12,8,25.55,25.55,0,0,1,3.13,13.11v31.92H582.4v-31.7q0-7.46-4.28-12A14.53,14.53,0,0,0,567,390.22a16.82,16.82,0,0,0-8.34,2.09,15.79,15.79,0,0,0-6,5.87,16.73,16.73,0,0,0-2.25,8.72v31.59Z"/></svg>