<svg id="Layer_1" data-name="Layer 1" xmlns="http://www.w3.org/2000/svg" viewBox="0 0 841.89 595.28"><defs><style>.cls-1{fill:#d9d9d9;}.cls-2{fill:#595959;}.cls-3{fill:#a6a6a6;}</style></defs><path class="cls-1" d="M258.29,316.77a64.47,64.47,0,0,0,90,14.53l-4.3-5.95a57.12,57.12,0,0,1-66.87-92.63l-4.29-5.95A64.46,64.46,0,0,0,258.29,316.77Z"/><path class="cls-2" d="M308.31,256.24a57.12,57.12,0,1,1-78.9,82.63Z"/><path class="cls-3" d="M363.92,281.3a64.46,64.46,0,0,0-115.44,57.39l-.44.22a1.54,1.54,0,0,1-2.09-.73A66.52,66.52,0,0,1,365,279a1.55,1.55,0,0,1-.68,2.1Z"/><ellipse cx="325.88" cy="347.23" rx="1.52" ry="3.43" transform="translate(-137.65 456.37) rotate(-60.07)"/><ellipse cx="330.41" cy="336.27" rx="1.52" ry="3.43" transform="translate(-79.65 568.86) rotate(-75.07)"/><ellipse cx="331.94" cy="324.51" rx="3.43" ry="1.52" transform="translate(-0.37 0.38) rotate(-0.07)"/><ellipse cx="330.38" cy="312.75" rx="3.43" ry="1.52" transform="translate(-69.94 96.62) rotate(-15.07)"/><ellipse cx="325.83" cy="301.8" rx="3.43" ry="1.52" transform="translate(-107.36 203.84) rotate(-30.07)"/><ellipse cx="318.6" cy="292.4" rx="3.43" ry="1.52" transform="translate(-113.42 311.42) rotate(-45.07)"/><ellipse cx="309.18" cy="285.19" rx="3.43" ry="1.52" transform="translate(-92.24 410.81) rotate(-60.07)"/><ellipse cx="298.22" cy="280.66" rx="3.43" ry="1.52" transform="translate(-49.82 496.47) rotate(-75.07)"/><ellipse cx="286.45" cy="279.12" rx="1.52" ry="3.43" transform="matrix(1, 0, 0, 1, -0.32, 0.33)"/><ellipse cx="274.7" cy="280.69" rx="1.52" ry="3.43" transform="translate(-63.52 81.05) rotate(-15.07)"/><ellipse cx="263.74" cy="285.24" rx="1.52" ry="3.43" transform="translate(-107.42 170.51) rotate(-30.07)"/><path d="M382.22,289.22H356.15v57.6h9.07V327.31h17c6.19,0,11.17-1.74,14.79-5.15s5.49-8.11,5.49-13.9-1.84-10.46-5.49-13.9S388.41,289.22,382.22,289.22Zm11.21,19c0,3.31-.93,5.81-2.86,7.64s-4.86,2.75-8.76,2.75H365.22V298h16.59c3.89,0,6.85.92,8.76,2.74S393.43,305,393.43,308.26Z"/><path d="M433.1,307.48a18.09,18.09,0,0,0-3.82-2.72,19.46,19.46,0,0,0-9.34-2.13,20.14,20.14,0,0,0-18.52,11.15,25.71,25.71,0,0,0,0,22.49,20.06,20.06,0,0,0,18.52,11.2,19.46,19.46,0,0,0,9.34-2.13,18.76,18.76,0,0,0,3.82-2.7v4.18H442V303.28H433.1Zm-1.17,10.43a16.72,16.72,0,0,1,1.5,7.14,16.92,16.92,0,0,1-1.5,7.1,11.53,11.53,0,0,1-11.17,7,12.11,12.11,0,0,1-11.43-7,16.82,16.82,0,0,1,0-14.19A12.11,12.11,0,0,1,420.76,311a12,12,0,0,1,6.9,1.87A12.19,12.19,0,0,1,431.93,317.91Z"/><path class="cls-2" d="M484.22,346.82V295.41H463.17v-6.17h48.62v6.17H490.74v51.41Z"/><path class="cls-2" d="M512.21,347.51a21.88,21.88,0,0,1-11.56-3,20.76,20.76,0,0,1-7.7-8.13,23.59,23.59,0,0,1-2.74-11.31,24.54,24.54,0,0,1,2.61-11.35,20.08,20.08,0,0,1,7.48-8.08,23.47,23.47,0,0,1,23,0,20.19,20.19,0,0,1,7.44,8.08,24.54,24.54,0,0,1,2.61,11.35v2.61H496.91a17.52,17.52,0,0,0,2.48,7,14.33,14.33,0,0,0,5.26,5.05,15.22,15.22,0,0,0,7.65,1.87,13.9,13.9,0,0,0,7.74-2,14.38,14.38,0,0,0,4.87-5.27H532a21.33,21.33,0,0,1-7.17,9.53Q520,347.51,512.21,347.51ZM497,321.59h29.58a16.14,16.14,0,0,0-4.7-9.3,13.8,13.8,0,0,0-10.09-3.74,13.65,13.65,0,0,0-10,3.74A16.74,16.74,0,0,0,497,321.59Z"/><path class="cls-2" d="M554.23,347.51a20.85,20.85,0,0,1-11.31-3,20.53,20.53,0,0,1-7.43-8.13,25.46,25.46,0,0,1,0-22.66,20.27,20.27,0,0,1,18.74-11.09,21.62,21.62,0,0,1,13.18,4A19.57,19.57,0,0,1,574.76,317h-7A13.33,13.33,0,0,0,563,310.9a13.08,13.08,0,0,0-7.87-2.35,15,15,0,0,0-13.83,8.26,18.73,18.73,0,0,0,0,16.48,15.08,15.08,0,0,0,5.48,6,15.24,15.24,0,0,0,8.35,2.26,13.08,13.08,0,0,0,7.87-2.35,13.31,13.31,0,0,0,4.74-6.09h7a19.56,19.56,0,0,1-7.35,10.35A21.62,21.62,0,0,1,554.23,347.51Z"/><path class="cls-2" d="M574.12,346.82V285.93h6.52v24.18a21.91,21.91,0,0,1,5.75-5.3,15.84,15.84,0,0,1,8.69-2.18,17.61,17.61,0,0,1,8.48,2.13,16.56,16.56,0,0,1,6.44,6.35,20.27,20.27,0,0,1,2.48,10.4v25.31H606V321.68a13.35,13.35,0,0,0-3.39-9.52,11.49,11.49,0,0,0-8.78-3.61,13.32,13.32,0,0,0-6.61,1.65,12.59,12.59,0,0,0-4.74,4.65,13.28,13.28,0,0,0-1.79,6.92v25.05Z"/><path d="M477.94,354.86v6.44a3.43,3.43,0,0,0,.65,2.22,2.41,2.41,0,0,0,2,.81,3.63,3.63,0,0,0,1.84-.5,5.54,5.54,0,0,0,1.53-1.39v-7.58h1v10.08h-.53a.26.26,0,0,1-.29-.27l-.09-1.5a5.64,5.64,0,0,1-1.62,1.4,4,4,0,0,1-2,.53,3.9,3.9,0,0,1-1.47-.26,2.79,2.79,0,0,1-1.05-.76,3.6,3.6,0,0,1-.63-1.2,5.45,5.45,0,0,1-.21-1.58v-6.44Z"/><path d="M487.54,368.5V354.86h.53a.41.41,0,0,1,.21.05.23.23,0,0,1,.09.2l.09,1.56a5.39,5.39,0,0,1,1.57-1.45,3.92,3.92,0,0,1,2-.53,3.51,3.51,0,0,1,2.9,1.28,6.15,6.15,0,0,1,1,3.86,7.12,7.12,0,0,1-.29,2.06,4.81,4.81,0,0,1-.84,1.66,4,4,0,0,1-1.38,1.11,4.16,4.16,0,0,1-1.88.41,4,4,0,0,1-1.78-.38,3.6,3.6,0,0,1-1.3-1.11v4.92Zm4.23-13A3.28,3.28,0,0,0,490,356a5,5,0,0,0-1.45,1.45v5.29a3.22,3.22,0,0,0,2.89,1.58A3.59,3.59,0,0,0,493,364a3.13,3.13,0,0,0,1.12-.92,4.16,4.16,0,0,0,.68-1.42,6.92,6.92,0,0,0,.23-1.82,5.39,5.39,0,0,0-.83-3.31A2.84,2.84,0,0,0,491.77,355.47Z"/><path d="M411.1,350.6v.86h-7.55v6h6.53v.86h-6.53v6.59H402.5V350.6Z"/><path d="M412.83,364.93V354.85h.5a.34.34,0,0,1,.25.07.38.38,0,0,1,.09.24l.08,2.13a4.79,4.79,0,0,1,1.3-1.92,3,3,0,0,1,2-.69,3.61,3.61,0,0,1,.84.09,3.56,3.56,0,0,1,.73.28l-.13.67a.18.18,0,0,1-.2.16.45.45,0,0,1-.17,0l-.28-.09-.41-.09a3.2,3.2,0,0,0-.56,0,2.61,2.61,0,0,0-1.88.71,5,5,0,0,0-1.19,2.05v6.55Z"/><path d="M424.27,354.69a4.27,4.27,0,0,1,1.58.29,3.5,3.5,0,0,1,1.25.86,3.82,3.82,0,0,1,.84,1.38,5.75,5.75,0,0,1,.29,1.88.58.58,0,0,1-.06.31.27.27,0,0,1-.21.08h-7.27v.19a6.74,6.74,0,0,0,.26,2,4.27,4.27,0,0,0,.75,1.44,3.1,3.1,0,0,0,1.18.88,3.94,3.94,0,0,0,1.53.29,4.32,4.32,0,0,0,1.32-.17,4.72,4.72,0,0,0,.94-.37,6.08,6.08,0,0,0,.6-.37.63.63,0,0,1,.33-.17.23.23,0,0,1,.2.1l.26.32a2.39,2.39,0,0,1-.64.57,4.37,4.37,0,0,1-.89.45,5.68,5.68,0,0,1-1.06.3,6.1,6.1,0,0,1-1.13.11,4.81,4.81,0,0,1-1.88-.36,4,4,0,0,1-1.46-1.05,4.73,4.73,0,0,1-.94-1.68,7.3,7.3,0,0,1-.34-2.29,6.4,6.4,0,0,1,.31-2,4.77,4.77,0,0,1,.89-1.58,4.16,4.16,0,0,1,1.43-1A4.73,4.73,0,0,1,424.27,354.69Zm0,.72a3.84,3.84,0,0,0-1.4.24,3.2,3.2,0,0,0-1.07.7,3.63,3.63,0,0,0-.72,1.09,4.84,4.84,0,0,0-.37,1.43h6.63a4.37,4.37,0,0,0-.22-1.45,3.16,3.16,0,0,0-.63-1.09,2.55,2.55,0,0,0-1-.68A3.17,3.17,0,0,0,424.29,355.41Z"/><path d="M436.61,356.11a.23.23,0,0,1-.22.14.54.54,0,0,1-.29-.13,5,5,0,0,0-.46-.28,4,4,0,0,0-.71-.29,3.83,3.83,0,0,0-1-.12,3.13,3.13,0,0,0-1,.15,2.69,2.69,0,0,0-.77.42,2,2,0,0,0-.5.62,1.66,1.66,0,0,0-.17.73,1.28,1.28,0,0,0,.24.79,2.13,2.13,0,0,0,.64.53,4.13,4.13,0,0,0,.9.38l1,.33c.35.11.7.23,1,.36a3.7,3.7,0,0,1,.9.49,2.59,2.59,0,0,1,.64.72,2.06,2.06,0,0,1,.24,1,3.14,3.14,0,0,1-.24,1.23,2.82,2.82,0,0,1-.69,1,3.21,3.21,0,0,1-1.11.66,4.37,4.37,0,0,1-1.5.24,4.43,4.43,0,0,1-1.83-.34,5.23,5.23,0,0,1-1.38-.88l.24-.35a.43.43,0,0,1,.11-.12.27.27,0,0,1,.17,0,.51.51,0,0,1,.32.16,3.87,3.87,0,0,0,.5.35,4.29,4.29,0,0,0,.77.35,3.44,3.44,0,0,0,1.14.16,3.53,3.53,0,0,0,1.13-.17,2.34,2.34,0,0,0,.81-.49A1.93,1.93,0,0,0,436,363a2.29,2.29,0,0,0,.17-.87,1.37,1.37,0,0,0-.25-.84,2,2,0,0,0-.63-.56,4.63,4.63,0,0,0-.9-.4l-1-.32c-.36-.11-.7-.23-1-.36a4,4,0,0,1-.89-.48,2.31,2.31,0,0,1-.64-.72,2.09,2.09,0,0,1-.24-1,2.34,2.34,0,0,1,.23-1,2.52,2.52,0,0,1,.66-.87,3.35,3.35,0,0,1,1.05-.6,4,4,0,0,1,1.39-.22,4.57,4.57,0,0,1,1.63.27,4,4,0,0,1,1.32.81Z"/><path d="M439.64,364.93V350.19h1v6.38a5.75,5.75,0,0,1,1.6-1.37,4,4,0,0,1,2-.51,3.88,3.88,0,0,1,1.46.26,2.79,2.79,0,0,1,1.05.76,3.27,3.27,0,0,1,.63,1.2,5.45,5.45,0,0,1,.21,1.58v6.44h-1v-6.44a3.48,3.48,0,0,0-.65-2.23,2.4,2.4,0,0,0-2-.8,3.53,3.53,0,0,0-1.85.51,5.41,5.41,0,0,0-1.52,1.4v7.56Z"/><path d="M454.67,354.69a4.26,4.26,0,0,1,1.57.29,3.54,3.54,0,0,1,1.26.86,3.94,3.94,0,0,1,.83,1.38,5.49,5.49,0,0,1,.3,1.88.49.49,0,0,1-.07.31.25.25,0,0,1-.2.08h-7.28v.19a7.08,7.08,0,0,0,.26,2,4.27,4.27,0,0,0,.75,1.44,3.18,3.18,0,0,0,1.18.88,4,4,0,0,0,1.54.29,4.36,4.36,0,0,0,1.32-.17,4.61,4.61,0,0,0,.93-.37,5.34,5.34,0,0,0,.61-.37.58.58,0,0,1,.32-.17.21.21,0,0,1,.2.1l.27.32a2.61,2.61,0,0,1-.65.57,3.91,3.91,0,0,1-.89.45,5.8,5.8,0,0,1-1.05.3,6.18,6.18,0,0,1-1.13.11,4.82,4.82,0,0,1-1.89-.36,4.1,4.1,0,0,1-1.46-1.05,4.89,4.89,0,0,1-.94-1.68,7.31,7.31,0,0,1-.33-2.29,6.12,6.12,0,0,1,.31-2,4.45,4.45,0,0,1,.89-1.58,4.06,4.06,0,0,1,1.43-1A4.67,4.67,0,0,1,454.67,354.69Zm0,.72a3.79,3.79,0,0,0-1.39.24,3,3,0,0,0-1.07.7,3.65,3.65,0,0,0-.73,1.09,5.17,5.17,0,0,0-.37,1.43h6.64a4.37,4.37,0,0,0-.23-1.45,3,3,0,0,0-.62-1.09,2.63,2.63,0,0,0-1-.68A3.22,3.22,0,0,0,454.68,355.41Z"/><path d="M461.3,364.93V354.85h.53a.26.26,0,0,1,.3.25l.1,1.52a5.46,5.46,0,0,1,1.6-1.4,4,4,0,0,1,2-.53,3.94,3.94,0,0,1,1.47.26,2.68,2.68,0,0,1,1,.76,3.27,3.27,0,0,1,.63,1.2,5.43,5.43,0,0,1,.22,1.58v6.44h-1v-6.44a3.42,3.42,0,0,0-.65-2.23,2.4,2.4,0,0,0-2-.8,3.56,3.56,0,0,0-1.85.51,5.38,5.38,0,0,0-1.51,1.4v7.56Z"/><path d="M477.94,354.86v6.44a3.43,3.43,0,0,0,.65,2.22,2.41,2.41,0,0,0,2,.81,3.63,3.63,0,0,0,1.84-.5,5.54,5.54,0,0,0,1.53-1.39v-7.58h1v10.08h-.53a.26.26,0,0,1-.29-.27l-.09-1.5a5.64,5.64,0,0,1-1.62,1.4,4,4,0,0,1-2,.53,3.9,3.9,0,0,1-1.47-.26,2.79,2.79,0,0,1-1.05-.76,3.6,3.6,0,0,1-.63-1.2,5.45,5.45,0,0,1-.21-1.58v-6.44Z"/><path d="M487.54,368.5V354.86h.53a.41.41,0,0,1,.21.05.23.23,0,0,1,.09.2l.09,1.56a5.39,5.39,0,0,1,1.57-1.45,3.92,3.92,0,0,1,2-.53,3.51,3.51,0,0,1,2.9,1.28,6.15,6.15,0,0,1,1,3.86,7.12,7.12,0,0,1-.29,2.06,4.81,4.81,0,0,1-.84,1.66,4,4,0,0,1-1.38,1.11,4.16,4.16,0,0,1-1.88.41,4,4,0,0,1-1.78-.38,3.6,3.6,0,0,1-1.3-1.11v4.92Zm4.23-13A3.28,3.28,0,0,0,490,356a5,5,0,0,0-1.45,1.45v5.29a3.22,3.22,0,0,0,2.89,1.58A3.59,3.59,0,0,0,493,364a3.13,3.13,0,0,0,1.12-.92,4.16,4.16,0,0,0,.68-1.42,6.92,6.92,0,0,0,.23-1.82,5.39,5.39,0,0,0-.83-3.31A2.84,2.84,0,0,0,491.77,355.47Z"/><path d="M504.82,368.17a.66.66,0,0,1-.15.23.41.41,0,0,1-.28.1h-.69l1.77-3.95-4.26-9.7h.8a.28.28,0,0,1,.23.08.48.48,0,0,1,.13.16l3.39,7.84a1.92,1.92,0,0,1,.11.31l.09.32c0-.11.07-.21.1-.32l.12-.31,3.35-7.84a.62.62,0,0,1,.14-.18.39.39,0,0,1,.21-.06h.74Z"/><path d="M515.81,354.69a4.8,4.8,0,0,1,1.94.37,3.78,3.78,0,0,1,1.44,1.05,4.68,4.68,0,0,1,.9,1.63,7.54,7.54,0,0,1,0,4.28,4.68,4.68,0,0,1-.9,1.63,3.89,3.89,0,0,1-1.44,1.05,5.41,5.41,0,0,1-3.88,0,3.93,3.93,0,0,1-1.45-1.05,4.38,4.38,0,0,1-.9-1.63,7.54,7.54,0,0,1,0-4.28,4.38,4.38,0,0,1,.9-1.63,3.82,3.82,0,0,1,1.45-1.05A4.76,4.76,0,0,1,515.81,354.69Zm0,9.61a3.67,3.67,0,0,0,1.57-.31,3,3,0,0,0,1.13-.88,4,4,0,0,0,.67-1.4,6.85,6.85,0,0,0,.22-1.83,6.93,6.93,0,0,0-.22-1.82,4,4,0,0,0-.67-1.4,3,3,0,0,0-1.13-.9,3.67,3.67,0,0,0-1.57-.31,3.71,3.71,0,0,0-1.58.31,3,3,0,0,0-1.12.9,4,4,0,0,0-.68,1.4,6.92,6.92,0,0,0-.23,1.82,6.83,6.83,0,0,0,.23,1.83,4,4,0,0,0,.68,1.4,2.93,2.93,0,0,0,1.12.88A3.71,3.71,0,0,0,515.81,364.3Z"/><path d="M523.62,354.85v6.44a3.43,3.43,0,0,0,.66,2.23,2.4,2.4,0,0,0,2,.8,3.63,3.63,0,0,0,1.84-.5,5.26,5.26,0,0,0,1.53-1.39v-7.58h1v10.08h-.53a.26.26,0,0,1-.29-.26l-.09-1.5a5.5,5.5,0,0,1-1.62,1.39,4.23,4.23,0,0,1-3.51.27,2.79,2.79,0,0,1-1-.76,3.41,3.41,0,0,1-.62-1.2,5.11,5.11,0,0,1-.22-1.58v-6.44Z"/><path d="M533.22,364.93V354.85h.51a.33.33,0,0,1,.24.07.38.38,0,0,1,.09.24l.08,2.13a4.82,4.82,0,0,1,1.3-1.92,3,3,0,0,1,2-.69,3.76,3.76,0,0,1,.85.09,3.7,3.7,0,0,1,.72.28l-.13.67a.18.18,0,0,1-.2.16.45.45,0,0,1-.17,0l-.28-.09-.41-.09a3.13,3.13,0,0,0-.56,0,2.61,2.61,0,0,0-1.88.71,5.07,5.07,0,0,0-1.19,2.05v6.55Z"/><path d="M545,364.93V350.19h1v6.42a5.13,5.13,0,0,1,1.55-1.4,3.78,3.78,0,0,1,2-.52,3.51,3.51,0,0,1,2.89,1.28,6,6,0,0,1,1,3.85,6.91,6.91,0,0,1-.29,2.07,4.83,4.83,0,0,1-.85,1.66,3.94,3.94,0,0,1-1.38,1.11,4.16,4.16,0,0,1-1.88.4,3.85,3.85,0,0,1-1.82-.41,3.64,3.64,0,0,1-1.3-1.21l-.06,1.24a.25.25,0,0,1-.28.25Zm4.23-9.47a3.32,3.32,0,0,0-1.81.51,5.22,5.22,0,0,0-1.45,1.44v5.32a3.4,3.4,0,0,0,1.27,1.22,3.51,3.51,0,0,0,1.62.35,3.65,3.65,0,0,0,1.56-.32,3,3,0,0,0,1.12-.92,4.08,4.08,0,0,0,.68-1.42,6.87,6.87,0,0,0,.23-1.82,5.33,5.33,0,0,0-.83-3.3A2.85,2.85,0,0,0,549.24,355.46Z"/><path d="M556.54,354.85v6.44a3.42,3.42,0,0,0,.65,2.23,2.4,2.4,0,0,0,2,.8,3.51,3.51,0,0,0,1.84-.5,5.26,5.26,0,0,0,1.53-1.39v-7.58h1v10.08H563c-.19,0-.29-.09-.29-.26l-.1-1.5a5.79,5.79,0,0,1-1.61,1.4,4.09,4.09,0,0,1-2.05.52,3.9,3.9,0,0,1-1.47-.26,2.68,2.68,0,0,1-1-.76,3.27,3.27,0,0,1-.63-1.2,5.43,5.43,0,0,1-.22-1.58v-6.44Z"/><path d="M571.74,356.11a.24.24,0,0,1-.22.14.51.51,0,0,1-.29-.13,5,5,0,0,0-.46-.28,4,4,0,0,0-.71-.29,3.83,3.83,0,0,0-1-.12,3.13,3.13,0,0,0-1,.15,2.69,2.69,0,0,0-.77.42,2,2,0,0,0-.5.62,1.66,1.66,0,0,0-.17.73,1.28,1.28,0,0,0,.24.79,2.13,2.13,0,0,0,.64.53,4.26,4.26,0,0,0,.89.38l1,.33c.35.11.7.23,1,.36a3.7,3.7,0,0,1,.9.49,2.59,2.59,0,0,1,.64.72,2.06,2.06,0,0,1,.24,1,3.14,3.14,0,0,1-.24,1.23,2.82,2.82,0,0,1-.69,1,3.21,3.21,0,0,1-1.11.66,4.37,4.37,0,0,1-1.5.24,4.43,4.43,0,0,1-1.83-.34,5.23,5.23,0,0,1-1.38-.88l.23-.35.12-.12a.27.27,0,0,1,.17,0,.53.53,0,0,1,.32.16,3.87,3.87,0,0,0,.5.35,4.29,4.29,0,0,0,.77.35,3.44,3.44,0,0,0,1.14.16,3.53,3.53,0,0,0,1.13-.17,2.34,2.34,0,0,0,.81-.49,2.06,2.06,0,0,0,.49-.71,2.29,2.29,0,0,0,.17-.87,1.37,1.37,0,0,0-.25-.84,2,2,0,0,0-.63-.56,4.63,4.63,0,0,0-.9-.4c-.34-.11-.68-.22-1-.32s-.69-.23-1-.36a4,4,0,0,1-.89-.48,2.31,2.31,0,0,1-.64-.72,2.09,2.09,0,0,1-.25-1,2.35,2.35,0,0,1,.24-1,2.52,2.52,0,0,1,.66-.87,3.35,3.35,0,0,1,1-.6,4,4,0,0,1,1.39-.22,4.57,4.57,0,0,1,1.63.27,4,4,0,0,1,1.32.81Z"/><path d="M575.81,351.38a.72.72,0,0,1-.07.33,1,1,0,0,1-.2.28,1,1,0,0,1-.29.2.86.86,0,0,1-.68,0,1,1,0,0,1-.29-.2.92.92,0,0,1-.19-.28.72.72,0,0,1-.07-.33.81.81,0,0,1,.07-.35.86.86,0,0,1,.19-.29,1,1,0,0,1,.29-.2.86.86,0,0,1,.68,0,1,1,0,0,1,.29.2.88.88,0,0,1,.2.29A.81.81,0,0,1,575.81,351.38Zm-.42,3.47v10.08h-1V354.85Z"/><path d="M578,364.93V354.85h.52a.28.28,0,0,1,.31.25l.09,1.52a5.59,5.59,0,0,1,1.6-1.4,4.09,4.09,0,0,1,2.05-.53A3.88,3.88,0,0,1,584,355a2.79,2.79,0,0,1,1.05.76,3.6,3.6,0,0,1,.63,1.2,5.45,5.45,0,0,1,.21,1.58v6.44h-1v-6.44a3.48,3.48,0,0,0-.65-2.23,2.42,2.42,0,0,0-2-.8,3.52,3.52,0,0,0-1.84.51,5.28,5.28,0,0,0-1.52,1.4v7.56Z"/><path d="M592.59,354.69a4.31,4.31,0,0,1,1.58.29,3.5,3.5,0,0,1,1.25.86,3.67,3.67,0,0,1,.83,1.38,5.49,5.49,0,0,1,.3,1.88.58.58,0,0,1-.06.31.29.29,0,0,1-.21.08H589v.19a6.74,6.74,0,0,0,.26,2,4.1,4.1,0,0,0,.75,1.44,3.07,3.07,0,0,0,1.17.88,4,4,0,0,0,1.54.29,4.32,4.32,0,0,0,1.32-.17,5,5,0,0,0,.94-.37,6.08,6.08,0,0,0,.6-.37.65.65,0,0,1,.32-.17.24.24,0,0,1,.21.1l.26.32a2.55,2.55,0,0,1-.64.57,4.37,4.37,0,0,1-.89.45,5.68,5.68,0,0,1-1.06.3,6.1,6.1,0,0,1-1.13.11,4.77,4.77,0,0,1-1.88-.36,3.93,3.93,0,0,1-1.46-1.05,4.73,4.73,0,0,1-.94-1.68,7,7,0,0,1-.34-2.29,6.4,6.4,0,0,1,.31-2,4.77,4.77,0,0,1,.89-1.58,4.16,4.16,0,0,1,1.43-1A4.73,4.73,0,0,1,592.59,354.69Zm0,.72a3.84,3.84,0,0,0-1.4.24,3.11,3.11,0,0,0-1.07.7,3.45,3.45,0,0,0-.72,1.09,4.84,4.84,0,0,0-.37,1.43h6.63a4.37,4.37,0,0,0-.22-1.45,3.16,3.16,0,0,0-.63-1.09,2.55,2.55,0,0,0-1-.68A3.17,3.17,0,0,0,592.61,355.41Z"/><path d="M604.31,356.11a.24.24,0,0,1-.22.14.51.51,0,0,1-.29-.13,4.15,4.15,0,0,0-.47-.28,3.47,3.47,0,0,0-.71-.29,3.7,3.7,0,0,0-1-.12,3.13,3.13,0,0,0-1,.15,2.69,2.69,0,0,0-.77.42,2,2,0,0,0-.5.62,1.54,1.54,0,0,0-.17.73,1.28,1.28,0,0,0,.24.79,2.13,2.13,0,0,0,.64.53,4.26,4.26,0,0,0,.89.38l1,.33c.35.11.7.23,1,.36a3.9,3.9,0,0,1,.9.49,2.41,2.41,0,0,1,.63.72,2,2,0,0,1,.25,1,3.14,3.14,0,0,1-.24,1.23,2.82,2.82,0,0,1-.69,1,3.21,3.21,0,0,1-1.11.66,4.37,4.37,0,0,1-1.5.24,4.43,4.43,0,0,1-1.83-.34,5.23,5.23,0,0,1-1.38-.88l.23-.35.12-.12a.27.27,0,0,1,.17,0,.53.53,0,0,1,.32.16,3.87,3.87,0,0,0,.5.35,4.29,4.29,0,0,0,.77.35,3.44,3.44,0,0,0,1.14.16,3.53,3.53,0,0,0,1.13-.17,2.34,2.34,0,0,0,.81-.49,2.06,2.06,0,0,0,.49-.71,2.29,2.29,0,0,0,.17-.87,1.44,1.44,0,0,0-.25-.84,2,2,0,0,0-.64-.56,4.28,4.28,0,0,0-.89-.4c-.34-.11-.68-.22-1-.32s-.69-.23-1-.36a4,4,0,0,1-.89-.48,2.31,2.31,0,0,1-.64-.72,2.09,2.09,0,0,1-.25-1,2.35,2.35,0,0,1,.24-1,2.52,2.52,0,0,1,.66-.87,3.35,3.35,0,0,1,1.05-.6,4,4,0,0,1,1.39-.22,4.57,4.57,0,0,1,1.63.27,3.82,3.82,0,0,1,1.31.81Z"/><path d="M612.05,356.1a.23.23,0,0,1-.21.15.54.54,0,0,1-.27-.13c-.12-.09-.26-.18-.44-.29a4.84,4.84,0,0,0-.67-.28,3.4,3.4,0,0,0-1-.13,2.76,2.76,0,0,0-.94.16,2.26,2.26,0,0,0-.73.42,1.85,1.85,0,0,0-.47.61,1.7,1.7,0,0,0-.16.74,1.28,1.28,0,0,0,.22.78,2.13,2.13,0,0,0,.61.54,3.82,3.82,0,0,0,.84.38l1,.33c.33.11.66.23,1,.36a3.37,3.37,0,0,1,.85.49,2.46,2.46,0,0,1,.6.72,2.18,2.18,0,0,1,.23,1,3.32,3.32,0,0,1-.23,1.23,2.63,2.63,0,0,1-.65,1,3,3,0,0,1-1,.66,3.74,3.74,0,0,1-1.42.25,4.17,4.17,0,0,1-1.73-.34,4.79,4.79,0,0,1-1.29-.89l.22-.35a.4.4,0,0,1,.1-.12.34.34,0,0,1,.16,0,.54.54,0,0,1,.31.16,4.35,4.35,0,0,0,.47.36,4.54,4.54,0,0,0,.73.35,3.3,3.3,0,0,0,1.07.16,2.87,2.87,0,0,0,1.06-.18,2.29,2.29,0,0,0,.77-.48,2.16,2.16,0,0,0,.46-.72,2.48,2.48,0,0,0,.16-.86,1.52,1.52,0,0,0-.23-.85,2,2,0,0,0-.6-.56,3.93,3.93,0,0,0-.85-.4l-1-.32c-.34-.11-.66-.23-1-.36a3.83,3.83,0,0,1-.84-.48,2.31,2.31,0,0,1-.6-.72,2.09,2.09,0,0,1-.23-1,2.45,2.45,0,0,1,.22-1,2.66,2.66,0,0,1,.62-.88,3,3,0,0,1,1-.59,3.6,3.6,0,0,1,1.31-.23A4.11,4.11,0,0,1,611,355a3.77,3.77,0,0,1,1.24.82Z"/><path d="M477.94,354.85v6.44a3.48,3.48,0,0,0,.65,2.23,2.44,2.44,0,0,0,2,.8,3.54,3.54,0,0,0,1.84-.5,5.39,5.39,0,0,0,1.53-1.39v-7.58h1v10.08h-.53a.26.26,0,0,1-.29-.26l-.09-1.5a5.8,5.8,0,0,1-1.62,1.4,4,4,0,0,1-2,.52,3.71,3.71,0,0,1-1.47-.26,2.79,2.79,0,0,1-1.05-.76,3.6,3.6,0,0,1-.63-1.2,5.45,5.45,0,0,1-.21-1.58v-6.44Z"/><path d="M487.54,368.5V354.85h.53a.33.33,0,0,1,.21.06.2.2,0,0,1,.09.19l.09,1.56a5.35,5.35,0,0,1,1.57-1.44,3.83,3.83,0,0,1,2-.54,3.53,3.53,0,0,1,2.9,1.28,6.16,6.16,0,0,1,1,3.87,7.22,7.22,0,0,1-.29,2.06,5,5,0,0,1-.84,1.66,4,4,0,0,1-1.38,1.11,4.16,4.16,0,0,1-1.88.4,4,4,0,0,1-1.78-.37,3.63,3.63,0,0,1-1.3-1.12v4.93Zm4.23-13A3.28,3.28,0,0,0,490,356a5,5,0,0,0-1.45,1.45v5.29a3.17,3.17,0,0,0,2.89,1.58A3.45,3.45,0,0,0,493,364a3,3,0,0,0,1.12-.92,4.08,4.08,0,0,0,.68-1.42,6.84,6.84,0,0,0,.23-1.81,5.37,5.37,0,0,0-.83-3.31A2.82,2.82,0,0,0,491.77,355.46Z"/><polygon points="484.23 303.28 472.84 303.28 463.17 317.57 453.42 303.28 442.03 303.28 457.82 324.4 441.05 346.82 452.35 346.82 463.17 331.27 473.91 346.82 485.3 346.82 468.44 324.4 484.23 303.28"/></svg>