<svg id="Layer_1" data-name="Layer 1" xmlns="http://www.w3.org/2000/svg" viewBox="0 0 841.89 595.28"><defs><style>.cls-1{fill:#d9d9d9;}.cls-2{fill:#595959;}.cls-3{fill:#a6a6a6;}</style></defs><path class="cls-1" d="M272.64,257.2A92.2,92.2,0,0,0,401.35,278l-6.14-8.51A81.7,81.7,0,0,1,299.57,137l-6.14-8.51A92.2,92.2,0,0,0,272.64,257.2Z"/><path class="cls-2" d="M344.18,170.63A81.7,81.7,0,1,1,231.34,288.81Z"/><path class="cls-3" d="M423.71,206.48a92.19,92.19,0,1,0-165.1,82.08l-.63.32a2.2,2.2,0,0,1-3-1.05,95.12,95.12,0,0,1,170.31-84.67,2.2,2.2,0,0,1-1,3Z"/><ellipse cx="369.31" cy="300.78" rx="2.17" ry="4.9" transform="matrix(0.5, -0.87, 0.87, 0.5, -75.63, 470.73)"/><ellipse cx="375.78" cy="285.1" rx="2.17" ry="4.9" transform="translate(3.47 574.71) rotate(-75.07)"/><ellipse cx="377.98" cy="268.28" rx="4.9" ry="2.17" transform="translate(-0.31 0.43) rotate(-0.07)"/><ellipse cx="375.75" cy="251.46" rx="4.9" ry="2.17" transform="translate(-52.45 106.31) rotate(-15.07)"/><ellipse cx="369.24" cy="235.79" rx="4.9" ry="2.17" transform="translate(-68.45 216.71) rotate(-30.07)"/><ellipse cx="358.89" cy="222.35" rx="4.9" ry="2.17" transform="translate(-52 319.37) rotate(-45.07)"/><ellipse cx="345.42" cy="212.04" rx="4.9" ry="2.17" transform="translate(-10.7 405.57) rotate(-60.07)"/><ellipse cx="329.74" cy="205.56" rx="4.9" ry="2.17" transform="translate(46.15 471.19) rotate(-75.07)"/><ellipse cx="312.92" cy="203.37" rx="2.17" ry="4.9" transform="matrix(1, 0, 0, 1, -0.23, 0.36)"/><ellipse cx="296.11" cy="205.6" rx="2.17" ry="4.9" transform="translate(-43.26 84.03) rotate(-15.07)"/><ellipse cx="280.44" cy="212.11" rx="2.17" ry="4.9" transform="translate(-68.53 169.04) rotate(-30.07)"/><path d="M276.11,320.5H246v66.44H256.5v-22.5h19.61c7.14,0,12.88-2,17.06-5.94s6.34-9.36,6.34-16-2.14-12.07-6.34-16S283.25,320.5,276.11,320.5Zm12.93,22c0,3.82-1.07,6.7-3.3,8.81s-5.61,3.17-10.11,3.17H256.5V330.58h19.13c4.5,0,7.9,1.07,10.11,3.17S289,338.71,289,342.47Z"/><path d="M334.8,341.57a21.45,21.45,0,0,0-4.4-3.15A22.55,22.55,0,0,0,319.62,336a23.24,23.24,0,0,0-21.36,12.86,29.56,29.56,0,0,0,0,25.95,23.12,23.12,0,0,0,21.36,12.91,22.43,22.43,0,0,0,10.78-2.45,21.71,21.71,0,0,0,4.4-3.12v4.82h10.31V336.72H334.8Zm-1.35,12a20.35,20.35,0,0,1,0,16.42,13.35,13.35,0,0,1-12.89,8,14.42,14.42,0,0,1-8-2.19,14.27,14.27,0,0,1-5.15-5.86,19.46,19.46,0,0,1,0-16.37,14.05,14.05,0,0,1,13.19-8,13.37,13.37,0,0,1,12.89,8Z"/><polygon points="393.78 336.73 380.64 336.73 369.48 353.2 358.23 336.73 345.1 336.73 363.32 361.08 343.97 386.94 357 386.94 369.48 369.01 381.87 386.94 395.01 386.94 375.56 361.08 393.78 336.73"/><path class="cls-2" d="M393.76,386.94V327.65H369.48v-7.12h56.09v7.12H401.29v59.29Z"/><path class="cls-2" d="M426.06,387.75a25.32,25.32,0,0,1-13.34-3.46,23.87,23.87,0,0,1-8.88-9.39,27.19,27.19,0,0,1-3.17-13,28.32,28.32,0,0,1,3-13.09,23.23,23.23,0,0,1,8.63-9.33,27.18,27.18,0,0,1,26.54,0,23.31,23.31,0,0,1,8.58,9.33,28.19,28.19,0,0,1,3,13.09v3h-42a20.57,20.57,0,0,0,2.86,8.08,16.62,16.62,0,0,0,6.07,5.82,17.61,17.61,0,0,0,8.83,2.15,16,16,0,0,0,8.93-2.35,16.67,16.67,0,0,0,5.62-6.07h8.22a24.49,24.49,0,0,1-8.27,11Q435,387.76,426.06,387.75Zm-17.56-29.9h34.12a18.65,18.65,0,0,0-5.42-10.74q-4.43-4.31-11.64-4.31T414,347.11A19.33,19.33,0,0,0,408.5,357.85Z"/><path class="cls-2" d="M474.53,387.75a24.06,24.06,0,0,1-13-3.46,23.71,23.71,0,0,1-8.58-9.39,29.42,29.42,0,0,1,0-26.13A23.35,23.35,0,0,1,474.53,336a24.91,24.91,0,0,1,15.2,4.61,22.65,22.65,0,0,1,8.48,11.94h-8.13a15.51,15.51,0,0,0-5.47-7,15.09,15.09,0,0,0-9.08-2.71,17.32,17.32,0,0,0-15.95,9.53,21.54,21.54,0,0,0,0,19,17.25,17.25,0,0,0,15.95,9.58,15.15,15.15,0,0,0,9.08-2.7,15.54,15.54,0,0,0,5.47-7h8.13a22.61,22.61,0,0,1-8.48,11.94A24.92,24.92,0,0,1,474.53,387.75Z"/><path class="cls-2" d="M497.47,386.94V316.71H505V344.6a25.32,25.32,0,0,1,6.62-6.12,18.3,18.3,0,0,1,10-2.5,20.46,20.46,0,0,1,9.79,2.45,19.12,19.12,0,0,1,7.42,7.33,23.26,23.26,0,0,1,2.86,12v29.19h-7.53V358q0-6.82-3.91-11a13.3,13.3,0,0,0-10.13-4.16,15.4,15.4,0,0,0-7.63,1.9,14.6,14.6,0,0,0-5.47,5.37,15.34,15.34,0,0,0-2.05,8v28.89Z"/><path d="M386.53,396.22v7.43a4,4,0,0,0,.75,2.57,2.76,2.76,0,0,0,2.29.93,4.2,4.2,0,0,0,2.12-.58,6.51,6.51,0,0,0,1.77-1.61v-8.74h1.11v11.63H394a.3.3,0,0,1-.34-.31l-.1-1.73a6.83,6.83,0,0,1-1.87,1.62,4.71,4.71,0,0,1-2.36.6,4.45,4.45,0,0,1-1.7-.3,3.12,3.12,0,0,1-1.2-.88,4,4,0,0,1-.73-1.38,6.32,6.32,0,0,1-.24-1.82v-7.43Z"/><path d="M397.6,412V396.22h.61a.43.43,0,0,1,.24.06.28.28,0,0,1,.11.23l.1,1.8a6.21,6.21,0,0,1,1.81-1.67,4.45,4.45,0,0,1,2.32-.62,4,4,0,0,1,3.34,1.48,7.07,7.07,0,0,1,1.19,4.46,8.18,8.18,0,0,1-.33,2.37,5.62,5.62,0,0,1-1,1.92,4.58,4.58,0,0,1-1.58,1.28,4.84,4.84,0,0,1-2.17.47,4.63,4.63,0,0,1-2.05-.43,4.18,4.18,0,0,1-1.5-1.29V412Zm4.87-15a3.78,3.78,0,0,0-2.09.6,5.69,5.69,0,0,0-1.67,1.68v6.1a3.93,3.93,0,0,0,1.48,1.41,4.09,4.09,0,0,0,1.85.41,4,4,0,0,0,1.8-.37,3.59,3.59,0,0,0,1.29-1.06,4.62,4.62,0,0,0,.78-1.64,7.61,7.61,0,0,0,.27-2.09,6.16,6.16,0,0,0-1-3.82A3.28,3.28,0,0,0,402.47,396.92Z"/><path d="M309.42,391.3v1h-8.71v7h7.54v1h-7.54v7.6h-1.2V391.3Z"/><path d="M311.41,407.84V396.21H312a.41.41,0,0,1,.28.08.38.38,0,0,1,.1.28l.1,2.46a5.53,5.53,0,0,1,1.49-2.22,3.44,3.44,0,0,1,2.3-.8,3.82,3.82,0,0,1,1.82.43l-.16.77a.21.21,0,0,1-.23.19.48.48,0,0,1-.2,0l-.32-.1-.47-.11a4.19,4.19,0,0,0-.65,0,3,3,0,0,0-2.16.82,5.74,5.74,0,0,0-1.38,2.36v7.56Z"/><path d="M324.62,396a4.86,4.86,0,0,1,1.81.34,4.16,4.16,0,0,1,1.45,1,4.51,4.51,0,0,1,1,1.59,6.35,6.35,0,0,1,.35,2.18.58.58,0,0,1-.08.35.3.3,0,0,1-.24.09h-8.39v.22a8,8,0,0,0,.3,2.31,4.76,4.76,0,0,0,.87,1.66,3.44,3.44,0,0,0,1.35,1,4.45,4.45,0,0,0,1.78.34,5.3,5.3,0,0,0,1.52-.19,6.37,6.37,0,0,0,1.08-.43,6.81,6.81,0,0,0,.7-.44.84.84,0,0,1,.37-.19.26.26,0,0,1,.23.12l.31.37a3.72,3.72,0,0,1-.74.66,6.2,6.2,0,0,1-1,.52,7.52,7.52,0,0,1-1.22.34,6.3,6.3,0,0,1-1.3.13,5.5,5.5,0,0,1-2.18-.42,4.58,4.58,0,0,1-1.68-1.21,5.45,5.45,0,0,1-1.09-1.94,8.54,8.54,0,0,1-.38-2.64,7.07,7.07,0,0,1,.36-2.3,5.26,5.26,0,0,1,1-1.83,4.75,4.75,0,0,1,1.65-1.2A5.56,5.56,0,0,1,324.62,396Zm0,.83a4.53,4.53,0,0,0-1.61.28,3.66,3.66,0,0,0-1.23.81,4.34,4.34,0,0,0-.84,1.26,5.87,5.87,0,0,0-.42,1.65h7.65a4.94,4.94,0,0,0-.26-1.68,3.57,3.57,0,0,0-.72-1.25,3,3,0,0,0-1.12-.79A3.61,3.61,0,0,0,324.63,396.85Z"/><path d="M338.85,397.66a.26.26,0,0,1-.26.16.71.71,0,0,1-.33-.14,3.76,3.76,0,0,0-.54-.33,4.52,4.52,0,0,0-.81-.33,4.13,4.13,0,0,0-1.19-.14,3.51,3.51,0,0,0-1.15.18,2.91,2.91,0,0,0-.89.48,2.16,2.16,0,0,0-.57.71,1.74,1.74,0,0,0-.21.84,1.47,1.47,0,0,0,.28.91,2.52,2.52,0,0,0,.74.62,6.13,6.13,0,0,0,1,.44l1.19.37c.41.13.8.27,1.19.42a4.61,4.61,0,0,1,1,.56,2.93,2.93,0,0,1,.74.83,2.47,2.47,0,0,1,.28,1.2,3.51,3.51,0,0,1-.28,1.41,3.08,3.08,0,0,1-.79,1.13,3.78,3.78,0,0,1-1.28.76,4.91,4.91,0,0,1-1.73.28,5.28,5.28,0,0,1-2.12-.39,6,6,0,0,1-1.59-1l.27-.4a.6.6,0,0,1,.13-.14.4.4,0,0,1,.2,0,.63.63,0,0,1,.37.18,5.6,5.6,0,0,0,.58.41,5.83,5.83,0,0,0,.89.4,4.14,4.14,0,0,0,1.32.19,3.63,3.63,0,0,0,1.29-.21,2.63,2.63,0,0,0,.94-.55,2.22,2.22,0,0,0,.56-.83,2.59,2.59,0,0,0,.2-1,1.66,1.66,0,0,0-.28-1,2.6,2.6,0,0,0-.74-.65,5.43,5.43,0,0,0-1-.46l-1.2-.37c-.4-.13-.8-.26-1.19-.41a4.24,4.24,0,0,1-1-.56,2.75,2.75,0,0,1-.74-.82,2.49,2.49,0,0,1-.28-1.21,2.8,2.8,0,0,1,.27-1.2,3.09,3.09,0,0,1,.77-1,3.65,3.65,0,0,1,1.21-.69,4.67,4.67,0,0,1,1.6-.26,5.45,5.45,0,0,1,1.88.31,4.75,4.75,0,0,1,1.52.94Z"/><path d="M342.34,407.84v-17h1.11v7.37a6.57,6.57,0,0,1,1.84-1.59,4.65,4.65,0,0,1,2.32-.59,4.25,4.25,0,0,1,1.69.31,3.06,3.06,0,0,1,1.21.87,4,4,0,0,1,.73,1.38,6.44,6.44,0,0,1,.24,1.83v7.43h-1.11v-7.43a4,4,0,0,0-.75-2.57,2.76,2.76,0,0,0-2.29-.93,4.06,4.06,0,0,0-2.12.59,6.1,6.1,0,0,0-1.76,1.62v8.72Z"/><path d="M359.68,396a5,5,0,0,1,1.82.34,4.12,4.12,0,0,1,1.44,1,4.51,4.51,0,0,1,1,1.59,6.35,6.35,0,0,1,.35,2.18.58.58,0,0,1-.08.35.3.3,0,0,1-.24.09h-8.39v.22a7.69,7.69,0,0,0,.31,2.31,4.74,4.74,0,0,0,.86,1.66,3.4,3.4,0,0,0,1.36,1,4.37,4.37,0,0,0,1.77.34,5.26,5.26,0,0,0,1.52-.19,6.37,6.37,0,0,0,1.08-.43,5.86,5.86,0,0,0,.7-.44.84.84,0,0,1,.37-.19.26.26,0,0,1,.23.12l.31.37a3.72,3.72,0,0,1-.74.66,5.84,5.84,0,0,1-1,.52,7.24,7.24,0,0,1-1.22.34,6.3,6.3,0,0,1-1.3.13,5.45,5.45,0,0,1-2.17-.42,4.53,4.53,0,0,1-1.69-1.21,5.45,5.45,0,0,1-1.09-1.94,8.54,8.54,0,0,1-.38-2.64,7.07,7.07,0,0,1,.36-2.3,5.12,5.12,0,0,1,1-1.83,4.62,4.62,0,0,1,1.64-1.2A5.56,5.56,0,0,1,359.68,396Zm0,.83a4.57,4.57,0,0,0-1.61.28,3.66,3.66,0,0,0-1.23.81,4.34,4.34,0,0,0-.84,1.26,5.87,5.87,0,0,0-.42,1.65h7.65a5.2,5.2,0,0,0-.25-1.68,3.75,3.75,0,0,0-.73-1.25,3,3,0,0,0-1.12-.79A3.57,3.57,0,0,0,359.69,396.85Z"/><path d="M367.33,407.84V396.21h.61a.32.32,0,0,1,.35.29l.11,1.75a6.29,6.29,0,0,1,1.85-1.61,4.58,4.58,0,0,1,2.35-.62,4.25,4.25,0,0,1,1.69.31,3.06,3.06,0,0,1,1.21.87,4,4,0,0,1,.73,1.38,6.44,6.44,0,0,1,.24,1.83v7.43h-1.11v-7.43a4,4,0,0,0-.75-2.57,2.76,2.76,0,0,0-2.29-.93,4.06,4.06,0,0,0-2.12.59,6.1,6.1,0,0,0-1.76,1.62v8.72Z"/><path d="M386.53,396.22v7.43a4,4,0,0,0,.75,2.57,2.76,2.76,0,0,0,2.29.93,4.2,4.2,0,0,0,2.12-.58,6.51,6.51,0,0,0,1.77-1.61v-8.74h1.11v11.63H394a.3.3,0,0,1-.34-.31l-.1-1.73a6.83,6.83,0,0,1-1.87,1.62,4.71,4.71,0,0,1-2.36.6,4.45,4.45,0,0,1-1.7-.3,3.12,3.12,0,0,1-1.2-.88,4,4,0,0,1-.73-1.38,6.32,6.32,0,0,1-.24-1.82v-7.43Z"/><path d="M397.6,412V396.22h.61a.43.43,0,0,1,.24.06.28.28,0,0,1,.11.23l.1,1.8a6.21,6.21,0,0,1,1.81-1.67,4.45,4.45,0,0,1,2.32-.62,4,4,0,0,1,3.34,1.48,7.07,7.07,0,0,1,1.19,4.46,8.18,8.18,0,0,1-.33,2.37,5.62,5.62,0,0,1-1,1.92,4.58,4.58,0,0,1-1.58,1.28,4.84,4.84,0,0,1-2.17.47,4.63,4.63,0,0,1-2.05-.43,4.18,4.18,0,0,1-1.5-1.29V412Zm4.87-15a3.78,3.78,0,0,0-2.09.6,5.69,5.69,0,0,0-1.67,1.68v6.1a3.93,3.93,0,0,0,1.48,1.41,4.09,4.09,0,0,0,1.85.41,4,4,0,0,0,1.8-.37,3.59,3.59,0,0,0,1.29-1.06,4.62,4.62,0,0,0,.78-1.64,7.61,7.61,0,0,0,.27-2.09,6.16,6.16,0,0,0-1-3.82A3.28,3.28,0,0,0,402.47,396.92Z"/><path d="M417.53,411.58a.68.68,0,0,1-.18.26.44.44,0,0,1-.32.11h-.79l2-4.55-4.92-11.19h.92a.41.41,0,0,1,.28.09.55.55,0,0,1,.15.19l3.91,9a2.53,2.53,0,0,1,.12.36c0,.12.07.24.1.37,0-.13.08-.25.13-.37s.08-.24.13-.36l3.87-9a.56.56,0,0,1,.16-.21.39.39,0,0,1,.23-.07h.86Z"/><path d="M430.21,396a5.48,5.48,0,0,1,2.23.43,4.52,4.52,0,0,1,1.67,1.21,5.38,5.38,0,0,1,1,1.89,8.62,8.62,0,0,1,0,4.93,5.42,5.42,0,0,1-1,1.88,4.41,4.41,0,0,1-1.67,1.21,6.16,6.16,0,0,1-4.47,0,4.41,4.41,0,0,1-1.67-1.21,5.13,5.13,0,0,1-1-1.88,8.62,8.62,0,0,1,0-4.93,5.1,5.1,0,0,1,1-1.89,4.52,4.52,0,0,1,1.67-1.21A5.49,5.49,0,0,1,430.21,396Zm0,11.09a4.27,4.27,0,0,0,1.81-.36,3.33,3.33,0,0,0,1.3-1,4.6,4.6,0,0,0,.78-1.6,9,9,0,0,0,0-4.22,4.7,4.7,0,0,0-.78-1.62,3.54,3.54,0,0,0-1.3-1,4.76,4.76,0,0,0-3.63,0,3.54,3.54,0,0,0-1.3,1,4.52,4.52,0,0,0-.78,1.62,8.69,8.69,0,0,0,0,4.22,4.43,4.43,0,0,0,.78,1.6,3.33,3.33,0,0,0,1.3,1A4.28,4.28,0,0,0,430.21,407.11Z"/><path d="M439.22,396.21v7.43a4,4,0,0,0,.75,2.57,2.78,2.78,0,0,0,2.29.93,4.17,4.17,0,0,0,2.12-.58,6.23,6.23,0,0,0,1.77-1.61v-8.74h1.11v11.63h-.61c-.22,0-.33-.11-.33-.31l-.11-1.73a6.69,6.69,0,0,1-1.87,1.62,4.67,4.67,0,0,1-2.35.6,4.41,4.41,0,0,1-1.7-.3,3.08,3.08,0,0,1-1.21-.88,3.78,3.78,0,0,1-.72-1.38,6,6,0,0,1-.25-1.82v-7.43Z"/><path d="M450.29,407.84V396.21h.59a.32.32,0,0,1,.38.36l.09,2.45a5.61,5.61,0,0,1,1.5-2.21,3.43,3.43,0,0,1,2.3-.8,4.17,4.17,0,0,1,1,.11,3.84,3.84,0,0,1,.84.32l-.15.77a.21.21,0,0,1-.23.19.45.45,0,0,1-.2,0l-.32-.1a3.47,3.47,0,0,0-.48-.11,4.06,4.06,0,0,0-.64,0,3,3,0,0,0-2.17.82,5.84,5.84,0,0,0-1.37,2.36v7.56Z"/><path d="M463.89,407.84v-17H465v7.41a6.19,6.19,0,0,1,1.78-1.62,4.46,4.46,0,0,1,2.3-.6,4.07,4.07,0,0,1,3.33,1.48,7,7,0,0,1,1.2,4.45,8.18,8.18,0,0,1-.33,2.37,5.64,5.64,0,0,1-1,1.92,4.62,4.62,0,0,1-1.59,1.28,4.84,4.84,0,0,1-2.17.47,4.39,4.39,0,0,1-2.09-.47,4.27,4.27,0,0,1-1.51-1.4l-.07,1.43a.29.29,0,0,1-.31.29Zm4.88-10.93a3.78,3.78,0,0,0-2.09.6,5.73,5.73,0,0,0-1.67,1.66v6.13a3.91,3.91,0,0,0,1.47,1.41,4.1,4.1,0,0,0,1.86.4,4,4,0,0,0,1.8-.37,3.52,3.52,0,0,0,1.3-1.06,5,5,0,0,0,.78-1.64,7.62,7.62,0,0,0,.26-2.09,6.18,6.18,0,0,0-1-3.82A3.29,3.29,0,0,0,468.77,396.91Z"/><path d="M477.19,396.21v7.43a4,4,0,0,0,.75,2.57,2.75,2.75,0,0,0,2.28.93,4.21,4.21,0,0,0,2.13-.58,6.35,6.35,0,0,0,1.77-1.61v-8.74h1.11v11.63h-.61c-.22,0-.33-.1-.34-.31l-.1-1.73a6.69,6.69,0,0,1-1.87,1.62,4.71,4.71,0,0,1-2.36.6,4.45,4.45,0,0,1-1.7-.3,3,3,0,0,1-1.2-.88,4,4,0,0,1-.73-1.37,6.44,6.44,0,0,1-.24-1.83v-7.43Z"/><path d="M494.73,397.66a.27.27,0,0,1-.26.16.67.67,0,0,1-.33-.14,5.37,5.37,0,0,0-.54-.33,4.35,4.35,0,0,0-.82-.33,4.06,4.06,0,0,0-1.18-.14,3.57,3.57,0,0,0-1.16.18,2.85,2.85,0,0,0-.88.48,2.19,2.19,0,0,0-.58.71,1.86,1.86,0,0,0-.2.84,1.41,1.41,0,0,0,.28.91,2.4,2.4,0,0,0,.74.62,5.8,5.8,0,0,0,1,.44l1.19.37c.4.13.8.27,1.18.42a4.69,4.69,0,0,1,1,.56,2.75,2.75,0,0,1,.73.83,2.37,2.37,0,0,1,.28,1.2,3.69,3.69,0,0,1-.27,1.41,3.11,3.11,0,0,1-.8,1.13,3.64,3.64,0,0,1-1.27.76,4.94,4.94,0,0,1-1.73.28,5.25,5.25,0,0,1-2.12-.39,6,6,0,0,1-1.59-1l.27-.4a.44.44,0,0,1,.13-.14.35.35,0,0,1,.2,0,.65.65,0,0,1,.37.18,4.69,4.69,0,0,0,.58.41,5.42,5.42,0,0,0,.89.4,4.08,4.08,0,0,0,1.31.19,3.69,3.69,0,0,0,1.3-.21,2.67,2.67,0,0,0,.93-.55,2.37,2.37,0,0,0,.57-.83,2.58,2.58,0,0,0,.19-1,1.59,1.59,0,0,0-.28-1,2.43,2.43,0,0,0-.73-.65,5.53,5.53,0,0,0-1-.46l-1.19-.37c-.41-.13-.81-.26-1.19-.41a4.06,4.06,0,0,1-1-.56,2.75,2.75,0,0,1-.74-.82,2.38,2.38,0,0,1-.28-1.21A2.8,2.8,0,0,1,488,398a3.06,3.06,0,0,1,.76-1,3.75,3.75,0,0,1,1.21-.69,4.75,4.75,0,0,1,1.6-.26,5.51,5.51,0,0,1,1.89.31,4.71,4.71,0,0,1,1.51.94Z"/><path d="M499.42,392.2a.86.86,0,0,1-.09.39,1,1,0,0,1-.22.32,1.23,1.23,0,0,1-.33.23,1,1,0,0,1-.8,0,1,1,0,0,1-.32-.23.87.87,0,0,1-.22-.32.86.86,0,0,1-.09-.39.93.93,0,0,1,.09-.4.83.83,0,0,1,.22-.33,1,1,0,0,1,.32-.23,1,1,0,0,1,.8,0,1.23,1.23,0,0,1,.33.23,1,1,0,0,1,.22.33A.93.93,0,0,1,499.42,392.2Zm-.49,4v11.63h-1.11V396.21Z"/><path d="M502,407.84V396.21h.61a.32.32,0,0,1,.35.29l.11,1.75a6.29,6.29,0,0,1,1.85-1.61,4.58,4.58,0,0,1,2.35-.62,4.21,4.21,0,0,1,1.69.31,3.06,3.06,0,0,1,1.21.87,4,4,0,0,1,.73,1.38,6.44,6.44,0,0,1,.24,1.83v7.43H510v-7.43a4,4,0,0,0-.75-2.57,2.75,2.75,0,0,0-2.29-.93,4.06,4.06,0,0,0-2.12.59,6.1,6.1,0,0,0-1.76,1.62v8.72Z"/><path d="M518.78,396a5,5,0,0,1,1.82.34,4.25,4.25,0,0,1,1.45,1,4.64,4.64,0,0,1,1,1.59,6.35,6.35,0,0,1,.35,2.18.58.58,0,0,1-.08.35.3.3,0,0,1-.24.09h-8.39v.22a7.69,7.69,0,0,0,.31,2.31,4.74,4.74,0,0,0,.86,1.66,3.47,3.47,0,0,0,1.36,1,4.4,4.4,0,0,0,1.77.34,5.26,5.26,0,0,0,1.52-.19,6.37,6.37,0,0,0,1.08-.43,5.86,5.86,0,0,0,.7-.44.84.84,0,0,1,.37-.19.29.29,0,0,1,.24.12l.3.37a3.72,3.72,0,0,1-.74.66,5.84,5.84,0,0,1-1,.52,7.24,7.24,0,0,1-1.22.34,6.3,6.3,0,0,1-1.3.13,5.45,5.45,0,0,1-2.17-.42,4.53,4.53,0,0,1-1.69-1.21,5.29,5.29,0,0,1-1.08-1.94,8.24,8.24,0,0,1-.39-2.64,7.07,7.07,0,0,1,.36-2.3,5.28,5.28,0,0,1,1-1.83,4.62,4.62,0,0,1,1.64-1.2A5.6,5.6,0,0,1,518.78,396Zm0,.83a4.49,4.49,0,0,0-1.61.28,3.47,3.47,0,0,0-1.23.81,4.17,4.17,0,0,0-.85,1.26,5.87,5.87,0,0,0-.42,1.65h7.65a5.2,5.2,0,0,0-.25-1.68,3.59,3.59,0,0,0-.73-1.25,3,3,0,0,0-1.12-.79A3.56,3.56,0,0,0,518.8,396.85Z"/><path d="M532.3,397.66a.27.27,0,0,1-.26.16.67.67,0,0,1-.33-.14,5.37,5.37,0,0,0-.54-.33,4.35,4.35,0,0,0-.82-.33,4.06,4.06,0,0,0-1.18-.14,3.47,3.47,0,0,0-1.15.18,2.8,2.8,0,0,0-.89.48,2.19,2.19,0,0,0-.58.71,1.86,1.86,0,0,0-.2.84,1.41,1.41,0,0,0,.28.91,2.4,2.4,0,0,0,.74.62,6.13,6.13,0,0,0,1,.44l1.19.37c.4.13.8.27,1.18.42a4.69,4.69,0,0,1,1,.56,2.75,2.75,0,0,1,.73.83,2.37,2.37,0,0,1,.28,1.2,3.69,3.69,0,0,1-.27,1.41,3.11,3.11,0,0,1-.8,1.13,3.64,3.64,0,0,1-1.27.76,4.94,4.94,0,0,1-1.73.28,5.25,5.25,0,0,1-2.12-.39,6,6,0,0,1-1.59-1l.27-.4a.44.44,0,0,1,.13-.14.37.37,0,0,1,.2,0,.65.65,0,0,1,.37.18,4.69,4.69,0,0,0,.58.41,5.42,5.42,0,0,0,.89.4,4.08,4.08,0,0,0,1.31.19,3.69,3.69,0,0,0,1.3-.21,2.58,2.58,0,0,0,.93-.55,2.37,2.37,0,0,0,.57-.83,2.58,2.58,0,0,0,.19-1,1.59,1.59,0,0,0-.28-1,2.43,2.43,0,0,0-.73-.65,5.53,5.53,0,0,0-1-.46l-1.19-.37c-.41-.13-.81-.26-1.19-.41a4.06,4.06,0,0,1-1-.56,2.75,2.75,0,0,1-.74-.82,2.38,2.38,0,0,1-.28-1.21,2.8,2.8,0,0,1,.27-1.2,3.06,3.06,0,0,1,.76-1,3.75,3.75,0,0,1,1.21-.69,4.75,4.75,0,0,1,1.6-.26,5.51,5.51,0,0,1,1.89.31,4.71,4.71,0,0,1,1.51.94Z"/><path d="M541.22,397.66a.26.26,0,0,1-.24.16.54.54,0,0,1-.31-.15c-.13-.09-.3-.2-.51-.32a3.24,3.24,0,0,0-.77-.33,3.66,3.66,0,0,0-1.12-.15,3.16,3.16,0,0,0-1.09.18,2.53,2.53,0,0,0-.83.49,2.08,2.08,0,0,0-.74,1.55,1.49,1.49,0,0,0,.27.91,2.45,2.45,0,0,0,.69.62,5.56,5.56,0,0,0,1,.44l1.12.37q.57.19,1.11.42a4.24,4.24,0,0,1,1,.56,2.55,2.55,0,0,1,.69.84,2.41,2.41,0,0,1,.27,1.19,3.8,3.8,0,0,1-.26,1.41,3.15,3.15,0,0,1-.75,1.14,3.62,3.62,0,0,1-1.21.76,4.35,4.35,0,0,1-1.63.28,4.68,4.68,0,0,1-2-.39,5.34,5.34,0,0,1-1.5-1l.25-.39a.43.43,0,0,1,.12-.14.29.29,0,0,1,.19-.05.56.56,0,0,1,.35.19,5,5,0,0,0,.55.4,4.13,4.13,0,0,0,.84.4,3.4,3.4,0,0,0,1.24.19,3.51,3.51,0,0,0,1.22-.2,2.61,2.61,0,0,0,.88-.56,2.39,2.39,0,0,0,.54-.82,2.81,2.81,0,0,0,.18-1,1.64,1.64,0,0,0-.27-1,2.29,2.29,0,0,0-.69-.66,4.94,4.94,0,0,0-1-.46l-1.12-.37c-.39-.13-.76-.26-1.12-.41a3.91,3.91,0,0,1-1-.56,2.52,2.52,0,0,1-.69-.83,2.43,2.43,0,0,1-.27-1.21,3.06,3.06,0,0,1,.25-1.19,3,3,0,0,1,.73-1,3.77,3.77,0,0,1,1.14-.69,4.23,4.23,0,0,1,1.51-.25,4.71,4.71,0,0,1,1.78.31,4.29,4.29,0,0,1,1.42.94Z"/><path d="M386.53,396.21v7.43a4,4,0,0,0,.75,2.57,2.76,2.76,0,0,0,2.29.93,4.2,4.2,0,0,0,2.12-.58,6.35,6.35,0,0,0,1.77-1.61v-8.74h1.11v11.63H394c-.22,0-.33-.1-.34-.31l-.1-1.73a6.83,6.83,0,0,1-1.87,1.62,4.71,4.71,0,0,1-2.36.6,4.45,4.45,0,0,1-1.7-.3,3,3,0,0,1-1.2-.88,4,4,0,0,1-.73-1.37,6.44,6.44,0,0,1-.24-1.83v-7.43Z"/><path d="M397.6,412V396.21h.61a.43.43,0,0,1,.24.06.28.28,0,0,1,.11.23l.1,1.8a6.21,6.21,0,0,1,1.81-1.67,4.45,4.45,0,0,1,2.32-.62,4.05,4.05,0,0,1,3.34,1.49,7,7,0,0,1,1.19,4.45,8.3,8.3,0,0,1-.33,2.38,5.66,5.66,0,0,1-1,1.91,4.58,4.58,0,0,1-1.58,1.28,4.84,4.84,0,0,1-2.17.47,4.49,4.49,0,0,1-2.05-.43,4.18,4.18,0,0,1-1.5-1.29V412Zm4.87-15a3.78,3.78,0,0,0-2.09.6,5.69,5.69,0,0,0-1.67,1.68v6.1a3.67,3.67,0,0,0,3.33,1.82,4,4,0,0,0,1.8-.37,3.49,3.49,0,0,0,1.29-1.06,4.57,4.57,0,0,0,.78-1.63,7.74,7.74,0,0,0,.27-2.1,6.18,6.18,0,0,0-1-3.82A3.28,3.28,0,0,0,402.47,396.91Z"/></svg>