<?xml version="1.0" encoding="utf-8"?>
<!-- Generator: Adobe Illustrator 24.1.2, SVG Export Plug-In . SVG Version: 6.00 Build 0)  -->
<svg version="1.1" id="Layer_1" xmlns="http://www.w3.org/2000/svg" xmlns:xlink="http://www.w3.org/1999/xlink" x="0px" y="0px"
	 viewBox="0 0 841.89 595.28" style="enable-background:new 0 0 841.89 595.28;" xml:space="preserve">
<g>
	<g>
		<path style="fill:#FFFFFF;" d="M323.46,369.88c0,3.82-1.08,6.7-3.3,8.81c-2.21,2.1-5.61,3.17-10.11,3.17h-19.13v-23.87h19.13
			c4.5,0,7.9,1.07,10.11,3.17C322.38,363.27,323.46,366.12,323.46,369.88 M310.52,347.91h-30.07v66.44h10.46v-22.51h19.61
			c7.14,0,12.89-2,17.06-5.93c4.2-3.97,6.34-9.36,6.34-16.03c0-6.67-2.13-12.07-6.34-16.04
			C323.4,349.91,317.66,347.91,310.52,347.91"/>
		<path style="fill:#FFFFFF;" d="M367.87,381.01c1.15,2.46,1.73,5.23,1.73,8.23c0,2.94-0.58,5.7-1.73,8.19
			c-1.12,2.44-2.78,4.41-4.93,5.86c-2.12,1.44-4.8,2.16-7.96,2.16c-3.11,0-5.81-0.73-8.03-2.18c-2.24-1.45-3.97-3.43-5.15-5.87
			c-1.2-2.49-1.81-5.24-1.81-8.16c0-2.99,0.61-5.75,1.81-8.21c1.18-2.41,2.91-4.37,5.15-5.83c2.22-1.44,4.92-2.18,8.03-2.18
			c3.16,0,5.84,0.72,7.96,2.16C365.09,376.64,366.74,378.6,367.87,381.01 M369.22,368.98c-1.31-1.22-2.78-2.27-4.41-3.15
			c-3.01-1.63-6.64-2.45-10.78-2.45c-4.86,0-9.18,1.18-12.84,3.49c-3.65,2.31-6.51,5.46-8.52,9.37c-1.99,3.88-3,8.25-3,13
			c0,4.68,1.01,9.04,3,12.95c2.01,3.94,4.87,7.11,8.52,9.42c3.66,2.32,7.98,3.49,12.84,3.49c4.14,0,7.76-0.82,10.78-2.45
			c1.63-0.88,3.1-1.92,4.41-3.12v4.82h10.31v-50.22h-10.31V368.98z"/>
	</g>
	<polygon style="fill:#FFFFFF;" points="428.18,414.36 428.18,355.06 403.9,355.06 403.9,347.94 459.98,347.94 459.98,355.06 
		435.7,355.06 435.7,414.36 	"/>
	<g>
		<path style="fill:#FFFFFF;" d="M442.92,385.26h34.11c-0.67-4.28-2.48-7.86-5.42-10.73c-2.95-2.88-6.82-4.31-11.64-4.31
			c-4.82,0-8.68,1.44-11.59,4.31C445.47,377.4,443.65,380.98,442.92,385.26 M460.47,415.16c-5.08,0-9.53-1.15-13.34-3.46
			c-3.81-2.31-6.77-5.43-8.88-9.38c-2.11-3.95-3.16-8.29-3.16-13.04c0-4.82,1-9.18,3.01-13.09c2.01-3.91,4.88-7.02,8.63-9.33
			c3.75-2.31,8.16-3.46,13.25-3.46c5.15,0,9.58,1.15,13.29,3.46c3.71,2.31,6.57,5.41,8.58,9.33c2.01,3.91,3.01,8.28,3.01,13.09v3.01
			h-42.04c0.4,2.94,1.36,5.63,2.86,8.08c1.5,2.44,3.53,4.38,6.07,5.82c2.54,1.44,5.48,2.16,8.83,2.16c3.54,0,6.52-0.79,8.93-2.36
			c2.41-1.57,4.28-3.6,5.62-6.07h8.23c-1.74,4.48-4.5,8.15-8.28,10.99C471.29,413.74,466.43,415.16,460.47,415.16"/>
		<path style="fill:#FFFFFF;" d="M508.94,415.16c-5.02,0-9.37-1.15-13.04-3.46c-3.68-2.31-6.54-5.43-8.58-9.38
			c-2.04-3.95-3.06-8.29-3.06-13.04c0-4.82,1.02-9.18,3.06-13.09c2.04-3.91,4.9-7.02,8.58-9.33c3.68-2.31,8.03-3.46,13.04-3.46
			c5.95,0,11.02,1.54,15.2,4.62c4.18,3.07,7,7.06,8.48,11.94h-8.13c-1.14-2.87-2.96-5.22-5.47-7.02c-2.51-1.81-5.54-2.71-9.08-2.71
			c-3.68,0-6.89,0.87-9.63,2.61c-2.74,1.74-4.85,4.05-6.32,6.92c-1.47,2.88-2.21,6.05-2.21,9.53c0,3.41,0.74,6.57,2.21,9.48
			c1.47,2.91,3.58,5.24,6.32,6.97c2.74,1.74,5.95,2.61,9.63,2.61c3.54,0,6.57-0.9,9.08-2.71c2.51-1.81,4.33-4.15,5.47-7.02h8.13
			c-1.47,4.88-4.3,8.86-8.48,11.94C519.96,413.62,514.9,415.16,508.94,415.16"/>
		<path style="fill:#FFFFFF;" d="M531.89,414.36v-70.23h7.53v27.89c1.81-2.41,4.01-4.45,6.62-6.12c2.61-1.67,5.95-2.51,10.03-2.51
			c3.48,0,6.74,0.82,9.78,2.46c3.04,1.64,5.52,4.08,7.43,7.33c1.91,3.24,2.86,7.24,2.86,11.99v29.2h-7.53v-29
			c0-4.55-1.3-8.21-3.91-10.99c-2.61-2.77-5.99-4.16-10.14-4.16c-2.81,0-5.35,0.63-7.62,1.91c-2.27,1.27-4.1,3.06-5.47,5.37
			c-1.37,2.31-2.06,4.97-2.06,7.98v28.9H531.89z"/>
	</g>
	<polygon style="fill:#FFFFFF;" points="428.19,364.14 415.06,364.14 403.9,380.62 392.65,364.14 379.52,364.14 397.73,388.49 
		378.39,414.35 391.42,414.35 403.9,396.42 416.29,414.35 429.42,414.35 409.98,388.49 	"/>
	<g>
		<path style="fill:#FFFFFF;" d="M302.93,209.39c4.7-17.5,15.22-33.55,31.05-44.98l-6.14-8.51c-24.22,17.49-37.42,44.55-38.18,72.27
			C293.35,221.38,297.8,215.08,302.93,209.39"/>
		<path style="fill:#FFFFFF;" d="M458.13,233.89c-22.67-45.59-78-64.17-123.59-41.51c-45.59,22.67-64.17,78-41.51,123.59l-0.63,0.31
			c-1.11,0.55-2.46,0.08-2.98-1.04c-21.85-46.64-2.55-102.44,43.81-125.49c46.37-23.05,102.5-4.76,126.5,40.82
			c0.58,1.09,0.14,2.45-0.97,3.01L458.13,233.89z"/>
		<path style="fill:#FFFFFF;" d="M404.81,326.31c-2.35-1.35-4.74-1.61-5.33-0.57c-0.6,1.04,0.82,2.97,3.17,4.33
			c2.35,1.35,4.74,1.61,5.33,0.57C408.57,329.6,407.15,327.66,404.81,326.31"/>
		<path style="fill:#FFFFFF;" d="M410.76,310.41c-2.62-0.7-4.99-0.33-5.3,0.83c-0.31,1.16,1.56,2.66,4.18,3.36
			c2.62,0.7,4.99,0.33,5.3-0.83C415.25,312.62,413.37,311.11,410.76,310.41"/>
		<path style="fill:#FFFFFF;" d="M412.39,293.52c-2.71,0-4.9,0.98-4.9,2.17c0,1.2,2.2,2.17,4.91,2.16c2.71,0,4.9-0.98,4.9-2.17
			C417.3,294.48,415.1,293.51,412.39,293.52"/>
		<path style="fill:#FFFFFF;" d="M409.6,276.78c-2.62,0.7-4.48,2.21-4.17,3.37c0.31,1.16,2.68,1.52,5.3,0.82
			c2.62-0.7,4.48-2.21,4.17-3.37C414.59,276.44,412.21,276.07,409.6,276.78"/>
		<path style="fill:#FFFFFF;" d="M402.56,261.33c-2.35,1.36-3.76,3.3-3.16,4.33c0.6,1.04,2.99,0.78,5.33-0.58
			c2.35-1.36,3.76-3.3,3.16-4.33C407.3,259.71,404.91,259.97,402.56,261.33"/>
		<path style="fill:#FFFFFF;" d="M391.77,248.23c-1.91,1.92-2.78,4.16-1.93,5c0.85,0.84,3.08-0.02,5-1.94
			c1.91-1.92,2.78-4.16,1.93-5C395.92,245.44,393.69,246.31,391.77,248.23"/>
		<path style="fill:#FFFFFF;" d="M377.96,238.37c-1.35,2.35-1.61,4.73-0.57,5.33c1.04,0.6,2.97-0.82,4.33-3.17
			c1.35-2.35,1.61-4.74,0.57-5.33C381.25,234.6,379.31,236.02,377.96,238.37"/>
		<path style="fill:#FFFFFF;" d="M362.06,232.41c-0.7,2.62-0.33,4.99,0.83,5.3s2.66-1.56,3.36-4.18c0.7-2.62,0.33-4.99-0.83-5.3
			C364.27,227.93,362.76,229.8,362.06,232.41"/>
		<path style="fill:#FFFFFF;" d="M345.17,230.78c0,2.71,0.98,4.9,2.17,4.9c1.2,0,2.17-2.2,2.16-4.91c0-2.71-0.98-4.9-2.17-4.9
			C346.13,225.88,345.17,228.07,345.17,230.78"/>
		<path style="fill:#FFFFFF;" d="M328.43,233.58c0.7,2.62,2.21,4.48,3.37,4.17c1.16-0.31,1.52-2.68,0.82-5.3
			c-0.7-2.62-2.21-4.48-3.37-4.17C328.09,228.59,327.72,230.96,328.43,233.58"/>
		<path style="fill:#FFFFFF;" d="M312.98,240.61c1.36,2.35,3.3,3.76,4.33,3.16c1.03-0.6,0.78-2.99-0.58-5.33
			c-1.36-2.35-3.3-3.76-4.33-3.16C311.36,235.88,311.62,238.26,312.98,240.61"/>
		<path style="fill:#FFFFFF;" d="M382.29,235.2c-0.16-0.09-0.34-0.14-0.54-0.14c-1.08,0-2.64,1.32-3.79,3.3
			c-1.35,2.35-1.61,4.74-0.57,5.33c0.16,0.09,0.34,0.14,0.54,0.14c1.08,0,2.64-1.32,3.78-3.3
			C383.07,238.18,383.32,235.79,382.29,235.2"/>
		<path style="fill:#FFFFFF;" d="M347.34,235.68L347.34,235.68c1.2,0,2.17-2.2,2.16-4.91c0-0.73-0.08-1.42-0.21-2.05l-3.92,4.11
			C345.72,234.51,346.47,235.68,347.34,235.68"/>
		<path style="fill:#FFFFFF;" d="M365.42,228.23c-0.08-0.02-0.17-0.03-0.26-0.03c-1.11,0-2.45,1.79-3.1,4.21
			c-0.7,2.62-0.33,4.99,0.83,5.3c0.08,0.02,0.17,0.03,0.26,0.03c1.11,0,2.45-1.78,3.1-4.21
			C366.95,230.91,366.58,228.54,365.42,228.23"/>
		<path style="fill:#FFFFFF;" d="M399.41,265.66c0.25,0.43,0.8,0.64,1.53,0.64c0.7,0,1.56-0.21,2.47-0.57
			c0.17-1.66,0.3-3.32,0.37-4.99c-0.4,0.17-0.8,0.36-1.21,0.59C400.22,262.69,398.8,264.63,399.41,265.66"/>
		<path style="fill:#FFFFFF;" d="M387.94,255.14c-0.56-0.56-1.76-2.17-0.68-4.97c0.5-1.29,1.42-2.65,2.61-3.83
			c1.91-1.91,4.15-3.05,5.99-3.05c1.09,0,2.09,0.39,2.81,1.11c0.56,0.56,1.76,2.17,0.68,4.97c-0.5,1.29-1.42,2.65-2.61,3.84
			c-1.91,1.91-4.15,3.05-5.99,3.05C389.66,256.24,388.66,255.85,387.94,255.14 M384.05,241.87c-1.68,2.91-3.96,4.65-6.12,4.65
			c-0.67,0-1.32-0.17-1.88-0.49c-2.48-1.43-2.65-5.13-0.42-9.01c1.68-2.91,3.96-4.65,6.12-4.65c0.67,0,1.32,0.17,1.88,0.5
			C386.11,234.29,386.28,238,384.05,241.87 M368.85,234.23c-0.76,2.86-2.72,6.21-5.7,6.21c-0.32,0-0.64-0.04-0.95-0.12
			c-0.77-0.21-2.61-1-3.07-3.97c-0.21-1.36-0.09-3.01,0.34-4.62c0.76-2.87,2.72-6.21,5.7-6.21c0.32,0,0.64,0.04,0.95,0.12
			C368.88,226.37,370,229.9,368.85,234.23 M400.93,268.99c-1.72,0-3.13-0.72-3.85-1.98c-1.43-2.47,0.27-5.77,4.14-8.01
			c0.87-0.51,1.76-0.9,2.63-1.16c0.18-21.77-8.26-43.57-25.26-59.79l-27.16,28.44c0.48,1.19,0.76,2.65,0.76,4.29
			c0,1.68-0.3,3.29-0.86,4.56c-1.21,2.74-3.19,3.04-3.99,3.04c-1.81,0-3.27-1.25-4.1-3.3l-55.33,57.95
			c1.55,7.45,4.05,14.75,7.53,21.75l1.2,2.41l-2.41,1.2l-0.63,0.31c-0.67,0.34-1.43,0.51-2.18,0.51c-1.89,0-3.64-1.11-4.44-2.82
			c-2.47-5.27-4.42-10.69-5.9-16.21l-15.32,16.04c32.63,31.16,84.35,29.96,115.51-2.67c12.24-12.82,19.46-28.58,21.77-44.88
			C402.31,268.87,401.59,268.99,400.93,268.99"/>
		<path style="fill:#FFFFFF;" d="M396.77,246.29c-0.22-0.22-0.53-0.32-0.91-0.32c-1.07,0-2.67,0.84-4.09,2.26
			c-1.91,1.92-2.78,4.16-1.93,5c0.22,0.22,0.53,0.32,0.91,0.32c1.08,0,2.67-0.84,4.09-2.26
			C396.76,249.37,397.62,247.13,396.77,246.29"/>
		<path style="fill:#FFFFFF;" d="M411.45,307.81c4.32,1.15,6.82,3.89,6.09,6.65c-0.16,0.58-0.45,1.08-0.84,1.51
			c6.61-2.71,13.02-6.21,19.07-10.58l-6.14-8.5c-6.3,4.55-13.05,8.05-20.01,10.57C410.22,307.54,410.84,307.65,411.45,307.81"/>
		<path style="fill:#FFFFFF;" d="M409.64,314.6c0.89,0.24,1.76,0.35,2.53,0.35c1.47,0,2.57-0.42,2.77-1.18
			c0.31-1.16-1.56-2.66-4.18-3.36c-0.89-0.24-1.76-0.35-2.52-0.35c-1.47,0-2.57,0.42-2.77,1.18
			C405.15,312.4,407.02,313.9,409.64,314.6"/>
		<path style="fill:#FFFFFF;" d="M412.16,317.64c-1.02,0-2.13-0.15-3.22-0.44c-4.32-1.15-6.82-3.89-6.09-6.65
			c0.11-0.4,0.29-0.75,0.51-1.08c-5.68,1.55-11.47,2.47-17.27,2.77c-0.93,1.08-1.89,2.14-2.88,3.17c-2.47,2.59-5.08,4.97-7.81,7.2
			c12.37,0.86,24.95-0.75,36.95-4.97C412.29,317.63,412.23,317.64,412.16,317.64"/>
		<path style="fill:#FFFFFF;" d="M308.78,267.27c-6.47-12.88-9.25-26.91-8.55-40.7c-3.84,6-6.97,12.51-9.33,19.42
			c1.69,10.08,5.08,19.98,10.24,29.29L308.78,267.27z"/>
		<path style="fill:#FFFFFF;" d="M420.94,423.63v7.43c0,1.09,0.25,1.95,0.75,2.57c0.5,0.62,1.26,0.93,2.29,0.93
			c0.76,0,1.47-0.19,2.12-0.58c0.66-0.39,1.25-0.92,1.77-1.61v-8.74h1.11v11.63h-0.61c-0.22,0-0.33-0.1-0.34-0.3l-0.1-1.73
			c-0.54,0.67-1.16,1.21-1.87,1.61c-0.71,0.41-1.49,0.61-2.36,0.61c-0.65,0-1.21-0.1-1.7-0.3c-0.48-0.2-0.89-0.5-1.2-0.88
			c-0.32-0.38-0.56-0.84-0.73-1.38c-0.16-0.54-0.25-1.15-0.25-1.82v-7.43H420.94z"/>
		<path style="fill:#FFFFFF;" d="M436.89,424.33c-0.77,0-1.47,0.2-2.1,0.6c-0.63,0.4-1.18,0.96-1.67,1.68v6.1
			c0.45,0.67,0.94,1.14,1.48,1.41c0.54,0.27,1.16,0.41,1.85,0.41c0.68,0,1.28-0.12,1.8-0.37c0.51-0.25,0.94-0.6,1.29-1.06
			c0.35-0.46,0.61-1,0.78-1.64c0.18-0.63,0.26-1.33,0.26-2.09c0-1.73-0.32-3-0.95-3.82C439,424.74,438.09,424.33,436.89,424.33
			 M432.01,439.37v-15.74h0.61c0.1,0,0.18,0.02,0.24,0.06c0.06,0.04,0.1,0.12,0.11,0.23l0.11,1.8c0.51-0.7,1.11-1.26,1.8-1.67
			c0.69-0.41,1.46-0.62,2.32-0.62c1.43,0,2.55,0.5,3.34,1.48c0.79,0.99,1.19,2.47,1.19,4.45c0,0.85-0.11,1.64-0.33,2.38
			c-0.22,0.74-0.55,1.38-0.97,1.92c-0.43,0.54-0.96,0.97-1.58,1.28c-0.63,0.31-1.35,0.47-2.17,0.47c-0.79,0-1.48-0.14-2.06-0.43
			s-1.07-0.72-1.5-1.28v5.68H432.01z"/>
	</g>
	<polygon style="fill:#FFFFFF;" points="343.83,418.71 343.83,419.71 335.12,419.71 335.12,426.66 342.66,426.66 342.66,427.65 
		335.12,427.65 335.12,435.25 333.92,435.25 333.92,418.71 	"/>
	<g>
		<path style="fill:#FFFFFF;" d="M345.83,435.25v-11.63h0.58c0.13,0,0.23,0.03,0.29,0.08c0.06,0.05,0.09,0.15,0.1,0.28l0.09,2.45
			c0.37-0.94,0.87-1.68,1.5-2.22c0.62-0.53,1.39-0.8,2.3-0.8c0.35,0,0.67,0.04,0.97,0.11c0.3,0.07,0.58,0.18,0.84,0.32l-0.15,0.77
			c-0.02,0.12-0.1,0.19-0.23,0.19c-0.05,0-0.11-0.02-0.2-0.05c-0.09-0.03-0.19-0.07-0.32-0.11c-0.13-0.04-0.29-0.07-0.47-0.1
			c-0.19-0.03-0.4-0.05-0.64-0.05c-0.88,0-1.6,0.27-2.17,0.82c-0.57,0.54-1.02,1.33-1.37,2.36v7.56H345.83z"/>
		<path style="fill:#FFFFFF;" d="M359.05,424.26c-0.6,0-1.14,0.09-1.61,0.28c-0.47,0.19-0.89,0.45-1.23,0.8
			c-0.34,0.35-0.63,0.77-0.84,1.26c-0.21,0.49-0.36,1.04-0.43,1.65h7.65c0-0.62-0.09-1.18-0.26-1.68c-0.17-0.49-0.41-0.91-0.72-1.26
			c-0.31-0.34-0.68-0.61-1.12-0.79C360.06,424.35,359.58,424.26,359.05,424.26 M359.03,423.43c0.66,0,1.26,0.11,1.82,0.34
			c0.56,0.22,1.04,0.55,1.45,0.99s0.73,0.96,0.96,1.59c0.23,0.63,0.34,1.36,0.34,2.18c0,0.17-0.03,0.29-0.08,0.35
			c-0.05,0.06-0.13,0.09-0.24,0.09h-8.39v0.22c0,0.87,0.1,1.64,0.3,2.3c0.2,0.66,0.49,1.22,0.86,1.67c0.37,0.45,0.83,0.78,1.36,1.01
			c0.53,0.23,1.12,0.34,1.78,0.34c0.58,0,1.09-0.06,1.52-0.19c0.43-0.13,0.79-0.27,1.08-0.43c0.29-0.16,0.52-0.3,0.7-0.43
			c0.17-0.13,0.3-0.19,0.37-0.19c0.1,0,0.18,0.04,0.23,0.12l0.3,0.37c-0.19,0.23-0.43,0.45-0.74,0.66c-0.31,0.2-0.65,0.38-1.03,0.52
			c-0.38,0.14-0.78,0.26-1.22,0.34c-0.43,0.09-0.87,0.13-1.3,0.13c-0.8,0-1.52-0.14-2.17-0.42c-0.66-0.28-1.22-0.68-1.68-1.21
			c-0.47-0.53-0.83-1.18-1.09-1.95c-0.26-0.77-0.38-1.65-0.38-2.64c0-0.83,0.12-1.6,0.36-2.31c0.24-0.7,0.58-1.31,1.03-1.82
			c0.45-0.51,1-0.91,1.65-1.2C357.47,423.58,358.2,423.43,359.03,423.43"/>
		<path style="fill:#FFFFFF;" d="M373.27,425.07c-0.05,0.11-0.14,0.16-0.26,0.16c-0.09,0-0.2-0.05-0.33-0.15
			c-0.14-0.1-0.32-0.21-0.54-0.33c-0.22-0.12-0.49-0.23-0.82-0.33c-0.32-0.1-0.72-0.15-1.19-0.15c-0.42,0-0.8,0.06-1.15,0.18
			c-0.35,0.12-0.64,0.28-0.89,0.48c-0.24,0.2-0.44,0.44-0.57,0.7c-0.14,0.27-0.2,0.55-0.2,0.84c0,0.36,0.09,0.67,0.28,0.91
			c0.19,0.24,0.43,0.45,0.74,0.62c0.3,0.17,0.65,0.32,1.03,0.44c0.39,0.13,0.78,0.25,1.19,0.37c0.41,0.13,0.8,0.26,1.19,0.41
			c0.39,0.15,0.73,0.34,1.03,0.57c0.3,0.23,0.55,0.5,0.74,0.83c0.19,0.33,0.28,0.72,0.28,1.19c0,0.51-0.09,0.98-0.27,1.41
			c-0.18,0.44-0.45,0.81-0.8,1.13c-0.35,0.32-0.77,0.57-1.28,0.76c-0.51,0.19-1.08,0.28-1.73,0.28c-0.82,0-1.52-0.13-2.12-0.39
			c-0.59-0.26-1.12-0.6-1.59-1.02l0.27-0.4c0.04-0.06,0.08-0.11,0.13-0.14c0.05-0.03,0.11-0.05,0.2-0.05c0.1,0,0.23,0.06,0.37,0.19
			c0.15,0.12,0.34,0.26,0.58,0.4s0.53,0.28,0.89,0.4c0.35,0.12,0.79,0.19,1.31,0.19c0.49,0,0.92-0.07,1.3-0.2
			c0.37-0.14,0.68-0.32,0.93-0.55s0.44-0.51,0.57-0.82c0.13-0.31,0.19-0.65,0.19-1c0-0.39-0.09-0.71-0.28-0.97
			c-0.19-0.26-0.43-0.48-0.74-0.66c-0.3-0.18-0.65-0.33-1.03-0.46c-0.39-0.12-0.78-0.25-1.19-0.37c-0.41-0.12-0.8-0.26-1.19-0.41
			c-0.39-0.15-0.73-0.33-1.03-0.56c-0.3-0.23-0.55-0.5-0.74-0.82c-0.19-0.32-0.28-0.73-0.28-1.21c0-0.41,0.09-0.81,0.27-1.19
			c0.18-0.38,0.44-0.72,0.77-1.01c0.33-0.29,0.73-0.52,1.21-0.69c0.47-0.17,1.01-0.26,1.6-0.26c0.71,0,1.34,0.1,1.89,0.31
			c0.55,0.2,1.05,0.52,1.51,0.94L373.27,425.07z"/>
		<path style="fill:#FFFFFF;" d="M376.76,435.25v-17h1.11v7.36c0.54-0.66,1.15-1.19,1.84-1.58c0.69-0.39,1.46-0.59,2.32-0.59
			c0.64,0,1.2,0.1,1.69,0.3c0.49,0.2,0.89,0.49,1.21,0.88c0.32,0.38,0.56,0.84,0.72,1.38c0.16,0.54,0.25,1.14,0.25,1.82v7.43h-1.11
			v-7.43c0-1.09-0.25-1.95-0.75-2.57c-0.5-0.62-1.26-0.93-2.29-0.93c-0.76,0-1.47,0.2-2.13,0.59c-0.66,0.39-1.24,0.93-1.75,1.62
			v8.72H376.76z"/>
		<path style="fill:#FFFFFF;" d="M394.11,424.26c-0.6,0-1.14,0.09-1.61,0.28c-0.47,0.19-0.89,0.45-1.23,0.8
			c-0.34,0.35-0.63,0.77-0.84,1.26c-0.21,0.49-0.36,1.04-0.43,1.65h7.65c0-0.62-0.09-1.18-0.26-1.68c-0.17-0.49-0.41-0.91-0.72-1.26
			c-0.31-0.34-0.68-0.61-1.12-0.79C395.12,424.35,394.64,424.26,394.11,424.26 M394.09,423.43c0.66,0,1.26,0.11,1.82,0.34
			c0.56,0.22,1.04,0.55,1.45,0.99s0.73,0.96,0.96,1.59c0.23,0.63,0.34,1.36,0.34,2.18c0,0.17-0.03,0.29-0.08,0.35
			c-0.05,0.06-0.13,0.09-0.24,0.09h-8.39v0.22c0,0.87,0.1,1.64,0.3,2.3c0.2,0.66,0.49,1.22,0.86,1.67c0.37,0.45,0.83,0.78,1.36,1.01
			c0.53,0.23,1.12,0.34,1.78,0.34c0.59,0,1.09-0.06,1.52-0.19c0.43-0.13,0.79-0.27,1.08-0.43c0.29-0.16,0.52-0.3,0.7-0.43
			c0.17-0.13,0.3-0.19,0.37-0.19c0.1,0,0.18,0.04,0.23,0.12l0.3,0.37c-0.19,0.23-0.43,0.45-0.74,0.66c-0.31,0.2-0.65,0.38-1.03,0.52
			c-0.38,0.14-0.78,0.26-1.22,0.34c-0.43,0.09-0.87,0.13-1.3,0.13c-0.8,0-1.52-0.14-2.17-0.42c-0.66-0.28-1.22-0.68-1.68-1.21
			c-0.47-0.53-0.83-1.18-1.09-1.95c-0.26-0.77-0.38-1.65-0.38-2.64c0-0.83,0.12-1.6,0.36-2.31c0.24-0.7,0.58-1.31,1.03-1.82
			c0.45-0.51,1-0.91,1.65-1.2C392.53,423.58,393.27,423.43,394.09,423.43"/>
		<path style="fill:#FFFFFF;" d="M401.75,435.25v-11.63h0.61c0.2,0,0.32,0.1,0.35,0.29l0.11,1.75c0.53-0.67,1.15-1.21,1.85-1.62
			c0.7-0.41,1.49-0.61,2.35-0.61c0.64,0,1.2,0.1,1.69,0.3c0.49,0.2,0.89,0.49,1.21,0.88c0.32,0.38,0.56,0.84,0.72,1.38
			c0.16,0.54,0.25,1.14,0.25,1.82v7.43h-1.11v-7.43c0-1.09-0.25-1.95-0.75-2.57c-0.5-0.62-1.26-0.93-2.29-0.93
			c-0.76,0-1.47,0.2-2.13,0.59c-0.66,0.39-1.24,0.93-1.75,1.62v8.72H401.75z"/>
		<path style="fill:#FFFFFF;" d="M420.94,423.63v7.43c0,1.09,0.25,1.95,0.75,2.57c0.5,0.62,1.26,0.93,2.29,0.93
			c0.76,0,1.47-0.19,2.12-0.58c0.66-0.39,1.25-0.92,1.77-1.61v-8.74h1.11v11.63h-0.61c-0.22,0-0.33-0.1-0.34-0.3l-0.1-1.73
			c-0.54,0.67-1.16,1.21-1.87,1.61c-0.71,0.41-1.49,0.61-2.36,0.61c-0.65,0-1.21-0.1-1.7-0.3c-0.48-0.2-0.89-0.5-1.2-0.88
			c-0.32-0.38-0.56-0.84-0.73-1.38c-0.16-0.54-0.25-1.15-0.25-1.82v-7.43H420.94z"/>
		<path style="fill:#FFFFFF;" d="M436.89,424.33c-0.77,0-1.47,0.2-2.1,0.6c-0.63,0.4-1.18,0.96-1.67,1.68v6.1
			c0.45,0.67,0.94,1.14,1.48,1.41c0.54,0.27,1.16,0.41,1.85,0.41c0.68,0,1.28-0.12,1.8-0.37c0.51-0.25,0.94-0.6,1.29-1.06
			c0.35-0.46,0.61-1,0.78-1.64c0.18-0.63,0.26-1.33,0.26-2.09c0-1.73-0.32-3-0.95-3.82C439,424.74,438.09,424.33,436.89,424.33
			 M432.01,439.37v-15.74h0.61c0.1,0,0.18,0.02,0.24,0.06c0.06,0.04,0.1,0.12,0.11,0.23l0.11,1.8c0.51-0.7,1.11-1.26,1.8-1.67
			c0.69-0.41,1.46-0.62,2.32-0.62c1.43,0,2.55,0.5,3.34,1.48c0.79,0.99,1.19,2.47,1.19,4.45c0,0.85-0.11,1.64-0.33,2.38
			c-0.22,0.74-0.55,1.38-0.97,1.92c-0.43,0.54-0.96,0.97-1.58,1.28c-0.63,0.31-1.35,0.47-2.17,0.47c-0.79,0-1.48-0.14-2.06-0.43
			s-1.07-0.72-1.5-1.28v5.68H432.01z"/>
		<path style="fill:#FFFFFF;" d="M451.95,438.99c-0.05,0.11-0.11,0.2-0.18,0.27c-0.07,0.07-0.18,0.11-0.32,0.11h-0.8l2.05-4.55
			l-4.92-11.2h0.92c0.12,0,0.21,0.03,0.28,0.09c0.06,0.06,0.11,0.12,0.14,0.19l3.91,9.04c0.05,0.12,0.09,0.24,0.12,0.36
			c0.03,0.12,0.07,0.24,0.1,0.37c0.04-0.12,0.08-0.25,0.12-0.37c0.04-0.12,0.09-0.24,0.13-0.36l3.87-9.04
			c0.04-0.09,0.09-0.15,0.16-0.21c0.07-0.05,0.15-0.07,0.23-0.07h0.85L451.95,438.99z"/>
		<path style="fill:#FFFFFF;" d="M464.62,434.52c0.69,0,1.3-0.12,1.82-0.36c0.52-0.24,0.95-0.58,1.3-1.02
			c0.35-0.45,0.61-0.98,0.78-1.61c0.17-0.63,0.26-1.33,0.26-2.11c0-0.77-0.09-1.47-0.26-2.1c-0.17-0.63-0.43-1.17-0.78-1.62
			c-0.35-0.45-0.78-0.79-1.3-1.03c-0.52-0.24-1.12-0.36-1.82-0.36s-1.3,0.12-1.82,0.36c-0.52,0.24-0.95,0.59-1.3,1.03
			c-0.35,0.45-0.61,0.99-0.78,1.62c-0.18,0.63-0.26,1.33-0.26,2.1c0,0.78,0.09,1.48,0.26,2.11c0.18,0.63,0.44,1.16,0.78,1.61
			c0.35,0.44,0.78,0.78,1.3,1.02C463.32,434.4,463.93,434.52,464.62,434.52 M464.62,423.43c0.83,0,1.58,0.14,2.24,0.43
			c0.66,0.28,1.21,0.69,1.67,1.21c0.45,0.52,0.8,1.15,1.03,1.89c0.24,0.74,0.36,1.56,0.36,2.47s-0.12,1.73-0.36,2.47
			c-0.24,0.73-0.58,1.36-1.03,1.88c-0.45,0.52-1.01,0.92-1.67,1.2c-0.66,0.28-1.41,0.42-2.24,0.42c-0.83,0-1.58-0.14-2.24-0.42
			c-0.66-0.28-1.22-0.68-1.67-1.2c-0.46-0.52-0.8-1.15-1.04-1.88c-0.24-0.73-0.36-1.55-0.36-2.47s0.12-1.74,0.36-2.47
			c0.24-0.74,0.58-1.37,1.04-1.89c0.46-0.52,1.01-0.93,1.67-1.21C463.04,423.57,463.79,423.43,464.62,423.43"/>
		<path style="fill:#FFFFFF;" d="M473.64,423.62v7.43c0,1.09,0.25,1.95,0.75,2.57c0.5,0.62,1.26,0.93,2.29,0.93
			c0.76,0,1.47-0.19,2.12-0.58c0.66-0.39,1.25-0.92,1.77-1.61v-8.74h1.11v11.63h-0.61c-0.22,0-0.33-0.1-0.33-0.3l-0.11-1.73
			c-0.54,0.67-1.16,1.21-1.87,1.61c-0.71,0.41-1.49,0.61-2.36,0.61c-0.65,0-1.21-0.1-1.7-0.3c-0.48-0.2-0.89-0.49-1.2-0.88
			c-0.32-0.38-0.56-0.84-0.72-1.38c-0.17-0.54-0.25-1.14-0.25-1.82v-7.43H473.64z"/>
		<path style="fill:#FFFFFF;" d="M484.71,435.25v-11.63h0.58c0.13,0,0.23,0.03,0.29,0.08c0.06,0.05,0.09,0.15,0.1,0.28l0.09,2.45
			c0.37-0.94,0.87-1.68,1.49-2.22c0.62-0.53,1.39-0.8,2.3-0.8c0.35,0,0.67,0.04,0.97,0.11c0.3,0.07,0.58,0.18,0.84,0.32l-0.15,0.77
			c-0.02,0.12-0.1,0.19-0.23,0.19c-0.05,0-0.11-0.02-0.2-0.05c-0.09-0.03-0.19-0.07-0.32-0.11c-0.13-0.04-0.29-0.07-0.47-0.1
			c-0.19-0.03-0.4-0.05-0.64-0.05c-0.88,0-1.6,0.27-2.17,0.82c-0.56,0.54-1.02,1.33-1.37,2.36v7.56H484.71z"/>
		<path style="fill:#FFFFFF;" d="M503.19,424.32c-0.77,0-1.47,0.2-2.09,0.59c-0.63,0.4-1.18,0.95-1.67,1.66v6.14
			c0.44,0.67,0.94,1.14,1.47,1.41c0.54,0.27,1.16,0.4,1.86,0.4c0.69,0,1.29-0.12,1.8-0.37c0.51-0.25,0.95-0.6,1.29-1.06
			c0.35-0.45,0.61-1,0.78-1.64c0.18-0.64,0.26-1.33,0.26-2.1c0-1.73-0.32-3-0.96-3.82S504.38,424.32,503.19,424.32 M498.31,435.25
			v-17h1.11l0.01,7.41c0.51-0.69,1.11-1.23,1.79-1.62c0.68-0.4,1.44-0.6,2.29-0.6c1.43,0,2.54,0.49,3.34,1.48
			c0.8,0.99,1.2,2.47,1.2,4.45c0,0.85-0.11,1.64-0.33,2.38c-0.22,0.74-0.55,1.38-0.98,1.92c-0.43,0.54-0.96,0.97-1.59,1.28
			c-0.63,0.31-1.35,0.47-2.17,0.47c-0.81,0-1.51-0.16-2.09-0.47c-0.59-0.32-1.09-0.78-1.51-1.4l-0.07,1.43
			c-0.02,0.19-0.13,0.29-0.31,0.29H498.31z"/>
		<path style="fill:#FFFFFF;" d="M511.6,423.62v7.43c0,1.09,0.25,1.95,0.75,2.57c0.5,0.62,1.26,0.93,2.29,0.93
			c0.76,0,1.47-0.19,2.12-0.58c0.66-0.39,1.25-0.92,1.77-1.61v-8.74h1.11v11.63h-0.61c-0.22,0-0.33-0.1-0.33-0.3l-0.11-1.73
			c-0.54,0.67-1.16,1.21-1.87,1.61c-0.71,0.41-1.49,0.61-2.36,0.61c-0.65,0-1.21-0.1-1.7-0.3c-0.48-0.2-0.89-0.5-1.2-0.88
			c-0.32-0.38-0.56-0.84-0.72-1.38c-0.17-0.54-0.25-1.15-0.25-1.82v-7.43H511.6z"/>
		<path style="fill:#FFFFFF;" d="M529.14,425.07c-0.05,0.11-0.14,0.16-0.26,0.16c-0.09,0-0.2-0.05-0.33-0.15
			c-0.14-0.1-0.32-0.21-0.54-0.33c-0.22-0.12-0.49-0.23-0.82-0.33c-0.32-0.1-0.72-0.15-1.18-0.15c-0.42,0-0.8,0.06-1.15,0.18
			c-0.35,0.12-0.64,0.28-0.89,0.48c-0.25,0.2-0.44,0.44-0.57,0.7c-0.14,0.27-0.2,0.55-0.2,0.84c0,0.36,0.09,0.67,0.28,0.91
			c0.19,0.24,0.43,0.45,0.74,0.62c0.3,0.17,0.65,0.32,1.03,0.44c0.39,0.13,0.78,0.25,1.19,0.37c0.41,0.13,0.8,0.26,1.19,0.41
			c0.39,0.15,0.73,0.34,1.03,0.57c0.3,0.23,0.55,0.5,0.74,0.83c0.19,0.33,0.28,0.72,0.28,1.19c0,0.51-0.09,0.98-0.28,1.41
			c-0.18,0.44-0.45,0.81-0.79,1.13c-0.34,0.32-0.77,0.57-1.28,0.76c-0.51,0.19-1.08,0.28-1.73,0.28c-0.82,0-1.52-0.13-2.12-0.39
			c-0.59-0.26-1.12-0.6-1.59-1.02l0.27-0.4c0.04-0.06,0.08-0.11,0.13-0.14c0.05-0.03,0.11-0.05,0.2-0.05c0.1,0,0.23,0.06,0.37,0.19
			c0.15,0.12,0.34,0.26,0.58,0.4s0.53,0.28,0.89,0.4c0.36,0.12,0.79,0.19,1.32,0.19c0.49,0,0.92-0.07,1.3-0.2
			c0.37-0.14,0.68-0.32,0.93-0.55s0.44-0.51,0.57-0.82c0.13-0.31,0.19-0.65,0.19-1c0-0.39-0.09-0.71-0.28-0.97
			c-0.19-0.26-0.43-0.48-0.74-0.66c-0.3-0.18-0.65-0.33-1.03-0.46c-0.39-0.12-0.78-0.25-1.19-0.37c-0.41-0.12-0.81-0.26-1.19-0.41
			c-0.39-0.15-0.73-0.33-1.03-0.56c-0.3-0.23-0.55-0.5-0.74-0.82c-0.19-0.32-0.28-0.73-0.28-1.21c0-0.41,0.09-0.81,0.27-1.19
			c0.18-0.38,0.44-0.72,0.77-1.01s0.74-0.52,1.21-0.69c0.48-0.17,1.01-0.26,1.6-0.26c0.71,0,1.34,0.1,1.89,0.31
			c0.55,0.2,1.05,0.52,1.51,0.94L529.14,425.07z"/>
		<path style="fill:#FFFFFF;" d="M533.35,435.25h-1.11v-11.63h1.11V435.25z M533.84,419.61c0,0.14-0.03,0.27-0.09,0.39
			c-0.06,0.12-0.13,0.23-0.23,0.32c-0.09,0.09-0.2,0.17-0.33,0.22c-0.13,0.05-0.26,0.08-0.4,0.08c-0.14,0-0.27-0.03-0.4-0.08
			c-0.12-0.05-0.23-0.13-0.33-0.22c-0.09-0.09-0.17-0.2-0.22-0.32c-0.05-0.12-0.08-0.25-0.08-0.39c0-0.14,0.03-0.28,0.08-0.4
			c0.05-0.13,0.13-0.24,0.22-0.33c0.09-0.09,0.2-0.17,0.33-0.22c0.13-0.05,0.26-0.08,0.4-0.08c0.14,0,0.27,0.03,0.4,0.08
			c0.12,0.05,0.23,0.13,0.33,0.22c0.09,0.09,0.17,0.2,0.23,0.33C533.81,419.34,533.84,419.47,533.84,419.61"/>
		<path style="fill:#FFFFFF;" d="M536.37,435.25v-11.63h0.61c0.2,0,0.32,0.1,0.35,0.29l0.11,1.75c0.53-0.67,1.15-1.21,1.85-1.62
			c0.7-0.41,1.49-0.61,2.35-0.61c0.64,0,1.2,0.1,1.69,0.3c0.49,0.2,0.89,0.49,1.21,0.88c0.32,0.38,0.56,0.84,0.72,1.38
			c0.16,0.54,0.24,1.14,0.24,1.82v7.43h-1.11v-7.43c0-1.09-0.25-1.95-0.75-2.57c-0.5-0.62-1.26-0.93-2.29-0.93
			c-0.76,0-1.47,0.2-2.13,0.59c-0.66,0.39-1.24,0.93-1.75,1.62v8.72H536.37z"/>
		<path style="fill:#FFFFFF;" d="M553.21,424.26c-0.6,0-1.14,0.09-1.61,0.28c-0.47,0.19-0.88,0.45-1.23,0.8
			c-0.35,0.35-0.63,0.77-0.84,1.26c-0.21,0.49-0.36,1.04-0.43,1.65h7.65c0-0.62-0.09-1.18-0.26-1.68c-0.17-0.49-0.41-0.91-0.72-1.26
			c-0.31-0.34-0.68-0.61-1.12-0.79C554.22,424.35,553.74,424.26,553.21,424.26 M553.19,423.43c0.66,0,1.26,0.11,1.82,0.34
			c0.56,0.22,1.04,0.55,1.45,0.99c0.41,0.43,0.73,0.96,0.96,1.59c0.23,0.63,0.34,1.36,0.34,2.18c0,0.17-0.03,0.29-0.08,0.35
			c-0.05,0.06-0.13,0.09-0.24,0.09h-8.39v0.22c0,0.87,0.1,1.64,0.3,2.3c0.2,0.66,0.49,1.22,0.86,1.67c0.37,0.45,0.83,0.78,1.36,1.01
			c0.53,0.23,1.12,0.34,1.78,0.34c0.58,0,1.09-0.06,1.52-0.19c0.43-0.13,0.79-0.27,1.08-0.43c0.29-0.16,0.52-0.3,0.7-0.43
			c0.17-0.13,0.3-0.19,0.37-0.19c0.1,0,0.18,0.04,0.23,0.12l0.3,0.37c-0.19,0.23-0.43,0.45-0.74,0.66c-0.31,0.2-0.65,0.38-1.03,0.52
			c-0.38,0.14-0.78,0.26-1.22,0.34c-0.43,0.09-0.87,0.13-1.3,0.13c-0.79,0-1.52-0.14-2.17-0.42c-0.66-0.28-1.22-0.68-1.68-1.21
			c-0.47-0.53-0.83-1.18-1.09-1.95c-0.26-0.77-0.38-1.65-0.38-2.64c0-0.83,0.12-1.6,0.36-2.31c0.24-0.7,0.58-1.31,1.03-1.82
			c0.45-0.51,1-0.91,1.65-1.2C551.63,423.58,552.37,423.43,553.19,423.43"/>
		<path style="fill:#FFFFFF;" d="M566.71,425.07c-0.05,0.11-0.14,0.16-0.26,0.16c-0.09,0-0.2-0.05-0.33-0.15
			c-0.14-0.1-0.32-0.21-0.54-0.33c-0.22-0.12-0.49-0.23-0.82-0.33c-0.32-0.1-0.72-0.15-1.18-0.15c-0.42,0-0.8,0.06-1.15,0.18
			c-0.35,0.12-0.64,0.28-0.89,0.48c-0.25,0.2-0.44,0.44-0.57,0.7c-0.14,0.27-0.2,0.55-0.2,0.84c0,0.36,0.09,0.67,0.28,0.91
			c0.19,0.24,0.43,0.45,0.74,0.62c0.3,0.17,0.65,0.32,1.03,0.44c0.39,0.13,0.78,0.25,1.19,0.37c0.41,0.13,0.8,0.26,1.19,0.41
			c0.39,0.15,0.73,0.34,1.03,0.57c0.3,0.23,0.55,0.5,0.74,0.83c0.19,0.33,0.28,0.72,0.28,1.19c0,0.51-0.09,0.98-0.28,1.41
			c-0.18,0.44-0.45,0.81-0.79,1.13c-0.35,0.32-0.77,0.57-1.28,0.76c-0.51,0.19-1.08,0.28-1.73,0.28c-0.82,0-1.52-0.13-2.12-0.39
			c-0.59-0.26-1.12-0.6-1.59-1.02l0.27-0.4c0.04-0.06,0.08-0.11,0.13-0.14c0.05-0.03,0.11-0.05,0.2-0.05c0.1,0,0.22,0.06,0.37,0.19
			c0.15,0.12,0.34,0.26,0.58,0.4c0.24,0.14,0.53,0.28,0.89,0.4c0.36,0.12,0.79,0.19,1.32,0.19c0.49,0,0.92-0.07,1.3-0.2
			c0.37-0.14,0.68-0.32,0.93-0.55c0.25-0.23,0.44-0.51,0.57-0.82c0.13-0.31,0.19-0.65,0.19-1c0-0.39-0.09-0.71-0.28-0.97
			c-0.19-0.26-0.43-0.48-0.74-0.66c-0.3-0.18-0.65-0.33-1.03-0.46c-0.39-0.12-0.78-0.25-1.19-0.37c-0.41-0.12-0.81-0.26-1.19-0.41
			c-0.39-0.15-0.73-0.33-1.03-0.56c-0.3-0.23-0.55-0.5-0.74-0.82c-0.19-0.32-0.28-0.73-0.28-1.21c0-0.41,0.09-0.81,0.27-1.19
			c0.18-0.38,0.43-0.72,0.77-1.01c0.33-0.29,0.74-0.52,1.21-0.69c0.48-0.17,1.01-0.26,1.6-0.26c0.71,0,1.34,0.1,1.89,0.31
			c0.55,0.2,1.05,0.52,1.51,0.94L566.71,425.07z"/>
		<path style="fill:#FFFFFF;" d="M575.64,425.07c-0.05,0.11-0.13,0.16-0.24,0.16c-0.08,0-0.18-0.05-0.31-0.15
			c-0.13-0.1-0.3-0.21-0.51-0.33c-0.21-0.12-0.47-0.23-0.77-0.33c-0.3-0.1-0.68-0.14-1.12-0.14c-0.4,0-0.76,0.06-1.09,0.18
			c-0.33,0.12-0.61,0.28-0.84,0.48c-0.23,0.2-0.41,0.44-0.54,0.71c-0.13,0.27-0.19,0.55-0.19,0.84c0,0.36,0.09,0.67,0.26,0.91
			c0.18,0.24,0.41,0.45,0.7,0.62c0.29,0.17,0.61,0.32,0.97,0.44s0.74,0.25,1.12,0.37c0.38,0.13,0.76,0.26,1.12,0.41
			c0.36,0.15,0.69,0.34,0.97,0.57c0.29,0.23,0.52,0.5,0.7,0.83c0.18,0.33,0.26,0.72,0.26,1.19c0,0.51-0.09,0.98-0.26,1.42
			c-0.17,0.44-0.42,0.81-0.75,1.13c-0.33,0.32-0.73,0.57-1.21,0.76c-0.48,0.19-1.02,0.28-1.63,0.28c-0.77,0-1.44-0.13-2-0.39
			c-0.56-0.26-1.06-0.6-1.5-1.02l0.25-0.4c0.04-0.06,0.08-0.11,0.12-0.14c0.04-0.03,0.11-0.05,0.19-0.05c0.09,0,0.21,0.06,0.35,0.19
			c0.14,0.12,0.32,0.26,0.55,0.41c0.22,0.14,0.5,0.28,0.84,0.4c0.33,0.12,0.75,0.19,1.24,0.19c0.46,0,0.87-0.07,1.22-0.2
			c0.35-0.14,0.65-0.32,0.88-0.56c0.24-0.23,0.41-0.51,0.53-0.82c0.12-0.31,0.18-0.65,0.18-1c0-0.39-0.09-0.71-0.26-0.97
			c-0.18-0.26-0.41-0.48-0.69-0.66c-0.29-0.18-0.61-0.33-0.97-0.46c-0.36-0.13-0.74-0.25-1.13-0.37c-0.39-0.13-0.76-0.26-1.12-0.41
			c-0.36-0.15-0.69-0.33-0.97-0.56c-0.29-0.23-0.52-0.5-0.7-0.82c-0.18-0.32-0.26-0.73-0.26-1.21c0-0.41,0.09-0.81,0.25-1.19
			c0.17-0.38,0.41-0.72,0.72-1.01c0.31-0.29,0.69-0.52,1.14-0.69c0.45-0.17,0.95-0.26,1.51-0.26c0.67,0,1.26,0.1,1.78,0.31
			c0.52,0.2,0.99,0.52,1.43,0.94L575.64,425.07z"/>
		<path style="fill:#FFFFFF;" d="M420.94,423.62v7.43c0,1.09,0.25,1.95,0.75,2.57c0.5,0.62,1.26,0.93,2.29,0.93
			c0.76,0,1.47-0.19,2.12-0.58c0.66-0.39,1.25-0.92,1.77-1.61v-8.74h1.11v11.63h-0.61c-0.22,0-0.33-0.1-0.34-0.3l-0.1-1.73
			c-0.54,0.67-1.16,1.21-1.87,1.61c-0.71,0.41-1.49,0.61-2.36,0.61c-0.65,0-1.21-0.1-1.7-0.3c-0.48-0.2-0.89-0.5-1.2-0.88
			c-0.32-0.38-0.56-0.84-0.73-1.38c-0.16-0.54-0.25-1.14-0.25-1.82v-7.43H420.94z"/>
		<path style="fill:#FFFFFF;" d="M436.89,424.32c-0.77,0-1.47,0.2-2.1,0.6c-0.63,0.4-1.18,0.96-1.67,1.68v6.1
			c0.45,0.67,0.94,1.14,1.48,1.41c0.54,0.27,1.16,0.41,1.85,0.41c0.68,0,1.28-0.12,1.8-0.37c0.51-0.25,0.94-0.6,1.29-1.06
			c0.35-0.46,0.61-1,0.78-1.64c0.18-0.64,0.26-1.33,0.26-2.1c0-1.73-0.32-3-0.95-3.82C439,424.73,438.09,424.32,436.89,424.32
			 M432.01,439.36v-15.74h0.61c0.1,0,0.18,0.02,0.24,0.06c0.06,0.04,0.1,0.12,0.11,0.23l0.11,1.8c0.51-0.7,1.11-1.26,1.8-1.67
			c0.69-0.41,1.46-0.62,2.32-0.62c1.43,0,2.55,0.49,3.34,1.48c0.79,0.99,1.19,2.47,1.19,4.45c0,0.85-0.11,1.64-0.33,2.38
			c-0.22,0.74-0.55,1.38-0.97,1.92c-0.43,0.54-0.96,0.97-1.58,1.28c-0.63,0.31-1.35,0.47-2.17,0.47c-0.79,0-1.48-0.14-2.06-0.43
			s-1.07-0.72-1.5-1.28v5.68H432.01z"/>
	</g>
</g>
</svg>
