<?xml version="1.0" encoding="utf-8"?>
<!-- Generator: Adobe Illustrator 24.1.2, SVG Export Plug-In . SVG Version: 6.00 Build 0)  -->
<svg version="1.1" id="Layer_1" xmlns="http://www.w3.org/2000/svg" xmlns:xlink="http://www.w3.org/1999/xlink" x="0px" y="0px"
	 viewBox="0 0 841.89 595.28" style="enable-background:new 0 0 841.89 595.28;" xml:space="preserve">
<g>
	<g>
		<path style="fill:#FFFFFF;" d="M291.91,214.39c5.14-19.13,16.64-36.68,33.95-49.18l-6.71-9.3
			c-26.48,19.12-40.91,48.71-41.75,79.02C281.43,227.49,286.3,220.61,291.91,214.39"/>
		<path style="fill:#FFFFFF;" d="M314.35,389.86c0,4.18-1.18,7.33-3.61,9.64c-2.42,2.3-6.14,3.46-11.06,3.46h-20.92v-26.1h20.92
			c4.92,0,8.64,1.17,11.06,3.47C313.17,382.64,314.35,385.76,314.35,389.86 M300.21,365.84h-32.88v72.65h11.44v-24.61h21.44
			c7.81,0,14.09-2.18,18.66-6.49c4.6-4.34,6.93-10.23,6.93-17.53c0-7.29-2.33-13.2-6.93-17.53
			C314.29,368.02,308.01,365.84,300.21,365.84"/>
		<path style="fill:#FFFFFF;" d="M362.91,402.03c1.25,2.69,1.89,5.72,1.89,9c0,3.21-0.64,6.23-1.89,8.95
			c-1.23,2.67-3.04,4.82-5.39,6.4c-2.32,1.57-5.25,2.37-8.71,2.37c-3.4,0-6.35-0.8-8.78-2.38c-2.45-1.59-4.34-3.75-5.63-6.41
			c-1.31-2.72-1.98-5.72-1.98-8.93c0-3.27,0.67-6.29,1.98-8.97c1.29-2.64,3.18-4.78,5.63-6.37c2.43-1.58,5.38-2.38,8.78-2.38
			c3.45,0,6.39,0.79,8.71,2.36C359.87,397.26,361.68,399.4,362.91,402.03 M364.38,388.88c-1.43-1.33-3.04-2.48-4.82-3.44
			c-3.29-1.78-7.26-2.68-11.78-2.68c-5.31,0-10.04,1.29-14.04,3.82c-3.99,2.52-7.12,5.97-9.31,10.24
			c-2.17,4.24-3.28,9.02-3.28,14.21c0,5.12,1.1,9.88,3.28,14.15c2.19,4.31,5.33,7.78,9.31,10.3c4,2.54,8.73,3.82,14.04,3.82
			c4.53,0,8.49-0.9,11.78-2.68c1.78-0.96,3.38-2.1,4.82-3.41v5.27h11.27v-54.91h-11.27V388.88z"/>
	</g>
	<polygon style="fill:#FFFFFF;" points="402.3,365.87 402.3,373.66 428.85,373.66 428.85,438.49 437.08,438.49 437.08,373.66 
		463.63,373.66 463.63,365.87 	"/>
	<g>
		<path style="fill:#FFFFFF;" d="M444.97,406.68h37.3c-0.73-4.68-2.71-8.59-5.92-11.73c-3.22-3.15-7.46-4.72-12.72-4.72
			c-5.27,0-9.49,1.57-12.67,4.72C447.77,398.09,445.77,402,444.97,406.68 M464.17,439.37c-5.56,0-10.42-1.26-14.59-3.79
			c-4.17-2.52-7.4-5.94-9.71-10.26c-2.31-4.31-3.46-9.07-3.46-14.26c0-5.27,1.1-10.04,3.29-14.32c2.2-4.28,5.34-7.68,9.44-10.2
			c4.1-2.52,8.92-3.79,14.48-3.79c5.63,0,10.47,1.26,14.53,3.79c4.06,2.52,7.19,5.92,9.38,10.2c2.19,4.28,3.29,9.05,3.29,14.32v3.29
			h-45.96c0.44,3.22,1.48,6.16,3.13,8.83c1.64,2.67,3.86,4.79,6.64,6.36c2.78,1.57,6,2.36,9.65,2.36c3.87,0,7.13-0.86,9.76-2.58
			c2.63-1.72,4.68-3.93,6.14-6.64h8.99c-1.9,4.9-4.92,8.91-9.05,12.01C475.99,437.82,470.67,439.37,464.17,439.37"/>
		<path style="fill:#FFFFFF;" d="M517.16,439.37c-5.49,0-10.24-1.26-14.26-3.79c-4.02-2.52-7.15-5.94-9.38-10.26
			c-2.23-4.31-3.35-9.07-3.35-14.26c0-5.27,1.12-10.04,3.35-14.32c2.23-4.28,5.36-7.68,9.38-10.2c4.02-2.52,8.78-3.79,14.26-3.79
			c6.51,0,12.05,1.68,16.62,5.05c4.57,3.36,7.66,7.72,9.27,13.05h-8.89c-1.25-3.14-3.24-5.7-5.98-7.68
			c-2.74-1.98-6.05-2.96-9.93-2.96c-4.02,0-7.53,0.95-10.53,2.85c-3,1.9-5.31,4.43-6.91,7.57c-1.61,3.15-2.41,6.62-2.41,10.42
			c0,3.73,0.8,7.19,2.41,10.37c1.61,3.18,3.91,5.72,6.91,7.62c3,1.9,6.51,2.85,10.53,2.85c3.87,0,7.19-0.99,9.93-2.96
			c2.74-1.98,4.73-4.54,5.98-7.68h8.89c-1.61,5.34-4.7,9.69-9.27,13.05C529.21,437.69,523.67,439.37,517.16,439.37"/>
		<path style="fill:#FFFFFF;" d="M542.25,438.49V361.7h8.23v30.5c1.98-2.63,4.39-4.86,7.24-6.69c2.85-1.83,6.51-2.74,10.97-2.74
			c3.8,0,7.37,0.89,10.7,2.69c3.33,1.8,6.03,4.46,8.12,8.01c2.08,3.55,3.12,7.92,3.12,13.11v31.93h-8.23v-31.7
			c0-4.97-1.42-8.97-4.28-12.01c-2.85-3.03-6.55-4.55-11.08-4.55c-3.07,0-5.85,0.69-8.34,2.08c-2.49,1.39-4.48,3.34-5.98,5.87
			c-1.5,2.52-2.25,5.43-2.25,8.72v31.59H542.25z"/>
	</g>
	<polygon style="fill:#FFFFFF;" points="414.51,383.58 402.3,401.6 390,383.58 375.65,383.58 395.57,410.21 374.41,438.49 
		388.66,438.49 402.3,418.89 415.85,438.49 430.22,438.49 408.95,410.21 428.87,383.58 	"/>
	<g>
		<path style="fill:#FFFFFF;" d="M461.6,241.17c-24.78-49.85-85.29-70.17-135.14-45.38c-49.85,24.78-70.17,85.29-45.38,135.14
			l-0.69,0.34c-1.21,0.6-2.69,0.09-3.26-1.14c-23.89-51-2.79-112.01,47.9-137.22c50.7-25.2,112.08-5.2,138.32,44.63
			c0.63,1.2,0.15,2.68-1.06,3.29L461.6,241.17z"/>
		<path style="fill:#FFFFFF;" d="M403.3,342.22c-2.57-1.48-5.18-1.76-5.83-0.62c-0.65,1.14,0.9,3.25,3.47,4.73
			c2.57,1.48,5.18,1.76,5.83,0.62C407.42,345.82,405.86,343.7,403.3,342.22"/>
		<path style="fill:#FFFFFF;" d="M409.81,324.84c-2.86-0.76-5.46-0.36-5.79,0.91c-0.34,1.27,1.71,2.91,4.57,3.67
			c2.86,0.76,5.46,0.36,5.79-0.91C414.71,327.25,412.67,325.6,409.81,324.84"/>
		<path style="fill:#FFFFFF;" d="M411.59,306.37c-2.96,0-5.36,1.07-5.36,2.38c0,1.31,2.4,2.37,5.37,2.36c2.96,0,5.36-1.07,5.36-2.38
			C416.96,307.43,414.55,306.37,411.59,306.37"/>
		<path style="fill:#FFFFFF;" d="M408.54,288.06c-2.86,0.77-4.9,2.42-4.56,3.68c0.34,1.26,2.94,1.66,5.79,0.89
			c2.86-0.77,4.9-2.42,4.56-3.68C413.99,287.7,411.4,287.29,408.54,288.06"/>
		<path style="fill:#FFFFFF;" d="M400.85,271.17c-2.56,1.48-4.11,3.61-3.45,4.74c0.66,1.13,3.27,0.85,5.83-0.64
			c2.56-1.48,4.11-3.61,3.45-4.74C406.02,269.41,403.41,269.69,400.85,271.17"/>
		<path style="fill:#FFFFFF;" d="M389.05,256.85c-2.09,2.1-3.04,4.55-2.11,5.47c0.93,0.92,3.37-0.03,5.47-2.12
			c2.09-2.1,3.04-4.55,2.11-5.47C393.59,253.8,391.14,254.75,389.05,256.85"/>
		<path style="fill:#FFFFFF;" d="M373.94,246.07c-1.48,2.57-1.76,5.18-0.62,5.83c1.14,0.65,3.25-0.9,4.73-3.46
			c1.48-2.57,1.76-5.18,0.62-5.83C377.54,241.95,375.42,243.5,373.94,246.07"/>
		<path style="fill:#FFFFFF;" d="M356.56,239.56c-0.76,2.86-0.36,5.46,0.91,5.79c1.27,0.34,2.91-1.71,3.67-4.57
			c0.76-2.86,0.36-5.46-0.91-5.79C358.97,234.65,357.33,236.7,356.56,239.56"/>
		<path style="fill:#FFFFFF;" d="M338.09,237.77c0,2.96,1.07,5.36,2.38,5.36c1.31,0,2.37-2.4,2.36-5.37c0-2.96-1.07-5.36-2.38-5.36
			C339.15,232.41,338.09,234.81,338.09,237.77"/>
		<path style="fill:#FFFFFF;" d="M319.79,240.83c0.77,2.86,2.42,4.9,3.68,4.56c1.26-0.34,1.66-2.94,0.89-5.8
			c-0.77-2.86-2.42-4.9-3.68-4.56C319.42,235.37,319.02,237.97,319.79,240.83"/>
		<path style="fill:#FFFFFF;" d="M302.9,248.52c1.48,2.56,3.61,4.11,4.74,3.45c1.13-0.66,0.85-3.27-0.64-5.83
			c-1.48-2.56-3.61-4.11-4.74-3.45C301.13,243.34,301.41,245.95,302.9,248.52"/>
		<path style="fill:#FFFFFF;" d="M378.67,242.6c-0.18-0.1-0.38-0.15-0.59-0.15c-1.18,0-2.89,1.44-4.14,3.61
			c-1.48,2.57-1.76,5.18-0.62,5.83c0.17,0.1,0.37,0.15,0.59,0.15c1.18,0,2.89-1.44,4.14-3.61
			C379.53,245.87,379.81,243.25,378.67,242.6"/>
		<path style="fill:#FFFFFF;" d="M340.47,243.13L340.47,243.13c1.31,0,2.37-2.4,2.36-5.37c0-0.8-0.08-1.56-0.23-2.24l-4.29,4.49
			C338.7,241.85,339.51,243.13,340.47,243.13"/>
		<path style="fill:#FFFFFF;" d="M360.24,234.99c-0.09-0.02-0.19-0.04-0.28-0.04c-1.22,0-2.68,1.95-3.39,4.61
			c-0.76,2.86-0.36,5.46,0.91,5.79c0.09,0.02,0.19,0.04,0.28,0.04c1.22,0,2.68-1.95,3.39-4.61
			C361.91,237.92,361.5,235.33,360.24,234.99"/>
		<path style="fill:#FFFFFF;" d="M397.39,275.91c0.27,0.47,0.87,0.69,1.67,0.69c0.76,0,1.71-0.23,2.7-0.63
			c0.19-1.81,0.32-3.63,0.4-5.45c-0.44,0.19-0.88,0.39-1.32,0.65C398.28,272.66,396.74,274.78,397.39,275.91"/>
		<path style="fill:#FFFFFF;" d="M384.86,264.4c-0.62-0.62-1.92-2.38-0.74-5.44c0.54-1.41,1.55-2.9,2.85-4.19
			c2.09-2.09,4.54-3.34,6.55-3.34c1.2,0,2.29,0.43,3.07,1.21c0.62,0.61,1.92,2.38,0.74,5.44c-0.54,1.41-1.55,2.9-2.85,4.19
			c-2.09,2.09-4.54,3.34-6.55,3.34C386.74,265.62,385.64,265.18,384.86,264.4 M380.6,249.9c-1.83,3.18-4.33,5.09-6.69,5.09
			c-0.73,0-1.44-0.19-2.06-0.54c-2.71-1.56-2.9-5.61-0.46-9.85c1.83-3.18,4.33-5.09,6.69-5.09c0.73,0,1.44,0.19,2.06,0.54
			C382.85,241.61,383.04,245.66,380.6,249.9 M363.99,241.54c-0.84,3.13-2.97,6.79-6.23,6.79c-0.35,0-0.7-0.05-1.04-0.14
			c-0.84-0.23-2.85-1.1-3.36-4.34c-0.23-1.49-0.1-3.29,0.37-5.06c0.83-3.13,2.97-6.79,6.23-6.79c0.35,0,0.7,0.05,1.04,0.14
			C364.02,232.95,365.25,236.82,363.99,241.54 M399.06,279.55c-1.88,0-3.42-0.79-4.21-2.16c-1.57-2.71,0.29-6.31,4.53-8.76
			c0.96-0.55,1.93-0.98,2.88-1.27c0.2-23.81-9.04-47.64-27.62-65.38l-29.69,31.1c0.53,1.3,0.83,2.89,0.83,4.69
			c0,1.83-0.33,3.6-0.94,4.98c-1.32,3-3.49,3.33-4.37,3.33c-1.98,0-3.57-1.37-4.49-3.61l-60.5,63.37c1.7,8.14,4.43,16.13,8.23,23.78
			l1.31,2.63l-2.63,1.31l-0.69,0.34c-0.74,0.37-1.56,0.56-2.38,0.56c-2.07,0-3.97-1.21-4.85-3.08c-2.7-5.76-4.83-11.69-6.45-17.72
			l-16.75,17.54c35.68,34.07,92.23,32.76,126.3-2.92c13.38-14.02,21.28-31.25,23.81-49.07
			C400.57,279.42,399.79,279.55,399.06,279.55"/>
		<path style="fill:#FFFFFF;" d="M394.51,254.73c-0.24-0.24-0.58-0.35-1-0.35c-1.18,0-2.92,0.92-4.47,2.48
			c-2.09,2.1-3.04,4.55-2.11,5.47c0.24,0.24,0.58,0.36,1,0.36c1.18,0,2.92-0.92,4.47-2.48C394.5,258.1,395.44,255.65,394.51,254.73"
			/>
		<path style="fill:#FFFFFF;" d="M410.56,322c4.72,1.26,7.46,4.25,6.65,7.27c-0.17,0.63-0.49,1.18-0.91,1.66
			c7.23-2.96,14.23-6.79,20.85-11.57l-6.71-9.3c-6.89,4.98-14.26,8.8-21.88,11.56C409.22,321.71,409.89,321.82,410.56,322"/>
		<path style="fill:#FFFFFF;" d="M408.58,329.42c0.98,0.26,1.93,0.39,2.76,0.39c1.61,0,2.81-0.46,3.03-1.29
			c0.34-1.27-1.71-2.91-4.57-3.67c-0.98-0.26-1.93-0.39-2.76-0.39c-1.61,0-2.81,0.46-3.03,1.29
			C403.68,327.02,405.72,328.66,408.58,329.42"/>
		<path style="fill:#FFFFFF;" d="M411.34,332.75c-1.11,0-2.33-0.17-3.52-0.48c-4.72-1.26-7.46-4.25-6.65-7.27
			c0.12-0.43,0.31-0.82,0.55-1.19c-6.21,1.7-12.55,2.7-18.89,3.03c-1.02,1.18-2.07,2.33-3.15,3.47c-2.7,2.83-5.56,5.44-8.53,7.87
			c13.52,0.94,27.28-0.82,40.4-5.44C411.48,332.74,411.42,332.75,411.34,332.75"/>
		<path style="fill:#FFFFFF;" d="M298.3,277.67c-7.08-14.08-10.12-29.43-9.35-44.5c-4.2,6.56-7.62,13.68-10.2,21.23
			c1.85,11.02,5.55,21.85,11.19,32.03L298.3,277.67z"/>
	</g>
</g>
</svg>
