<?xml version="1.0" encoding="UTF-8" standalone="no"?>
<svg
   id="Layer_1"
   data-name="Layer 1"
   viewBox="0 0 310.43106 283.46047"
   version="1.1"
   sodipodi:docname="PaxTech-Vertical-Tagline[Cropped].svg"
   width="310.43106"
   height="283.46048"
   inkscape:version="1.3.2 (091e20e, 2023-11-25, custom)"
   xmlns:inkscape="http://www.inkscape.org/namespaces/inkscape"
   xmlns:sodipodi="http://sodipodi.sourceforge.net/DTD/sodipodi-0.dtd"
   xmlns="http://www.w3.org/2000/svg"
   xmlns:svg="http://www.w3.org/2000/svg">
  <sodipodi:namedview
     id="namedview43"
     pagecolor="#ffffff"
     bordercolor="#000000"
     borderopacity="0.25"
     inkscape:showpageshadow="2"
     inkscape:pageopacity="0.0"
     inkscape:pagecheckerboard="0"
     inkscape:deskcolor="#d1d1d1"
     inkscape:zoom="0.87659907"
     inkscape:cx="155.14504"
     inkscape:cy="140.88539"
     inkscape:window-width="2430"
     inkscape:window-height="1514"
     inkscape:window-x="3829"
     inkscape:window-y="-11"
     inkscape:window-maximized="1"
     inkscape:current-layer="Layer_1" />
  <defs
     id="defs1">
    <style
       id="style1">.cls-1{fill:#e0e8d2;}.cls-2{fill:#eb0045;}.cls-3{fill:#00bc70;}.cls-4{fill:#231f20;}</style>
  </defs>
  <path
     class="cls-1"
     d="m 41.3,128.7 a 92.19,92.19 0 0 0 128.71,20.79 l -6.14,-8.51 A 81.7,81.7 0 1 1 68.24,8.5 L 62.1,0 A 92.17,92.17 0 0 0 41.3,128.7 Z"
     id="path1" />
  <path
     class="cls-2"
     d="M 112.83,42.09 A 81.714353,81.714353 0 1 1 0,160.32 Z"
     id="path2" />
  <path
     class="cls-3"
     d="M 192.37,77.98 A 92.20896,92.20896 0 1 0 27.24,160.09 l -0.63,0.32 a 2.22,2.22 0 0 1 -3,-1.05 95.13,95.13 0 0 1 170.32,-84.67 2.2,2.2 0 0 1 -1,3 z"
     id="path3" />
  <ellipse
     class="cls-4"
     cx="-80.436638"
     cy="205.49815"
     rx="2.1700001"
     ry="4.9000001"
     transform="rotate(-60.07)"
     id="ellipse3" />
  <ellipse
     class="cls-4"
     cx="-114.07063"
     cy="179.87486"
     rx="2.1700001"
     ry="4.9000001"
     transform="rotate(-75.07)"
     id="ellipse4" />
  <ellipse
     class="cls-4"
     cx="146.48012"
     cy="139.92502"
     rx="4.9000001"
     ry="2.1700001"
     transform="rotate(-0.07)"
     id="ellipse5" />
  <ellipse
     class="cls-4"
     cx="107.48244"
     cy="156.24701"
     rx="4.9000001"
     ry="2.1700001"
     transform="rotate(-15.07)"
     id="ellipse6" />
  <ellipse
     class="cls-4"
     cx="65.593307"
     cy="161.91219"
     rx="4.9000001"
     ry="2.1700001"
     transform="rotate(-30.07)"
     id="ellipse7" />
  <ellipse
     class="cls-4"
     cx="23.663326"
     cy="156.55005"
     rx="4.9000001"
     ry="2.1700001"
     transform="rotate(-45.07)"
     id="ellipse8" />
  <ellipse
     class="cls-4"
     cx="-15.460394"
     cy="140.51776"
     rx="4.9000001"
     ry="2.1700001"
     transform="rotate(-60.07)"
     id="ellipse9" />
  <ellipse
     class="cls-4"
     cx="-49.089321"
     cy="114.90327"
     rx="4.9000001"
     ry="2.1700001"
     transform="rotate(-75.07)"
     id="ellipse10" />
  <ellipse
     class="cls-4"
     cx="81.510185"
     cy="74.945107"
     rx="2.1700001"
     ry="4.9000001"
     transform="rotate(-0.07)"
     id="ellipse11" />
  <ellipse
     class="cls-4"
     cx="42.499489"
     cy="91.260033"
     rx="2.1700001"
     ry="4.9000001"
     transform="rotate(-15.07)"
     id="ellipse12" />
  <ellipse
     class="cls-4"
     cx="0.61948317"
     cy="96.937805"
     rx="2.1700001"
     ry="4.9000001"
     transform="rotate(-30.07)"
     id="ellipse13" />
  <path
     class="cls-4"
     d="M 44.76,192 H 14.69 v 66.44 h 10.46 v -22.5 h 19.61 c 7.15,0 12.89,-2 17.06,-5.94 4.17,-3.94 6.34,-9.36 6.34,-16 0,-6.64 -2.13,-12.07 -6.34,-16 -4.21,-3.93 -9.92,-6 -17.06,-6 z m 12.94,22 c 0,3.82 -1.08,6.7 -3.3,8.81 -2.22,2.11 -5.62,3.17 -10.11,3.17 H 25.15 v -23.89 h 19.14 c 4.49,0 7.9,1.07 10.11,3.17 2.21,2.1 3.3,4.95 3.3,8.71 z"
     id="path13" />
  <path
     class="cls-4"
     d="m 103.46,213.09 a 21.51,21.51 0 0 0 -4.41,-3.15 22.51,22.51 0 0 0 -10.81,-2.47 23.58,23.58 0 0 0 -12.85,3.5 23.82,23.82 0 0 0 -8.52,9.36 29.65,29.65 0 0 0 0,25.95 23.12,23.12 0 0 0 21.37,12.91 22.39,22.39 0 0 0 10.77,-2.45 21.5,21.5 0 0 0 4.41,-3.12 v 4.82 h 10.3 v -50.21 h -10.3 z m -1.35,12 a 20.4,20.4 0 0 1 0,16.42 13.32,13.32 0 0 1 -12.88,8 14.53,14.53 0 0 1 -8,-2.18 14.36,14.36 0 0 1 -5.15,-5.87 19.41,19.41 0 0 1 0,-16.37 14,14 0 0 1 13.16,-8 13.37,13.37 0 0 1 12.89,8 z"
     id="path14" />
  <path
     class="cls-2"
     d="m 162.42,258.45 v -59.3 h -24.28 v -7.12 h 56.1 v 7.12 h -24.3 v 59.3 z"
     id="path15" />
  <path
     class="cls-2"
     d="m 194.71,259.25 a 25.32,25.32 0 0 1 -13.34,-3.46 24,24 0 0 1 -8.88,-9.39 27.19,27.19 0 0 1 -3.16,-13 28.22,28.22 0 0 1 3,-13.09 23.16,23.16 0 0 1 8.63,-9.33 27.18,27.18 0 0 1 26.54,0 23.22,23.22 0 0 1 8.57,9.33 28.22,28.22 0 0 1 3,13.09 v 3 h -42 a 20.41,20.41 0 0 0 2.86,8.08 16.54,16.54 0 0 0 6.07,5.82 17.54,17.54 0 0 0 8.82,2.15 16,16 0 0 0 8.92,-2.36 16.67,16.67 0 0 0 5.62,-6.07 h 8.23 a 24.59,24.59 0 0 1 -8.28,11 q -5.67,4.24 -14.6,4.23 z m -17.55,-29.9 h 34.08 a 18.65,18.65 0 0 0 -5.42,-10.74 q -4.41,-4.31 -11.64,-4.31 -7.23,0 -11.59,4.31 a 19.25,19.25 0 0 0 -5.43,10.74 z"
     id="path16" />
  <path
     class="cls-2"
     d="m 243.18,259.25 a 24.11,24.11 0 0 1 -13,-3.46 23.71,23.71 0 0 1 -8.58,-9.39 29.42,29.42 0 0 1 0,-26.13 23.75,23.75 0 0 1 8.58,-9.33 24,24 0 0 1 13,-3.46 24.91,24.91 0 0 1 15.2,4.61 22.59,22.59 0 0 1 8.48,11.94 h -8.13 a 15.49,15.49 0 0 0 -5.46,-7 15.11,15.11 0 0 0 -9.08,-2.71 17.35,17.35 0 0 0 -16,9.53 21.63,21.63 0 0 0 0,19 17.3,17.3 0 0 0 6.33,7 17.49,17.49 0 0 0 9.63,2.61 15.17,15.17 0 0 0 9.08,-2.7 15.52,15.52 0 0 0 5.46,-7 h 8.13 a 22.56,22.56 0 0 1 -8.48,11.94 24.92,24.92 0 0 1 -15.16,4.55 z"
     id="path17" />
  <path
     class="cls-2"
     d="m 266.13,258.45 v -70.24 h 7.52 v 27.88 a 25.64,25.64 0 0 1 6.62,-6.12 18.34,18.34 0 0 1 10,-2.5 20.45,20.45 0 0 1 9.78,2.45 19.05,19.05 0 0 1 7.42,7.33 23.26,23.26 0 0 1 2.86,12 v 29.2 h -7.52 v -29 q 0,-6.83 -3.91,-11 a 13.31,13.31 0 0 0 -10.14,-4.16 15.24,15.24 0 0 0 -7.62,1.91 14.43,14.43 0 0 0 -5.47,5.36 15.35,15.35 0 0 0 -2.06,8 v 28.9 z"
     id="path18" />
  <path
     class="cls-4"
     d="m 155.18,267.72 v 7.43 a 4,4 0 0 0 0.75,2.57 2.78,2.78 0 0 0 2.29,0.93 4.15,4.15 0 0 0 2.12,-0.58 6.09,6.09 0 0 0 1.77,-1.61 v -8.74 h 1.13 v 11.63 h -0.61 a 0.29,0.29 0 0 1 -0.39,-0.26 l -0.11,-1.73 a 6.69,6.69 0 0 1 -1.87,1.62 4.67,4.67 0 0 1 -2.35,0.6 4.41,4.41 0 0 1 -1.7,-0.3 3.16,3.16 0 0 1 -1.21,-0.88 3.78,3.78 0 0 1 -0.72,-1.38 6,6 0 0 1 -0.25,-1.82 v -7.43 z"
     id="path19" />
  <path
     class="cls-4"
     d="m 166.24,283.46 v -15.74 h 0.61 a 0.46,0.46 0 0 1 0.25,0.06 0.31,0.31 0 0 1 0.1,0.23 l 0.11,1.8 a 6.06,6.06 0 0 1 1.8,-1.67 4.48,4.48 0 0 1 2.32,-0.62 4,4 0 0 1 3.34,1.48 7,7 0 0 1 1.2,4.46 7.85,7.85 0 0 1 -0.34,2.37 5.6,5.6 0 0 1 -1,1.92 4.62,4.62 0 0 1 -1.59,1.28 4.8,4.8 0 0 1 -2.16,0.47 4.67,4.67 0 0 1 -2.06,-0.43 4.26,4.26 0 0 1 -1.5,-1.29 v 5.68 z m 4.88,-15 a 3.84,3.84 0 0 0 -2.1,0.6 5.81,5.81 0 0 0 -1.67,1.68 v 6.1 a 4,4 0 0 0 1.48,1.41 4.49,4.49 0 0 0 3.66,0 3.57,3.57 0 0 0 1.29,-1.06 5,5 0 0 0 0.78,-1.64 7.62,7.62 0 0 0 0.26,-2.09 6.26,6.26 0 0 0 -0.95,-3.82 3.29,3.29 0 0 0 -2.74,-1.22 z"
     id="path20" />
  <path
     class="cls-4"
     d="m 78.07,262.8 v 1 h -8.71 v 7 h 7.54 v 1 h -7.54 v 7.6 h -1.2 v -16.6 z"
     id="path21" />
  <path
     class="cls-4"
     d="m 80.07,279.34 v -11.63 h 0.58 a 0.46,0.46 0 0 1 0.29,0.08 0.42,0.42 0 0 1 0.1,0.28 l 0.09,2.46 a 5.54,5.54 0 0 1 1.5,-2.22 3.43,3.43 0 0 1 2.3,-0.8 4.23,4.23 0 0 1 1,0.11 3.84,3.84 0 0 1 0.84,0.32 l -0.15,0.77 a 0.21,0.21 0 0 1 -0.23,0.19 0.58,0.58 0 0 1 -0.2,0 l -0.32,-0.11 a 3.61,3.61 0 0 0 -0.48,-0.1 3.08,3.08 0 0 0 -0.64,-0.05 3,3 0 0 0 -2.17,0.82 5.84,5.84 0 0 0 -1.37,2.36 v 7.56 z"
     id="path22" />
  <path
     class="cls-4"
     d="m 93.24,267.52 a 4.91,4.91 0 0 1 1.82,0.34 4.16,4.16 0 0 1 1.45,1 4.51,4.51 0 0 1 1,1.59 6.4,6.4 0 0 1 0.34,2.18 0.51,0.51 0 0 1 -0.08,0.35 0.29,0.29 0 0 1 -0.23,0.09 h -8.4 v 0.22 a 8,8 0 0 0 0.31,2.31 4.74,4.74 0 0 0 0.86,1.66 3.54,3.54 0 0 0 1.36,1 4.42,4.42 0 0 0 1.78,0.34 5.19,5.19 0 0 0 1.51,-0.19 6,6 0 0 0 1.09,-0.43 5.63,5.63 0 0 0 0.69,-0.44 0.89,0.89 0 0 1 0.37,-0.19 0.27,0.27 0 0 1 0.24,0.12 l 0.3,0.37 a 3.22,3.22 0 0 1 -0.74,0.66 5.84,5.84 0 0 1 -1,0.52 7.4,7.4 0 0 1 -1.21,0.34 6.47,6.47 0 0 1 -1.31,0.13 5.45,5.45 0 0 1 -2.17,-0.42 4.47,4.47 0 0 1 -1.68,-1.2 5.43,5.43 0 0 1 -1.09,-1.95 8.24,8.24 0 0 1 -0.39,-2.64 7.07,7.07 0 0 1 0.36,-2.3 5.28,5.28 0 0 1 1,-1.83 4.6,4.6 0 0 1 1.65,-1.19 5.38,5.38 0 0 1 2.17,-0.44 z m 0,0.83 a 4.49,4.49 0 0 0 -1.61,0.28 3.47,3.47 0 0 0 -1.23,0.81 4,4 0 0 0 -0.84,1.26 5.55,5.55 0 0 0 -0.43,1.65 h 7.66 a 5.2,5.2 0 0 0 -0.26,-1.68 3.57,3.57 0 0 0 -0.72,-1.25 3.13,3.13 0 0 0 -1.12,-0.79 3.61,3.61 0 0 0 -1.4,-0.28 z"
     id="path23" />
  <path
     class="cls-4"
     d="m 107.51,269.16 a 0.27,0.27 0 0 1 -0.26,0.16 0.64,0.64 0 0 1 -0.33,-0.14 5.37,5.37 0 0 0 -0.54,-0.33 4.65,4.65 0 0 0 -0.82,-0.33 4.06,4.06 0 0 0 -1.18,-0.14 3.53,3.53 0 0 0 -1.16,0.18 2.85,2.85 0 0 0 -0.88,0.48 2.19,2.19 0 0 0 -0.58,0.71 1.86,1.86 0 0 0 -0.2,0.84 1.41,1.41 0 0 0 0.28,0.91 2.4,2.4 0 0 0 0.74,0.62 5.15,5.15 0 0 0 1,0.44 l 1.19,0.37 c 0.4,0.13 0.8,0.27 1.18,0.42 a 4.34,4.34 0 0 1 1,0.57 2.53,2.53 0 0 1 0.73,0.83 2.3,2.3 0 0 1 0.28,1.19 3.69,3.69 0 0 1 -0.27,1.41 3.14,3.14 0 0 1 -0.8,1.13 3.6,3.6 0 0 1 -1.28,0.76 4.87,4.87 0 0 1 -1.73,0.28 5.23,5.23 0 0 1 -2.11,-0.39 6,6 0 0 1 -1.59,-1 l 0.27,-0.4 a 0.44,0.44 0 0 1 0.13,-0.14 0.35,0.35 0 0 1 0.2,0 0.65,0.65 0 0 1 0.37,0.18 4.38,4.38 0 0 0 1.47,0.81 4.08,4.08 0 0 0 1.31,0.19 3.73,3.73 0 0 0 1.3,-0.21 2.67,2.67 0 0 0 0.93,-0.55 2.37,2.37 0 0 0 0.57,-0.83 2.58,2.58 0 0 0 0.19,-1 1.59,1.59 0 0 0 -0.28,-1 2.43,2.43 0 0 0 -0.73,-0.65 5.53,5.53 0 0 0 -1,-0.46 l -1.19,-0.37 c -0.41,-0.13 -0.81,-0.26 -1.19,-0.41 a 4.31,4.31 0 0 1 -1,-0.56 2.72,2.72 0 0 1 -0.73,-0.82 2.38,2.38 0 0 1 -0.28,-1.21 2.8,2.8 0 0 1 0.27,-1.2 2.93,2.93 0 0 1 0.76,-1 3.75,3.75 0 0 1 1.21,-0.69 4.75,4.75 0 0 1 1.6,-0.26 5.51,5.51 0 0 1 1.89,0.31 4.71,4.71 0 0 1 1.51,0.94 z"
     id="path24" />
  <path
     class="cls-4"
     d="m 111,279.34 v -17 h 1.11 v 7.37 a 6.74,6.74 0 0 1 1.84,-1.59 4.63,4.63 0 0 1 2.32,-0.59 4.25,4.25 0 0 1 1.69,0.31 3.13,3.13 0 0 1 1.21,0.87 4,4 0 0 1 0.72,1.38 6.43,6.43 0 0 1 0.25,1.83 v 7.43 h -1.11 v -7.43 a 4,4 0 0 0 -0.75,-2.57 2.76,2.76 0 0 0 -2.29,-0.93 4.07,4.07 0 0 0 -2.13,0.59 6.21,6.21 0 0 0 -1.75,1.62 v 8.72 z"
     id="path25" />
  <path
     class="cls-4"
     d="m 128.33,267.52 a 4.91,4.91 0 0 1 1.82,0.34 4.16,4.16 0 0 1 1.45,1 4.51,4.51 0 0 1 1,1.59 6.4,6.4 0 0 1 0.34,2.18 0.59,0.59 0 0 1 -0.07,0.35 0.31,0.31 0 0 1 -0.24,0.09 h -8.39 v 0.22 a 8,8 0 0 0 0.3,2.31 4.74,4.74 0 0 0 0.86,1.66 3.54,3.54 0 0 0 1.36,1 4.42,4.42 0 0 0 1.78,0.34 5.3,5.3 0 0 0 1.52,-0.19 6.22,6.22 0 0 0 1.08,-0.43 5.63,5.63 0 0 0 0.69,-0.44 0.86,0.86 0 0 1 0.38,-0.19 0.27,0.27 0 0 1 0.23,0.12 l 0.3,0.37 a 3,3 0 0 1 -0.74,0.66 5.84,5.84 0 0 1 -1,0.52 7.4,7.4 0 0 1 -1.21,0.34 6.47,6.47 0 0 1 -1.31,0.13 5.49,5.49 0 0 1 -2.24,-0.4 4.47,4.47 0 0 1 -1.68,-1.2 5.59,5.59 0 0 1 -1.09,-1.95 8.25,8.25 0 0 1 -0.38,-2.64 7.07,7.07 0 0 1 0.35,-2.3 5.28,5.28 0 0 1 1,-1.83 4.6,4.6 0 0 1 1.65,-1.19 5.38,5.38 0 0 1 2.24,-0.46 z m 0,0.83 a 4.49,4.49 0 0 0 -1.61,0.28 3.47,3.47 0 0 0 -1.23,0.81 4,4 0 0 0 -0.84,1.26 5.55,5.55 0 0 0 -0.43,1.65 h 7.66 a 5.2,5.2 0 0 0 -0.26,-1.68 3.57,3.57 0 0 0 -0.72,-1.25 3,3 0 0 0 -1.12,-0.79 3.61,3.61 0 0 0 -1.43,-0.28 z"
     id="path26" />
  <path
     class="cls-4"
     d="m 135.99,279.34 v -11.63 h 0.6 a 0.33,0.33 0 0 1 0.36,0.29 l 0.1,1.75 a 6.73,6.73 0 0 1 1.85,-1.61 4.62,4.62 0 0 1 2.36,-0.62 4.25,4.25 0 0 1 1.69,0.31 3.13,3.13 0 0 1 1.21,0.87 4.12,4.12 0 0 1 0.72,1.38 6.43,6.43 0 0 1 0.25,1.83 v 7.43 h -1.11 v -7.43 a 4,4 0 0 0 -0.75,-2.57 2.76,2.76 0 0 0 -2.29,-0.93 4.07,4.07 0 0 0 -2.13,0.59 6.21,6.21 0 0 0 -1.75,1.62 v 8.72 z"
     id="path27" />
  <path
     class="cls-4"
     d="m 155.18,267.72 v 7.43 a 4,4 0 0 0 0.75,2.57 2.78,2.78 0 0 0 2.29,0.93 4.15,4.15 0 0 0 2.12,-0.58 6.09,6.09 0 0 0 1.77,-1.61 v -8.74 h 1.13 v 11.63 h -0.61 a 0.29,0.29 0 0 1 -0.39,-0.26 l -0.11,-1.73 a 6.69,6.69 0 0 1 -1.87,1.62 4.67,4.67 0 0 1 -2.35,0.6 4.41,4.41 0 0 1 -1.7,-0.3 3.16,3.16 0 0 1 -1.21,-0.88 3.78,3.78 0 0 1 -0.72,-1.38 6,6 0 0 1 -0.25,-1.82 v -7.43 z"
     id="path28" />
  <path
     class="cls-4"
     d="m 166.24,283.46 v -15.74 h 0.61 a 0.46,0.46 0 0 1 0.25,0.06 0.31,0.31 0 0 1 0.1,0.23 l 0.11,1.8 a 6.06,6.06 0 0 1 1.8,-1.67 4.48,4.48 0 0 1 2.32,-0.62 4,4 0 0 1 3.34,1.48 7,7 0 0 1 1.2,4.46 7.85,7.85 0 0 1 -0.34,2.37 5.6,5.6 0 0 1 -1,1.92 4.62,4.62 0 0 1 -1.59,1.28 4.8,4.8 0 0 1 -2.16,0.47 4.67,4.67 0 0 1 -2.06,-0.43 4.26,4.26 0 0 1 -1.5,-1.29 v 5.68 z m 4.88,-15 a 3.84,3.84 0 0 0 -2.1,0.6 5.81,5.81 0 0 0 -1.67,1.68 v 6.1 a 4,4 0 0 0 1.48,1.41 4.49,4.49 0 0 0 3.66,0 3.57,3.57 0 0 0 1.29,-1.06 5,5 0 0 0 0.78,-1.64 7.62,7.62 0 0 0 0.26,-2.09 6.26,6.26 0 0 0 -0.95,-3.82 3.29,3.29 0 0 0 -2.74,-1.22 z"
     id="path29" />
  <path
     class="cls-4"
     d="m 186.24,283.09 a 0.86,0.86 0 0 1 -0.18,0.26 0.46,0.46 0 0 1 -0.32,0.11 h -0.8 l 2.05,-4.55 -4.92,-11.19 h 0.92 a 0.37,0.37 0 0 1 0.27,0.09 0.53,0.53 0 0 1 0.15,0.19 l 3.91,9 c 0.05,0.12 0.09,0.24 0.13,0.36 0.04,0.12 0.07,0.24 0.1,0.37 l 0.12,-0.37 0.13,-0.36 3.87,-9 a 0.58,0.58 0 0 1 0.17,-0.21 0.37,0.37 0 0 1 0.23,-0.07 h 0.85 z"
     id="path30" />
  <path
     class="cls-4"
     d="m 198.86,267.52 a 5.53,5.53 0 0 1 2.24,0.43 4.49,4.49 0 0 1 1.66,1.21 5.4,5.4 0 0 1 1,1.89 8.86,8.86 0 0 1 0,4.93 5.35,5.35 0 0 1 -1,1.88 4.38,4.38 0 0 1 -1.66,1.21 6.18,6.18 0 0 1 -4.48,0 4.49,4.49 0 0 1 -1.67,-1.21 5.35,5.35 0 0 1 -1,-1.88 8.62,8.62 0 0 1 0,-4.93 5.4,5.4 0 0 1 1,-1.89 4.61,4.61 0 0 1 1.67,-1.21 5.53,5.53 0 0 1 2.24,-0.43 z m 0,11.09 a 4.48,4.48 0 0 0 1.82,-0.35 3.41,3.41 0 0 0 1.29,-1 4.43,4.43 0 0 0 0.78,-1.6 8.69,8.69 0 0 0 0,-4.22 4.4,4.4 0 0 0 -0.78,-1.61 3.44,3.44 0 0 0 -1.29,-1 4.78,4.78 0 0 0 -3.64,0 3.36,3.36 0 0 0 -1.29,1 4.57,4.57 0 0 0 -0.79,1.61 8.69,8.69 0 0 0 0,4.22 4.61,4.61 0 0 0 0.79,1.6 3.34,3.34 0 0 0 1.29,1 4.48,4.48 0 0 0 1.82,0.35 z"
     id="path31" />
  <path
     class="cls-4"
     d="m 207.88,267.71 v 7.43 a 4,4 0 0 0 0.75,2.57 2.75,2.75 0 0 0 2.28,0.93 4.21,4.21 0 0 0 2.13,-0.58 6.35,6.35 0 0 0 1.77,-1.61 v -8.74 h 1.11 v 11.63 h -0.61 a 0.3,0.3 0 0 1 -0.34,-0.31 l -0.11,-1.73 a 6.65,6.65 0 0 1 -1.86,1.62 4.71,4.71 0 0 1 -2.36,0.6 4.45,4.45 0 0 1 -1.7,-0.3 3.12,3.12 0 0 1 -1.2,-0.88 4,4 0 0 1 -0.73,-1.38 6.32,6.32 0 0 1 -0.24,-1.82 v -7.43 z"
     id="path32" />
  <path
     class="cls-4"
     d="m 218.95,279.34 v -11.63 h 0.58 a 0.46,0.46 0 0 1 0.29,0.08 0.48,0.48 0 0 1 0.1,0.28 l 0.09,2.46 a 5.53,5.53 0 0 1 1.49,-2.22 3.47,3.47 0 0 1 2.31,-0.8 3.74,3.74 0 0 1 1.81,0.43 l -0.15,0.77 a 0.22,0.22 0 0 1 -0.24,0.19 0.51,0.51 0 0 1 -0.2,-0.05 l -0.32,-0.1 -0.47,-0.11 a 4.14,4.14 0 0 0 -0.64,0 3,3 0 0 0 -2.17,0.82 5.73,5.73 0 0 0 -1.37,2.36 v 7.56 z"
     id="path33" />
  <path
     class="cls-4"
     d="m 232.55,279.34 v -17 h 1.11 v 7.41 a 6.22,6.22 0 0 1 1.79,-1.62 4.42,4.42 0 0 1 2.29,-0.6 4.08,4.08 0 0 1 3.34,1.48 7,7 0 0 1 1.19,4.45 8.3,8.3 0 0 1 -0.33,2.38 5.66,5.66 0 0 1 -1,1.91 4.71,4.71 0 0 1 -1.59,1.28 4.88,4.88 0 0 1 -2.17,0.47 4.43,4.43 0 0 1 -2.1,-0.47 4.36,4.36 0 0 1 -1.51,-1.4 l -0.07,1.43 a 0.28,0.28 0 0 1 -0.31,0.29 z m 4.88,-10.93 a 3.84,3.84 0 0 0 -2.1,0.6 5.85,5.85 0 0 0 -1.67,1.66 v 6.13 a 4,4 0 0 0 1.47,1.41 4.57,4.57 0 0 0 3.67,0 3.57,3.57 0 0 0 1.29,-1.06 4.76,4.76 0 0 0 0.79,-1.63 8.16,8.16 0 0 0 0.26,-2.1 6.18,6.18 0 0 0 -1,-3.82 3.31,3.31 0 0 0 -2.71,-1.19 z"
     id="path34" />
  <path
     class="cls-4"
     d="m 245.84,267.71 v 7.43 a 4,4 0 0 0 0.75,2.57 2.78,2.78 0 0 0 2.29,0.93 4.17,4.17 0 0 0 2.12,-0.58 6.09,6.09 0 0 0 1.77,-1.61 v -8.74 h 1.11 v 11.63 h -0.64 c -0.22,0 -0.33,-0.1 -0.33,-0.31 l -0.11,-1.73 a 6.69,6.69 0 0 1 -1.87,1.62 4.67,4.67 0 0 1 -2.35,0.6 4.41,4.41 0 0 1 -1.7,-0.3 3.06,3.06 0 0 1 -1.21,-0.88 3.81,3.81 0 0 1 -0.72,-1.37 6.09,6.09 0 0 1 -0.25,-1.83 v -7.43 z"
     id="path35" />
  <path
     class="cls-4"
     d="m 263.38,269.16 a 0.26,0.26 0 0 1 -0.25,0.16 0.7,0.7 0 0 1 -0.34,-0.14 4.21,4.21 0 0 0 -0.53,-0.33 5,5 0 0 0 -0.82,-0.33 4.13,4.13 0 0 0 -1.19,-0.14 3.51,3.51 0 0 0 -1.15,0.18 2.91,2.91 0 0 0 -0.89,0.48 2.29,2.29 0 0 0 -0.57,0.71 1.74,1.74 0 0 0 -0.21,0.84 1.47,1.47 0 0 0 0.28,0.91 2.52,2.52 0 0 0 0.74,0.62 5.51,5.51 0 0 0 1,0.44 l 1.18,0.37 c 0.41,0.13 0.8,0.27 1.19,0.42 a 4.27,4.27 0 0 1 1,0.57 2.56,2.56 0 0 1 0.74,0.83 2.41,2.41 0 0 1 0.28,1.19 3.51,3.51 0 0 1 -0.28,1.41 3,3 0 0 1 -0.79,1.13 3.69,3.69 0 0 1 -1.28,0.76 4.91,4.91 0 0 1 -1.73,0.28 5.28,5.28 0 0 1 -2.12,-0.39 5.79,5.79 0 0 1 -1.58,-1 l 0.26,-0.4 a 0.6,0.6 0 0 1 0.13,-0.14 0.4,0.4 0 0 1 0.2,0 0.67,0.67 0 0 1 0.38,0.18 4.49,4.49 0 0 0 0.57,0.41 5,5 0 0 0 0.89,0.4 4.19,4.19 0 0 0 1.32,0.19 3.63,3.63 0 0 0 1.29,-0.21 2.63,2.63 0 0 0 0.94,-0.55 2.37,2.37 0 0 0 0.57,-0.83 2.78,2.78 0 0 0 0.19,-1 1.66,1.66 0 0 0 -0.28,-1 2.48,2.48 0 0 0 -0.74,-0.65 5.43,5.43 0 0 0 -1,-0.46 l -1.19,-0.37 c -0.41,-0.13 -0.81,-0.26 -1.2,-0.41 a 4.24,4.24 0 0 1 -1,-0.56 2.89,2.89 0 0 1 -0.74,-0.82 2.49,2.49 0 0 1 -0.28,-1.21 2.8,2.8 0 0 1 0.27,-1.2 3.09,3.09 0 0 1 0.77,-1 3.65,3.65 0 0 1 1.21,-0.69 4.71,4.71 0 0 1 1.6,-0.26 5.51,5.51 0 0 1 1.89,0.31 4.82,4.82 0 0 1 1.51,0.94 z"
     id="path36" />
  <path
     class="cls-4"
     d="m 268.08,263.7 a 0.86,0.86 0 0 1 -0.09,0.39 1,1 0 0 1 -0.23,0.32 1,1 0 0 1 -0.33,0.23 1,1 0 0 1 -0.39,0.08 1.06,1.06 0 0 1 -0.4,-0.08 1.09,1.09 0 0 1 -0.33,-0.23 1,1 0 0 1 -0.3,-0.71 1.1,1.1 0 0 1 0.08,-0.4 1,1 0 0 1 0.22,-0.33 1.09,1.09 0 0 1 0.33,-0.23 1.06,1.06 0 0 1 0.4,-0.08 1,1 0 0 1 0.39,0.08 1.14,1.14 0 0 1 0.56,0.56 0.93,0.93 0 0 1 0.09,0.4 z m -0.49,4 v 11.63 h -1.11 v -11.62 z"
     id="path37" />
  <path
     class="cls-4"
     d="m 270.61,279.34 v -11.63 h 0.63 a 0.32,0.32 0 0 1 0.35,0.29 l 0.1,1.75 a 6.63,6.63 0 0 1 1.86,-1.61 4.58,4.58 0 0 1 2.35,-0.62 4.25,4.25 0 0 1 1.69,0.31 3.13,3.13 0 0 1 1.21,0.87 4,4 0 0 1 0.72,1.38 6.43,6.43 0 0 1 0.25,1.83 v 7.43 h -1.13 v -7.43 a 4,4 0 0 0 -0.75,-2.57 2.76,2.76 0 0 0 -2.29,-0.93 4.12,4.12 0 0 0 -2.13,0.59 6.21,6.21 0 0 0 -1.75,1.62 v 8.72 z"
     id="path38" />
  <path
     class="cls-4"
     d="m 287.43,267.52 a 4.91,4.91 0 0 1 1.82,0.34 4.16,4.16 0 0 1 1.45,1 4.51,4.51 0 0 1 1,1.59 6.4,6.4 0 0 1 0.34,2.18 0.59,0.59 0 0 1 -0.07,0.35 0.3,0.3 0 0 1 -0.24,0.09 h -8.39 v 0.22 a 8,8 0 0 0 0.3,2.31 4.74,4.74 0 0 0 0.86,1.66 3.54,3.54 0 0 0 1.36,1 4.42,4.42 0 0 0 1.78,0.34 5.3,5.3 0 0 0 1.52,-0.19 5.26,5.26 0 0 0 1.77,-0.87 0.86,0.86 0 0 1 0.38,-0.19 0.26,0.26 0 0 1 0.23,0.12 l 0.3,0.37 a 3,3 0 0 1 -0.74,0.66 5.84,5.84 0 0 1 -1,0.52 7.13,7.13 0 0 1 -1.21,0.34 6.37,6.37 0 0 1 -1.3,0.13 5.5,5.5 0 0 1 -2.18,-0.42 4.55,4.55 0 0 1 -1.68,-1.2 5.59,5.59 0 0 1 -1.09,-1.95 8.25,8.25 0 0 1 -0.38,-2.64 7.35,7.35 0 0 1 0.35,-2.3 5.28,5.28 0 0 1 1,-1.83 4.6,4.6 0 0 1 1.65,-1.19 5.38,5.38 0 0 1 2.17,-0.44 z m 0,0.83 a 4.49,4.49 0 0 0 -1.61,0.28 3.66,3.66 0 0 0 -1.23,0.81 4,4 0 0 0 -0.84,1.26 5.87,5.87 0 0 0 -0.43,1.65 h 7.66 a 5.2,5.2 0 0 0 -0.26,-1.68 3.57,3.57 0 0 0 -0.72,-1.25 3,3 0 0 0 -1.12,-0.79 3.61,3.61 0 0 0 -1.43,-0.28 z"
     id="path39" />
  <path
     class="cls-4"
     d="m 300.95,269.16 a 0.26,0.26 0 0 1 -0.25,0.16 0.7,0.7 0 0 1 -0.34,-0.14 4.21,4.21 0 0 0 -0.53,-0.33 5,5 0 0 0 -0.82,-0.33 4.13,4.13 0 0 0 -1.19,-0.14 3.51,3.51 0 0 0 -1.15,0.18 2.91,2.91 0 0 0 -0.89,0.48 2.29,2.29 0 0 0 -0.57,0.71 1.74,1.74 0 0 0 -0.21,0.84 1.42,1.42 0 0 0 0.29,0.91 2.36,2.36 0 0 0 0.73,0.62 5.51,5.51 0 0 0 1,0.44 l 1.18,0.37 c 0.41,0.13 0.8,0.27 1.19,0.42 a 4.27,4.27 0 0 1 1,0.57 2.56,2.56 0 0 1 0.74,0.83 2.3,2.3 0 0 1 0.28,1.19 3.51,3.51 0 0 1 -0.28,1.41 3,3 0 0 1 -0.79,1.13 3.69,3.69 0 0 1 -1.28,0.76 4.91,4.91 0 0 1 -1.73,0.28 5.2,5.2 0 0 1 -2.11,-0.39 5.7,5.7 0 0 1 -1.59,-1 l 0.26,-0.4 a 0.6,0.6 0 0 1 0.13,-0.14 0.4,0.4 0 0 1 0.2,0 0.67,0.67 0 0 1 0.38,0.18 4.49,4.49 0 0 0 0.57,0.41 5,5 0 0 0 0.89,0.4 4.19,4.19 0 0 0 1.32,0.19 3.63,3.63 0 0 0 1.29,-0.21 2.63,2.63 0 0 0 0.94,-0.55 2.37,2.37 0 0 0 0.63,-0.92 2.78,2.78 0 0 0 0.19,-1 1.59,1.59 0 0 0 -0.28,-1 2.48,2.48 0 0 0 -0.74,-0.65 5.43,5.43 0 0 0 -1,-0.46 l -1.19,-0.37 c -0.41,-0.13 -0.81,-0.26 -1.2,-0.41 a 4.24,4.24 0 0 1 -1,-0.56 2.89,2.89 0 0 1 -0.74,-0.82 2.49,2.49 0 0 1 -0.28,-1.21 2.8,2.8 0 0 1 0.27,-1.2 3.09,3.09 0 0 1 0.77,-1 3.65,3.65 0 0 1 1.21,-0.69 4.71,4.71 0 0 1 1.6,-0.26 5.51,5.51 0 0 1 1.89,0.31 4.82,4.82 0 0 1 1.51,0.94 z"
     id="path40" />
  <path
     class="cls-4"
     d="m 309.88,269.16 a 0.27,0.27 0 0 1 -0.25,0.16 0.57,0.57 0 0 1 -0.31,-0.15 c -0.13,-0.09 -0.3,-0.2 -0.51,-0.32 a 3.49,3.49 0 0 0 -0.77,-0.33 3.61,3.61 0 0 0 -1.12,-0.15 3.1,3.1 0 0 0 -1.08,0.18 2.48,2.48 0 0 0 -0.84,0.49 2.16,2.16 0 0 0 -0.54,0.7 1.92,1.92 0 0 0 -0.19,0.85 1.55,1.55 0 0 0 0.26,0.91 2.35,2.35 0 0 0 0.7,0.62 5.45,5.45 0 0 0 1,0.44 l 1.12,0.37 c 0.38,0.13 0.76,0.27 1.12,0.42 a 3.87,3.87 0 0 1 1,0.57 2.56,2.56 0 0 1 0.7,0.83 2.52,2.52 0 0 1 0.26,1.19 3.61,3.61 0 0 1 -0.26,1.41 3.15,3.15 0 0 1 -0.75,1.14 3.47,3.47 0 0 1 -1.2,0.76 4.39,4.39 0 0 1 -1.63,0.28 4.73,4.73 0 0 1 -2,-0.39 5.69,5.69 0 0 1 -1.5,-1 l 0.26,-0.4 a 0.28,0.28 0 0 1 0.12,-0.14 0.33,0.33 0 0 1 0.19,-0.05 0.58,0.58 0 0 1 0.35,0.19 4.16,4.16 0 0 0 1.38,0.8 4,4 0 0 0 2.46,0 2.65,2.65 0 0 0 0.89,-0.56 2.37,2.37 0 0 0 0.5,-0.89 2.81,2.81 0 0 0 0.18,-1 1.71,1.71 0 0 0 -0.26,-1 2.33,2.33 0 0 0 -0.7,-0.66 4.84,4.84 0 0 0 -1,-0.46 l -1.13,-0.37 c -0.38,-0.13 -0.76,-0.26 -1.12,-0.41 a 3.85,3.85 0 0 1 -1,-0.56 2.67,2.67 0 0 1 -0.7,-0.83 2.44,2.44 0 0 1 -0.26,-1.21 2.89,2.89 0 0 1 0.25,-1.19 3.12,3.12 0 0 1 0.72,-1 3.56,3.56 0 0 1 1.14,-0.68 4,4 0 0 1 1.51,-0.26 4.71,4.71 0 0 1 1.78,0.31 4.33,4.33 0 0 1 1.43,0.94 z"
     id="path41" />
  <path
     class="cls-4"
     d="m 155.18,267.71 v 7.43 a 4,4 0 0 0 0.75,2.57 2.78,2.78 0 0 0 2.29,0.93 4.15,4.15 0 0 0 2.12,-0.58 6.09,6.09 0 0 0 1.77,-1.61 v -8.74 h 1.13 v 11.63 h -0.61 c -0.21,0 -0.33,-0.1 -0.33,-0.31 l -0.11,-1.73 a 6.53,6.53 0 0 1 -1.87,1.62 4.67,4.67 0 0 1 -2.35,0.6 4.41,4.41 0 0 1 -1.7,-0.3 3.06,3.06 0 0 1 -1.21,-0.88 3.81,3.81 0 0 1 -0.72,-1.37 6.09,6.09 0 0 1 -0.25,-1.83 v -7.43 z"
     id="path42" />
  <path
     class="cls-4"
     d="m 166.24,283.45 v -15.74 h 0.61 a 0.46,0.46 0 0 1 0.25,0.06 0.31,0.31 0 0 1 0.1,0.23 l 0.11,1.8 a 6.06,6.06 0 0 1 1.8,-1.67 4.48,4.48 0 0 1 2.32,-0.62 4,4 0 0 1 3.34,1.49 7,7 0 0 1 1.2,4.45 8,8 0 0 1 -0.34,2.38 5.65,5.65 0 0 1 -1,1.91 4.62,4.62 0 0 1 -1.59,1.28 4.8,4.8 0 0 1 -2.16,0.47 4.54,4.54 0 0 1 -2.06,-0.43 4.26,4.26 0 0 1 -1.5,-1.29 v 5.68 z m 4.88,-15 a 3.84,3.84 0 0 0 -2.1,0.6 5.81,5.81 0 0 0 -1.67,1.68 v 6.1 a 3.67,3.67 0 0 0 3.34,1.82 4.11,4.11 0 0 0 1.8,-0.37 3.57,3.57 0 0 0 1.29,-1.06 4.94,4.94 0 0 0 0.78,-1.63 7.75,7.75 0 0 0 0.26,-2.1 6.26,6.26 0 0 0 -0.95,-3.82 3.29,3.29 0 0 0 -2.74,-1.26 z"
     id="path43" />
  <polygon
     class="cls-4"
     points="403.9,380.62 392.65,364.14 379.52,364.14 397.73,388.49 378.39,414.35 391.42,414.35 403.9,396.42 416.29,414.35 429.43,414.35 409.98,388.49 428.19,364.14 415.06,364.14 "
     id="polygon43"
     transform="translate(-265.76,-155.91)" />
</svg>
