<?xml version="1.0" encoding="UTF-8" standalone="no"?>
<svg
   id="Layer_1"
   data-name="Layer 1"
   viewBox="0 0 424.48266 141.75314"
   version="1.1"
   sodipodi:docname="PaxTech-Horizontal.svg"
   width="424.48267"
   height="141.75314"
   inkscape:version="1.3.2 (091e20e, 2023-11-25, custom)"
   xmlns:inkscape="http://www.inkscape.org/namespaces/inkscape"
   xmlns:sodipodi="http://sodipodi.sourceforge.net/DTD/sodipodi-0.dtd"
   xmlns="http://www.w3.org/2000/svg"
   xmlns:svg="http://www.w3.org/2000/svg">
  <sodipodi:namedview
     id="namedview18"
     pagecolor="#ffffff"
     bordercolor="#000000"
     borderopacity="0.25"
     inkscape:showpageshadow="2"
     inkscape:pageopacity="0.0"
     inkscape:pagecheckerboard="0"
     inkscape:deskcolor="#d1d1d1"
     inkscape:zoom="2.5514022"
     inkscape:cx="212.04027"
     inkscape:cy="70.745413"
     inkscape:window-width="3840"
     inkscape:window-height="2054"
     inkscape:window-x="-11"
     inkscape:window-y="-11"
     inkscape:window-maximized="1"
     inkscape:current-layer="Layer_1" />
  <defs
     id="defs1">
    <style
       id="style1">.cls-1{fill:#e0e8d2;}.cls-2{fill:#eb0045;}.cls-3{fill:#00bc70;}.cls-4{fill:#231f20;}</style>
  </defs>
  <path
     class="cls-1"
     d="m 32,99.73 a 71.42,71.42 0 0 0 99.72,16.11 l -4.76,-6.6 A 63.300538,63.300538 0 0 1 52.86,6.59 L 48.1,0 A 71.43,71.43 0 0 0 32,99.73 Z"
     id="path1" />
  <path
     class="cls-2"
     d="M 87.42,32.66 A 63.303145,63.303145 0 1 1 0,124.24 Z"
     id="path2" />
  <path
     class="cls-3"
     d="m 149.05,60.43 a 71.43,71.43 0 0 0 -127.92,63.6 l -0.49,0.24 a 1.71,1.71 0 0 1 -2.31,-0.8 73.71,73.71 0 0 1 132,-65.61 1.72,1.72 0 0 1 -0.75,2.33 z"
     id="path3" />
  <ellipse
     cx="-62.326645"
     cy="159.21776"
     rx="1.6799999"
     ry="3.8"
     transform="rotate(-60.07)"
     id="ellipse3" />
  <ellipse
     cx="-88.394325"
     cy="139.38153"
     rx="1.6799999"
     ry="3.8"
     transform="rotate(-75.07)"
     id="ellipse4" />
  <ellipse
     cx="113.50675"
     cy="108.42473"
     rx="3.8"
     ry="1.6799999"
     transform="rotate(-0.07)"
     id="ellipse5" />
  <ellipse
     cx="83.281113"
     cy="121.06831"
     rx="3.8"
     ry="1.6799999"
     transform="rotate(-15.07)"
     id="ellipse6" />
  <ellipse
     cx="50.8293"
     cy="125.46609"
     rx="3.8"
     ry="1.6799999"
     transform="rotate(-30.07)"
     id="ellipse7" />
  <ellipse
     cx="18.331606"
     cy="121.30624"
     rx="3.8"
     ry="1.6799999"
     transform="rotate(-45.07)"
     id="ellipse8" />
  <ellipse
     cx="-10.816551"
     cy="109.64612"
     rx="3.8130875"
     ry="1.685786"
     transform="rotate(-60.113473)"
     id="ellipse9"
     style="stroke-width:1.00344" />
  <ellipse
     cx="-38.044559"
     cy="89.030296"
     rx="3.8"
     ry="1.6799999"
     transform="rotate(-75.07)"
     id="ellipse10" />
  <ellipse
     cx="62.880013"
     cy="58.329998"
     rx="1.6799999"
     ry="3.8"
     id="ellipse11" />
  <ellipse
     cx="32.943851"
     cy="70.723091"
     rx="1.6799999"
     ry="3.8"
     transform="rotate(-15.07)"
     id="ellipse12" />
  <ellipse
     cx="0.47279692"
     cy="75.121269"
     rx="1.6799999"
     ry="3.8"
     transform="rotate(-30.07)"
     id="ellipse13" />
  <path
     class="cls-4"
     d="m 169.29,69.24 h -28.85 v 63.82 h 10.05 v -21.65 h 18.8 c 6.87,0 12.38,-1.92 16.39,-5.7 4.01,-3.78 6.09,-9 6.09,-15.4 0,-6.4 -2.05,-11.59 -6.09,-15.4 -4.04,-3.81 -9.5,-5.67 -16.39,-5.67 z m 12.43,21.1 c 0,3.67 -1,6.44 -3.17,8.47 -2.17,2.03 -5.39,3 -9.71,3 H 150.49 V 78.89 h 18.38 c 4.32,0 7.59,1 9.71,3.05 2.12,2.05 3.17,4.76 3.17,8.37 z"
     id="path13" />
  <path
     class="cls-4"
     d="m 225.71,89.45 a 20.68,20.68 0 0 0 -4.23,-3 21.53,21.53 0 0 0 -10.36,-2.36 22.33,22.33 0 0 0 -20.52,12.35 28.5,28.5 0 0 0 0,24.93 22.22,22.22 0 0 0 20.52,12.4 21.65,21.65 0 0 0 10.36,-2.35 20.71,20.71 0 0 0 4.23,-3 v 4.63 h 9.89 V 84.79 h -9.89 z m -1.3,11.55 a 19.58,19.58 0 0 1 0,15.78 12.79,12.79 0 0 1 -12.38,7.71 13.46,13.46 0 0 1 -12.67,-7.73 18.74,18.74 0 0 1 0,-15.73 13.47,13.47 0 0 1 12.67,-7.69 12.81,12.81 0 0 1 12.38,7.66 z"
     id="path14" />
  <path
     class="cls-2"
     d="m 282.34,133.03 v -57 h -23.32 v -6.79 h 53.88 v 6.84 h -23.33 v 57 z"
     id="path15" />
  <path
     class="cls-2"
     d="m 313.37,133.81 a 24.25,24.25 0 0 1 -12.82,-3.33 23.1,23.1 0 0 1 -8.53,-9 26.23,26.23 0 0 1 -3,-12.53 27.13,27.13 0 0 1 2.9,-12.58 22.29,22.29 0 0 1 8.29,-9 26.05,26.05 0 0 1 25.49,0 22.45,22.45 0 0 1 8.24,9 27.25,27.25 0 0 1 2.89,12.58 v 2.89 h -40.42 a 19.69,19.69 0 0 0 2.74,7.76 16,16 0 0 0 5.83,5.59 17,17 0 0 0 8.49,2.07 15.35,15.35 0 0 0 8.57,-2.26 16,16 0 0 0 5.4,-5.84 h 7.9 a 23.62,23.62 0 0 1 -7.95,10.56 q -5.44,4.08 -14.02,4.09 z M 296.5,105.08 h 32.79 a 17.91,17.91 0 0 0 -5.2,-10.31 q -4.24,-4.14 -11.18,-4.14 -6.94,0 -11.13,4.14 a 18.53,18.53 0 0 0 -5.28,10.31 z"
     id="path16" />
  <path
     class="cls-2"
     d="m 359.93,133.81 a 23.05,23.05 0 0 1 -12.53,-3.33 22.75,22.75 0 0 1 -8.24,-9 28.28,28.28 0 0 1 0,-25.11 22.81,22.81 0 0 1 8.24,-9 23.05,23.05 0 0 1 12.53,-3.33 23.93,23.93 0 0 1 14.6,4.44 21.67,21.67 0 0 1 8.14,11.47 h -7.8 a 14.91,14.91 0 0 0 -5.26,-6.75 14.48,14.48 0 0 0 -8.72,-2.6 16.61,16.61 0 0 0 -15.32,9.15 20.74,20.74 0 0 0 0,18.27 16.6,16.6 0 0 0 6.07,6.69 16.82,16.82 0 0 0 9.25,2.53 14.54,14.54 0 0 0 8.72,-2.6 15,15 0 0 0 5.26,-6.75 h 7.8 a 21.67,21.67 0 0 1 -8.14,11.47 23.93,23.93 0 0 1 -14.6,4.45 z"
     id="path17" />
  <path
     class="cls-2"
     d="M 381.97,133.03 V 65.57 h 7.23 v 26.79 a 24.16,24.16 0 0 1 6.36,-5.88 17.6,17.6 0 0 1 9.63,-2.41 19.44,19.44 0 0 1 9.4,2.37 18.25,18.25 0 0 1 7.14,7 22.43,22.43 0 0 1 2.74,11.52 v 28 h -7.18 v -27.78 q 0,-6.56 -3.76,-10.55 a 12.73,12.73 0 0 0 -9.73,-4 14.73,14.73 0 0 0 -7.32,1.83 14,14 0 0 0 -5.26,5.15 14.82,14.82 0 0 0 -2,7.67 v 27.75 z"
     id="path18" />
  <polygon
     class="cls-4"
     points="467.73,327.38 456.93,311.55 444.31,311.55 461.81,334.95 443.23,359.79 455.74,359.79 467.73,342.57 479.63,359.79 492.25,359.79 473.57,334.95 491.07,311.55 478.45,311.55 "
     id="polygon18"
     transform="translate(-208.71,-226.76)" />
</svg>
