<svg id="Layer_1" data-name="Layer 1" xmlns="http://www.w3.org/2000/svg" viewBox="0 0 841.89 595.28"><defs><style>.cls-1{fill:#e0e8d2;}.cls-2{fill:#eb0045;}.cls-3{fill:#00bc70;}.cls-4{fill:#231f20;}</style></defs><path class="cls-1" d="M307.06,284.61A92.19,92.19,0,0,0,435.77,305.4l-6.14-8.51A81.7,81.7,0,1,1,334,164.41l-6.14-8.5A92.17,92.17,0,0,0,307.06,284.61Z"/><path class="cls-2" d="M378.59,198A81.7,81.7,0,1,1,265.76,316.23Z"/><path class="cls-3" d="M458.13,233.89A92.19,92.19,0,1,0,293,316l-.63.32a2.22,2.22,0,0,1-3-1.05,95.13,95.13,0,0,1,170.32-84.67,2.2,2.2,0,0,1-1,3Z"/><ellipse class="cls-4" cx="403.73" cy="328.19" rx="2.17" ry="4.9" transform="translate(-82.14 514.29) rotate(-60.07)"/><ellipse class="cls-4" cx="410.2" cy="312.51" rx="2.17" ry="4.9" transform="translate(2.53 628.31) rotate(-75.07)"/><ellipse class="cls-4" cx="412.39" cy="295.69" rx="4.9" ry="2.17" transform="translate(-0.34 0.47) rotate(-0.07)"/><ellipse class="cls-4" cx="410.16" cy="278.87" rx="4.9" ry="2.17" transform="translate(-58.39 116.2) rotate(-15.07)"/><ellipse class="cls-4" cx="403.65" cy="263.2" rx="4.9" ry="2.17" transform="translate(-77.55 237.64) rotate(-30.07)"/><ellipse class="cls-4" cx="393.31" cy="249.76" rx="4.9" ry="2.17" transform="translate(-61.29 351.78) rotate(-45.07)"/><ellipse class="cls-4" cx="379.84" cy="239.45" rx="4.9" ry="2.17" transform="translate(-17.21 449.13) rotate(-60.07)"/><ellipse class="cls-4" cx="364.16" cy="232.97" rx="4.9" ry="2.17" transform="translate(45.21 524.79) rotate(-75.07)"/><ellipse class="cls-4" cx="347.34" cy="230.78" rx="2.17" ry="4.9" transform="translate(-0.26 0.4) rotate(-0.07)"/><ellipse class="cls-4" cx="330.52" cy="233.01" rx="2.17" ry="4.9" transform="translate(-49.21 93.92) rotate(-15.07)"/><ellipse class="cls-4" cx="314.86" cy="239.52" rx="2.17" ry="4.9" transform="translate(-77.63 189.97) rotate(-30.07)"/><path class="cls-4" d="M310.52,347.91H280.45v66.44h10.46v-22.5h19.61c7.15,0,12.89-2,17.06-5.94s6.34-9.36,6.34-16-2.13-12.07-6.34-16S317.66,347.91,310.52,347.91Zm12.94,22c0,3.82-1.08,6.7-3.3,8.81s-5.62,3.17-10.11,3.17H290.91V358h19.14c4.49,0,7.9,1.07,10.11,3.17S323.46,366.12,323.46,369.88Z"/><path class="cls-4" d="M369.22,369a21.51,21.51,0,0,0-4.41-3.15A22.51,22.51,0,0,0,354,363.38a23.58,23.58,0,0,0-12.85,3.5,23.82,23.82,0,0,0-8.52,9.36,29.65,29.65,0,0,0,0,25.95A23.12,23.12,0,0,0,354,415.1a22.39,22.39,0,0,0,10.77-2.45,21.5,21.5,0,0,0,4.41-3.12v4.82h10.3V364.14h-10.3Zm-1.35,12a20.4,20.4,0,0,1,0,16.42,13.32,13.32,0,0,1-12.88,8,14.53,14.53,0,0,1-8-2.18,14.36,14.36,0,0,1-5.15-5.87,19.41,19.41,0,0,1,0-16.37A14,14,0,0,1,355,373a13.37,13.37,0,0,1,12.89,8Z"/><path class="cls-2" d="M428.18,414.36v-59.3H403.9v-7.12H460v7.12H435.7v59.3Z"/><path class="cls-2" d="M460.47,415.16a25.32,25.32,0,0,1-13.34-3.46,24,24,0,0,1-8.88-9.39,27.19,27.19,0,0,1-3.16-13,28.22,28.22,0,0,1,3-13.09,23.16,23.16,0,0,1,8.63-9.33,27.18,27.18,0,0,1,26.54,0,23.22,23.22,0,0,1,8.57,9.33,28.22,28.22,0,0,1,3,13.09v3h-42a20.41,20.41,0,0,0,2.86,8.08,16.54,16.54,0,0,0,6.07,5.82,17.54,17.54,0,0,0,8.82,2.15A16,16,0,0,0,469.5,406a16.67,16.67,0,0,0,5.62-6.07h8.23a24.59,24.59,0,0,1-8.28,11Q469.4,415.17,460.47,415.16Zm-17.55-29.9H477a18.65,18.65,0,0,0-5.42-10.74q-4.41-4.31-11.64-4.31t-11.59,4.31A19.25,19.25,0,0,0,442.92,385.26Z"/><path class="cls-2" d="M508.94,415.16a24.11,24.11,0,0,1-13-3.46,23.71,23.71,0,0,1-8.58-9.39,29.42,29.42,0,0,1,0-26.13,23.75,23.75,0,0,1,8.58-9.33,24,24,0,0,1,13-3.46,24.91,24.91,0,0,1,15.2,4.61,22.59,22.59,0,0,1,8.48,11.94h-8.13a15.49,15.49,0,0,0-5.46-7,15.11,15.11,0,0,0-9.08-2.71,17.35,17.35,0,0,0-16,9.53,21.63,21.63,0,0,0,0,19,17.3,17.3,0,0,0,6.33,7,17.49,17.49,0,0,0,9.63,2.61,15.17,15.17,0,0,0,9.08-2.7,15.52,15.52,0,0,0,5.46-7h8.13a22.56,22.56,0,0,1-8.48,11.94A24.92,24.92,0,0,1,508.94,415.16Z"/><path class="cls-2" d="M531.89,414.36V344.12h7.52V372a25.64,25.64,0,0,1,6.62-6.12,18.34,18.34,0,0,1,10-2.5,20.45,20.45,0,0,1,9.78,2.45,19.05,19.05,0,0,1,7.42,7.33,23.26,23.26,0,0,1,2.86,12v29.2h-7.52v-29q0-6.83-3.91-11a13.31,13.31,0,0,0-10.14-4.16,15.24,15.24,0,0,0-7.62,1.91,14.43,14.43,0,0,0-5.47,5.36,15.35,15.35,0,0,0-2.06,8v28.9Z"/><path class="cls-4" d="M420.94,423.63v7.43a4,4,0,0,0,.75,2.57,2.78,2.78,0,0,0,2.29.93,4.15,4.15,0,0,0,2.12-.58,6.09,6.09,0,0,0,1.77-1.61v-8.74H429v11.63h-.61A.29.29,0,0,1,428,435l-.11-1.73a6.69,6.69,0,0,1-1.87,1.62,4.67,4.67,0,0,1-2.35.6,4.41,4.41,0,0,1-1.7-.3,3.16,3.16,0,0,1-1.21-.88,3.78,3.78,0,0,1-.72-1.38,6,6,0,0,1-.25-1.82v-7.43Z"/><path class="cls-4" d="M432,439.37V423.63h.61a.46.46,0,0,1,.25.06.31.31,0,0,1,.1.23l.11,1.8a6.06,6.06,0,0,1,1.8-1.67,4.48,4.48,0,0,1,2.32-.62,4,4,0,0,1,3.34,1.48,7,7,0,0,1,1.2,4.46,7.85,7.85,0,0,1-.34,2.37,5.6,5.6,0,0,1-1,1.92,4.62,4.62,0,0,1-1.59,1.28,4.8,4.8,0,0,1-2.16.47,4.67,4.67,0,0,1-2.06-.43,4.26,4.26,0,0,1-1.5-1.29v5.68Zm4.88-15a3.84,3.84,0,0,0-2.1.6,5.81,5.81,0,0,0-1.67,1.68v6.1a4,4,0,0,0,1.48,1.41,4.49,4.49,0,0,0,3.66,0,3.57,3.57,0,0,0,1.29-1.06,5,5,0,0,0,.78-1.64,7.62,7.62,0,0,0,.26-2.09,6.26,6.26,0,0,0-.95-3.82A3.29,3.29,0,0,0,436.89,424.33Z"/><path class="cls-4" d="M343.83,418.71v1h-8.71v7h7.54v1h-7.54v7.6h-1.2V418.71Z"/><path class="cls-4" d="M345.83,435.25V423.62h.58a.46.46,0,0,1,.29.08.42.42,0,0,1,.1.28l.09,2.46a5.54,5.54,0,0,1,1.5-2.22,3.43,3.43,0,0,1,2.3-.8,4.23,4.23,0,0,1,1,.11,3.84,3.84,0,0,1,.84.32l-.15.77a.21.21,0,0,1-.23.19.58.58,0,0,1-.2,0l-.32-.11a3.61,3.61,0,0,0-.48-.1,3.08,3.08,0,0,0-.64-.05,3,3,0,0,0-2.17.82,5.84,5.84,0,0,0-1.37,2.36v7.56Z"/><path class="cls-4" d="M359,423.43a4.91,4.91,0,0,1,1.82.34,4.16,4.16,0,0,1,1.45,1,4.51,4.51,0,0,1,1,1.59,6.4,6.4,0,0,1,.34,2.18.51.51,0,0,1-.08.35.29.29,0,0,1-.23.09h-8.4v.22a8,8,0,0,0,.31,2.31,4.74,4.74,0,0,0,.86,1.66,3.54,3.54,0,0,0,1.36,1,4.42,4.42,0,0,0,1.78.34,5.19,5.19,0,0,0,1.51-.19,6,6,0,0,0,1.09-.43,5.63,5.63,0,0,0,.69-.44.89.89,0,0,1,.37-.19.27.27,0,0,1,.24.12l.3.37a3.22,3.22,0,0,1-.74.66,5.84,5.84,0,0,1-1,.52,7.4,7.4,0,0,1-1.21.34,6.47,6.47,0,0,1-1.31.13,5.45,5.45,0,0,1-2.17-.42,4.47,4.47,0,0,1-1.68-1.2,5.43,5.43,0,0,1-1.09-1.95,8.24,8.24,0,0,1-.39-2.64,7.07,7.07,0,0,1,.36-2.3,5.28,5.28,0,0,1,1-1.83,4.6,4.6,0,0,1,1.65-1.19A5.38,5.38,0,0,1,359,423.43Zm0,.83a4.49,4.49,0,0,0-1.61.28,3.47,3.47,0,0,0-1.23.81,4,4,0,0,0-.84,1.26,5.55,5.55,0,0,0-.43,1.65h7.66a5.2,5.2,0,0,0-.26-1.68,3.57,3.57,0,0,0-.72-1.25,3.13,3.13,0,0,0-1.12-.79A3.61,3.61,0,0,0,359.05,424.26Z"/><path class="cls-4" d="M373.27,425.07a.27.27,0,0,1-.26.16.64.64,0,0,1-.33-.14,5.37,5.37,0,0,0-.54-.33,4.65,4.65,0,0,0-.82-.33,4.06,4.06,0,0,0-1.18-.14,3.53,3.53,0,0,0-1.16.18,2.85,2.85,0,0,0-.88.48,2.19,2.19,0,0,0-.58.71,1.86,1.86,0,0,0-.2.84,1.41,1.41,0,0,0,.28.91,2.4,2.4,0,0,0,.74.62,5.15,5.15,0,0,0,1,.44l1.19.37c.4.13.8.27,1.18.42a4.34,4.34,0,0,1,1,.57,2.53,2.53,0,0,1,.73.83,2.3,2.3,0,0,1,.28,1.19,3.69,3.69,0,0,1-.27,1.41,3.14,3.14,0,0,1-.8,1.13,3.6,3.6,0,0,1-1.28.76,4.87,4.87,0,0,1-1.73.28,5.23,5.23,0,0,1-2.11-.39,6,6,0,0,1-1.59-1l.27-.4a.44.44,0,0,1,.13-.14.35.35,0,0,1,.2,0,.65.65,0,0,1,.37.18,4.38,4.38,0,0,0,1.47.81,4.08,4.08,0,0,0,1.31.19,3.73,3.73,0,0,0,1.3-.21,2.67,2.67,0,0,0,.93-.55,2.37,2.37,0,0,0,.57-.83,2.58,2.58,0,0,0,.19-1,1.59,1.59,0,0,0-.28-1,2.43,2.43,0,0,0-.73-.65,5.53,5.53,0,0,0-1-.46l-1.19-.37c-.41-.13-.81-.26-1.19-.41a4.31,4.31,0,0,1-1-.56,2.72,2.72,0,0,1-.73-.82,2.38,2.38,0,0,1-.28-1.21,2.8,2.8,0,0,1,.27-1.2,2.93,2.93,0,0,1,.76-1,3.75,3.75,0,0,1,1.21-.69,4.75,4.75,0,0,1,1.6-.26,5.51,5.51,0,0,1,1.89.31,4.71,4.71,0,0,1,1.51.94Z"/><path class="cls-4" d="M376.76,435.25v-17h1.11v7.37a6.74,6.74,0,0,1,1.84-1.59,4.63,4.63,0,0,1,2.32-.59,4.25,4.25,0,0,1,1.69.31,3.13,3.13,0,0,1,1.21.87,4,4,0,0,1,.72,1.38,6.43,6.43,0,0,1,.25,1.83v7.43h-1.11v-7.43a4,4,0,0,0-.75-2.57,2.76,2.76,0,0,0-2.29-.93,4.07,4.07,0,0,0-2.13.59,6.21,6.21,0,0,0-1.75,1.62v8.72Z"/><path class="cls-4" d="M394.09,423.43a4.91,4.91,0,0,1,1.82.34,4.16,4.16,0,0,1,1.45,1,4.51,4.51,0,0,1,1,1.59,6.4,6.4,0,0,1,.34,2.18.59.59,0,0,1-.07.35.31.31,0,0,1-.24.09H390v.22a8,8,0,0,0,.3,2.31,4.74,4.74,0,0,0,.86,1.66,3.54,3.54,0,0,0,1.36,1,4.42,4.42,0,0,0,1.78.34,5.3,5.3,0,0,0,1.52-.19,6.22,6.22,0,0,0,1.08-.43,5.63,5.63,0,0,0,.69-.44.86.86,0,0,1,.38-.19.27.27,0,0,1,.23.12l.3.37a3,3,0,0,1-.74.66,5.84,5.84,0,0,1-1,.52,7.4,7.4,0,0,1-1.21.34,6.47,6.47,0,0,1-1.31.13A5.49,5.49,0,0,1,392,435a4.47,4.47,0,0,1-1.68-1.2,5.59,5.59,0,0,1-1.09-1.95,8.25,8.25,0,0,1-.38-2.64,7.07,7.07,0,0,1,.35-2.3,5.28,5.28,0,0,1,1-1.83,4.6,4.6,0,0,1,1.65-1.19A5.38,5.38,0,0,1,394.09,423.43Zm0,.83a4.49,4.49,0,0,0-1.61.28,3.47,3.47,0,0,0-1.23.81,4,4,0,0,0-.84,1.26,5.55,5.55,0,0,0-.43,1.65h7.66a5.2,5.2,0,0,0-.26-1.68,3.57,3.57,0,0,0-.72-1.25,3,3,0,0,0-1.12-.79A3.61,3.61,0,0,0,394.11,424.26Z"/><path class="cls-4" d="M401.75,435.25V423.62h.6a.33.33,0,0,1,.36.29l.1,1.75a6.73,6.73,0,0,1,1.85-1.61,4.62,4.62,0,0,1,2.36-.62,4.25,4.25,0,0,1,1.69.31,3.13,3.13,0,0,1,1.21.87,4.12,4.12,0,0,1,.72,1.38,6.43,6.43,0,0,1,.25,1.83v7.43h-1.11v-7.43a4,4,0,0,0-.75-2.57,2.76,2.76,0,0,0-2.29-.93,4.07,4.07,0,0,0-2.13.59,6.21,6.21,0,0,0-1.75,1.62v8.72Z"/><path class="cls-4" d="M420.94,423.63v7.43a4,4,0,0,0,.75,2.57,2.78,2.78,0,0,0,2.29.93,4.15,4.15,0,0,0,2.12-.58,6.09,6.09,0,0,0,1.77-1.61v-8.74H429v11.63h-.61A.29.29,0,0,1,428,435l-.11-1.73a6.69,6.69,0,0,1-1.87,1.62,4.67,4.67,0,0,1-2.35.6,4.41,4.41,0,0,1-1.7-.3,3.16,3.16,0,0,1-1.21-.88,3.78,3.78,0,0,1-.72-1.38,6,6,0,0,1-.25-1.82v-7.43Z"/><path class="cls-4" d="M432,439.37V423.63h.61a.46.46,0,0,1,.25.06.31.31,0,0,1,.1.23l.11,1.8a6.06,6.06,0,0,1,1.8-1.67,4.48,4.48,0,0,1,2.32-.62,4,4,0,0,1,3.34,1.48,7,7,0,0,1,1.2,4.46,7.85,7.85,0,0,1-.34,2.37,5.6,5.6,0,0,1-1,1.92,4.62,4.62,0,0,1-1.59,1.28,4.8,4.8,0,0,1-2.16.47,4.67,4.67,0,0,1-2.06-.43,4.26,4.26,0,0,1-1.5-1.29v5.68Zm4.88-15a3.84,3.84,0,0,0-2.1.6,5.81,5.81,0,0,0-1.67,1.68v6.1a4,4,0,0,0,1.48,1.41,4.49,4.49,0,0,0,3.66,0,3.57,3.57,0,0,0,1.29-1.06,5,5,0,0,0,.78-1.64,7.62,7.62,0,0,0,.26-2.09,6.26,6.26,0,0,0-.95-3.82A3.29,3.29,0,0,0,436.89,424.33Z"/><path class="cls-4" d="M452,439a.86.86,0,0,1-.18.26.46.46,0,0,1-.32.11h-.8l2.05-4.55-4.92-11.19h.92a.37.37,0,0,1,.27.09.53.53,0,0,1,.15.19l3.91,9c.05.12.09.24.13.36s.07.24.1.37l.12-.37.13-.36,3.87-9a.58.58,0,0,1,.17-.21.37.37,0,0,1,.23-.07h.85Z"/><path class="cls-4" d="M464.62,423.43a5.53,5.53,0,0,1,2.24.43,4.49,4.49,0,0,1,1.66,1.21,5.4,5.4,0,0,1,1,1.89,8.86,8.86,0,0,1,0,4.93,5.35,5.35,0,0,1-1,1.88,4.38,4.38,0,0,1-1.66,1.21,6.18,6.18,0,0,1-4.48,0,4.49,4.49,0,0,1-1.67-1.21,5.35,5.35,0,0,1-1-1.88,8.62,8.62,0,0,1,0-4.93,5.4,5.4,0,0,1,1-1.89,4.61,4.61,0,0,1,1.67-1.21A5.53,5.53,0,0,1,464.62,423.43Zm0,11.09a4.48,4.48,0,0,0,1.82-.35,3.41,3.41,0,0,0,1.29-1,4.43,4.43,0,0,0,.78-1.6,8.69,8.69,0,0,0,0-4.22,4.4,4.4,0,0,0-.78-1.61,3.44,3.44,0,0,0-1.29-1,4.78,4.78,0,0,0-3.64,0,3.36,3.36,0,0,0-1.29,1,4.57,4.57,0,0,0-.79,1.61,8.69,8.69,0,0,0,0,4.22,4.61,4.61,0,0,0,.79,1.6,3.34,3.34,0,0,0,1.29,1A4.48,4.48,0,0,0,464.62,434.52Z"/><path class="cls-4" d="M473.64,423.62v7.43a4,4,0,0,0,.75,2.57,2.75,2.75,0,0,0,2.28.93,4.21,4.21,0,0,0,2.13-.58,6.35,6.35,0,0,0,1.77-1.61v-8.74h1.11v11.63h-.61a.3.3,0,0,1-.34-.31l-.11-1.73a6.65,6.65,0,0,1-1.86,1.62,4.71,4.71,0,0,1-2.36.6,4.45,4.45,0,0,1-1.7-.3,3.12,3.12,0,0,1-1.2-.88,4,4,0,0,1-.73-1.38,6.32,6.32,0,0,1-.24-1.82v-7.43Z"/><path class="cls-4" d="M484.71,435.25V423.62h.58a.46.46,0,0,1,.29.08.48.48,0,0,1,.1.28l.09,2.46a5.53,5.53,0,0,1,1.49-2.22,3.47,3.47,0,0,1,2.31-.8,3.74,3.74,0,0,1,1.81.43l-.15.77a.22.22,0,0,1-.24.19.51.51,0,0,1-.2-.05l-.32-.1-.47-.11a4.14,4.14,0,0,0-.64,0,3,3,0,0,0-2.17.82,5.73,5.73,0,0,0-1.37,2.36v7.56Z"/><path class="cls-4" d="M498.31,435.25v-17h1.11v7.41a6.22,6.22,0,0,1,1.79-1.62,4.42,4.42,0,0,1,2.29-.6,4.08,4.08,0,0,1,3.34,1.48,7,7,0,0,1,1.19,4.45,8.3,8.3,0,0,1-.33,2.38,5.66,5.66,0,0,1-1,1.91,4.71,4.71,0,0,1-1.59,1.28,4.88,4.88,0,0,1-2.17.47,4.43,4.43,0,0,1-2.1-.47,4.36,4.36,0,0,1-1.51-1.4l-.07,1.43a.28.28,0,0,1-.31.29Zm4.88-10.93a3.84,3.84,0,0,0-2.1.6,5.85,5.85,0,0,0-1.67,1.66v6.13a4,4,0,0,0,1.47,1.41,4.57,4.57,0,0,0,3.67,0,3.57,3.57,0,0,0,1.29-1.06,4.76,4.76,0,0,0,.79-1.63,8.16,8.16,0,0,0,.26-2.1,6.18,6.18,0,0,0-1-3.82A3.31,3.31,0,0,0,503.19,424.32Z"/><path class="cls-4" d="M511.6,423.62v7.43a4,4,0,0,0,.75,2.57,2.78,2.78,0,0,0,2.29.93,4.17,4.17,0,0,0,2.12-.58,6.09,6.09,0,0,0,1.77-1.61v-8.74h1.11v11.63H519c-.22,0-.33-.1-.33-.31l-.11-1.73a6.69,6.69,0,0,1-1.87,1.62,4.67,4.67,0,0,1-2.35.6,4.41,4.41,0,0,1-1.7-.3,3.06,3.06,0,0,1-1.21-.88,3.81,3.81,0,0,1-.72-1.37,6.09,6.09,0,0,1-.25-1.83v-7.43Z"/><path class="cls-4" d="M529.14,425.07a.26.26,0,0,1-.25.16.7.7,0,0,1-.34-.14,4.21,4.21,0,0,0-.53-.33,5,5,0,0,0-.82-.33,4.13,4.13,0,0,0-1.19-.14,3.51,3.51,0,0,0-1.15.18,2.91,2.91,0,0,0-.89.48,2.29,2.29,0,0,0-.57.71,1.74,1.74,0,0,0-.21.84,1.47,1.47,0,0,0,.28.91,2.52,2.52,0,0,0,.74.62,5.51,5.51,0,0,0,1,.44l1.18.37c.41.13.8.27,1.19.42a4.27,4.27,0,0,1,1,.57,2.56,2.56,0,0,1,.74.83,2.41,2.41,0,0,1,.28,1.19,3.51,3.51,0,0,1-.28,1.41,3,3,0,0,1-.79,1.13,3.69,3.69,0,0,1-1.28.76,4.91,4.91,0,0,1-1.73.28,5.28,5.28,0,0,1-2.12-.39,5.79,5.79,0,0,1-1.58-1l.26-.4a.6.6,0,0,1,.13-.14.4.4,0,0,1,.2,0,.67.67,0,0,1,.38.18,4.49,4.49,0,0,0,.57.41,5,5,0,0,0,.89.4,4.19,4.19,0,0,0,1.32.19,3.63,3.63,0,0,0,1.29-.21,2.63,2.63,0,0,0,.94-.55,2.37,2.37,0,0,0,.57-.83,2.78,2.78,0,0,0,.19-1,1.66,1.66,0,0,0-.28-1,2.48,2.48,0,0,0-.74-.65,5.43,5.43,0,0,0-1-.46l-1.19-.37c-.41-.13-.81-.26-1.2-.41a4.24,4.24,0,0,1-1-.56,2.89,2.89,0,0,1-.74-.82,2.49,2.49,0,0,1-.28-1.21,2.8,2.8,0,0,1,.27-1.2,3.09,3.09,0,0,1,.77-1,3.65,3.65,0,0,1,1.21-.69,4.71,4.71,0,0,1,1.6-.26,5.51,5.51,0,0,1,1.89.31,4.82,4.82,0,0,1,1.51.94Z"/><path class="cls-4" d="M533.84,419.61a.86.86,0,0,1-.09.39,1,1,0,0,1-.23.32,1,1,0,0,1-.33.23,1,1,0,0,1-.39.08,1.06,1.06,0,0,1-.4-.08,1.09,1.09,0,0,1-.33-.23,1,1,0,0,1-.3-.71,1.1,1.1,0,0,1,.08-.4,1,1,0,0,1,.22-.33,1.09,1.09,0,0,1,.33-.23,1.06,1.06,0,0,1,.4-.08,1,1,0,0,1,.39.08,1.14,1.14,0,0,1,.56.56A.93.93,0,0,1,533.84,419.61Zm-.49,4v11.63h-1.11V423.62Z"/><path class="cls-4" d="M536.37,435.25V423.62H537a.32.32,0,0,1,.35.29l.1,1.75a6.63,6.63,0,0,1,1.86-1.61,4.58,4.58,0,0,1,2.35-.62,4.25,4.25,0,0,1,1.69.31,3.13,3.13,0,0,1,1.21.87,4,4,0,0,1,.72,1.38,6.43,6.43,0,0,1,.25,1.83v7.43H544.4v-7.43a4,4,0,0,0-.75-2.57,2.76,2.76,0,0,0-2.29-.93,4.12,4.12,0,0,0-2.13.59,6.21,6.21,0,0,0-1.75,1.62v8.72Z"/><path class="cls-4" d="M553.19,423.43a4.91,4.91,0,0,1,1.82.34,4.16,4.16,0,0,1,1.45,1,4.51,4.51,0,0,1,1,1.59,6.4,6.4,0,0,1,.34,2.18.59.59,0,0,1-.07.35.3.3,0,0,1-.24.09h-8.39v.22a8,8,0,0,0,.3,2.31,4.74,4.74,0,0,0,.86,1.66,3.54,3.54,0,0,0,1.36,1,4.42,4.42,0,0,0,1.78.34,5.3,5.3,0,0,0,1.52-.19,5.26,5.26,0,0,0,1.77-.87.86.86,0,0,1,.38-.19.26.26,0,0,1,.23.12l.3.37a3,3,0,0,1-.74.66,5.84,5.84,0,0,1-1,.52,7.13,7.13,0,0,1-1.21.34,6.37,6.37,0,0,1-1.3.13,5.5,5.5,0,0,1-2.18-.42,4.55,4.55,0,0,1-1.68-1.2,5.59,5.59,0,0,1-1.09-1.95,8.25,8.25,0,0,1-.38-2.64,7.35,7.35,0,0,1,.35-2.3,5.28,5.28,0,0,1,1-1.83,4.6,4.6,0,0,1,1.65-1.19A5.38,5.38,0,0,1,553.19,423.43Zm0,.83a4.49,4.49,0,0,0-1.61.28,3.66,3.66,0,0,0-1.23.81,4,4,0,0,0-.84,1.26,5.87,5.87,0,0,0-.43,1.65h7.66a5.2,5.2,0,0,0-.26-1.68,3.57,3.57,0,0,0-.72-1.25,3,3,0,0,0-1.12-.79A3.61,3.61,0,0,0,553.21,424.26Z"/><path class="cls-4" d="M566.71,425.07a.26.26,0,0,1-.25.16.7.7,0,0,1-.34-.14,4.21,4.21,0,0,0-.53-.33,5,5,0,0,0-.82-.33,4.13,4.13,0,0,0-1.19-.14,3.51,3.51,0,0,0-1.15.18,2.91,2.91,0,0,0-.89.48,2.29,2.29,0,0,0-.57.71,1.74,1.74,0,0,0-.21.84,1.42,1.42,0,0,0,.29.91,2.36,2.36,0,0,0,.73.62,5.51,5.51,0,0,0,1,.44l1.18.37c.41.13.8.27,1.19.42a4.27,4.27,0,0,1,1,.57,2.56,2.56,0,0,1,.74.83,2.3,2.3,0,0,1,.28,1.19,3.51,3.51,0,0,1-.28,1.41,3,3,0,0,1-.79,1.13,3.69,3.69,0,0,1-1.28.76,4.91,4.91,0,0,1-1.73.28,5.2,5.2,0,0,1-2.11-.39,5.7,5.7,0,0,1-1.59-1l.26-.4a.6.6,0,0,1,.13-.14.4.4,0,0,1,.2,0,.67.67,0,0,1,.38.18,4.49,4.49,0,0,0,.57.41,5,5,0,0,0,.89.4,4.19,4.19,0,0,0,1.32.19,3.63,3.63,0,0,0,1.29-.21,2.63,2.63,0,0,0,.94-.55A2.37,2.37,0,0,0,566,433a2.78,2.78,0,0,0,.19-1,1.59,1.59,0,0,0-.28-1,2.48,2.48,0,0,0-.74-.65,5.43,5.43,0,0,0-1-.46l-1.19-.37c-.41-.13-.81-.26-1.2-.41a4.24,4.24,0,0,1-1-.56,2.89,2.89,0,0,1-.74-.82,2.49,2.49,0,0,1-.28-1.21,2.8,2.8,0,0,1,.27-1.2,3.09,3.09,0,0,1,.77-1,3.65,3.65,0,0,1,1.21-.69,4.71,4.71,0,0,1,1.6-.26,5.51,5.51,0,0,1,1.89.31,4.82,4.82,0,0,1,1.51.94Z"/><path class="cls-4" d="M575.64,425.07a.27.27,0,0,1-.25.16.57.57,0,0,1-.31-.15c-.13-.09-.3-.2-.51-.32a3.49,3.49,0,0,0-.77-.33,3.61,3.61,0,0,0-1.12-.15,3.1,3.1,0,0,0-1.08.18,2.48,2.48,0,0,0-.84.49,2.16,2.16,0,0,0-.54.7,1.92,1.92,0,0,0-.19.85,1.55,1.55,0,0,0,.26.91,2.35,2.35,0,0,0,.7.62,5.45,5.45,0,0,0,1,.44l1.12.37c.38.13.76.27,1.12.42a3.87,3.87,0,0,1,1,.57,2.56,2.56,0,0,1,.7.83,2.52,2.52,0,0,1,.26,1.19,3.61,3.61,0,0,1-.26,1.41,3.15,3.15,0,0,1-.75,1.14,3.47,3.47,0,0,1-1.2.76,4.39,4.39,0,0,1-1.63.28,4.73,4.73,0,0,1-2-.39,5.69,5.69,0,0,1-1.5-1l.26-.4a.28.28,0,0,1,.12-.14.33.33,0,0,1,.19-.05.58.58,0,0,1,.35.19,4.16,4.16,0,0,0,1.38.8,4,4,0,0,0,2.46,0,2.65,2.65,0,0,0,.89-.56A2.37,2.37,0,0,0,575,433a2.81,2.81,0,0,0,.18-1,1.71,1.71,0,0,0-.26-1,2.33,2.33,0,0,0-.7-.66,4.84,4.84,0,0,0-1-.46l-1.13-.37c-.38-.13-.76-.26-1.12-.41a3.85,3.85,0,0,1-1-.56,2.67,2.67,0,0,1-.7-.83,2.44,2.44,0,0,1-.26-1.21,2.89,2.89,0,0,1,.25-1.19,3.12,3.12,0,0,1,.72-1,3.56,3.56,0,0,1,1.14-.68,4,4,0,0,1,1.51-.26,4.71,4.71,0,0,1,1.78.31,4.33,4.33,0,0,1,1.43.94Z"/><path class="cls-4" d="M420.94,423.62v7.43a4,4,0,0,0,.75,2.57,2.78,2.78,0,0,0,2.29.93,4.15,4.15,0,0,0,2.12-.58,6.09,6.09,0,0,0,1.77-1.61v-8.74H429v11.63h-.61c-.21,0-.33-.1-.33-.31l-.11-1.73a6.53,6.53,0,0,1-1.87,1.62,4.67,4.67,0,0,1-2.35.6,4.41,4.41,0,0,1-1.7-.3,3.06,3.06,0,0,1-1.21-.88,3.81,3.81,0,0,1-.72-1.37,6.09,6.09,0,0,1-.25-1.83v-7.43Z"/><path class="cls-4" d="M432,439.36V423.62h.61a.46.46,0,0,1,.25.06.31.31,0,0,1,.1.23l.11,1.8a6.06,6.06,0,0,1,1.8-1.67,4.48,4.48,0,0,1,2.32-.62,4,4,0,0,1,3.34,1.49,7,7,0,0,1,1.2,4.45,8,8,0,0,1-.34,2.38,5.65,5.65,0,0,1-1,1.91,4.62,4.62,0,0,1-1.59,1.28,4.8,4.8,0,0,1-2.16.47,4.54,4.54,0,0,1-2.06-.43,4.26,4.26,0,0,1-1.5-1.29v5.68Zm4.88-15a3.84,3.84,0,0,0-2.1.6,5.81,5.81,0,0,0-1.67,1.68v6.1a3.67,3.67,0,0,0,3.34,1.82,4.11,4.11,0,0,0,1.8-.37,3.57,3.57,0,0,0,1.29-1.06,4.94,4.94,0,0,0,.78-1.63,7.75,7.75,0,0,0,.26-2.1,6.26,6.26,0,0,0-.95-3.82A3.29,3.29,0,0,0,436.89,424.32Z"/><polygon class="cls-4" points="428.19 364.14 415.06 364.14 403.9 380.62 392.65 364.14 379.52 364.14 397.73 388.49 378.39 414.35 391.42 414.35 403.9 396.42 416.29 414.35 429.43 414.35 409.98 388.49 428.19 364.14"/></svg>