<?xml version="1.0" encoding="UTF-8" standalone="no"?>
<svg
   id="Layer_1"
   data-name="Layer 1"
   viewBox="0 0 383.10015 141.73016"
   version="1.1"
   sodipodi:docname="PaxTech-Horizontal-Tagline.svg"
   width="383.10016"
   height="141.73016"
   inkscape:version="1.3.2 (091e20e, 2023-11-25, custom)"
   xmlns:inkscape="http://www.inkscape.org/namespaces/inkscape"
   xmlns:sodipodi="http://sodipodi.sourceforge.net/DTD/sodipodi-0.dtd"
   xmlns="http://www.w3.org/2000/svg"
   xmlns:svg="http://www.w3.org/2000/svg">
  <sodipodi:namedview
     id="namedview43"
     pagecolor="#ffffff"
     bordercolor="#000000"
     borderopacity="0.25"
     inkscape:showpageshadow="2"
     inkscape:pageopacity="0.0"
     inkscape:pagecheckerboard="0"
     inkscape:deskcolor="#d1d1d1"
     inkscape:zoom="2.5514022"
     inkscape:cx="191.65932"
     inkscape:cy="70.745413"
     inkscape:window-width="3840"
     inkscape:window-height="2054"
     inkscape:window-x="-11"
     inkscape:window-y="-11"
     inkscape:window-maximized="1"
     inkscape:current-layer="Layer_1" />
  <defs
     id="defs1">
    <style
       id="style1">.cls-1{fill:#e0e8d2;}.cls-2{fill:#eb0045;}.cls-3{fill:#00bc70;}.cls-4{fill:#231f20;}</style>
  </defs>
  <path
     class="cls-1"
     d="m 28.88,90 a 64.47,64.47 0 0 0 90,14.53 l -4.3,-5.95 A 57.122486,57.122486 0 0 1 47.71,5.95 L 43.42,0 A 64.46,64.46 0 0 0 28.88,90 Z"
     id="path1" />
  <path
     class="cls-2"
     d="M 78.9,29.47 A 57.124703,57.124703 0 1 1 0,112.1 Z"
     id="path2" />
  <path
     class="cls-3"
     d="M 134.51,54.53 A 64.46,64.46 0 0 0 19.07,111.92 l -0.44,0.22 a 1.54,1.54 0 0 1 -2.09,-0.73 66.52,66.52 0 0 1 119.05,-59.18 1.55,1.55 0 0 1 -0.68,2.1 z"
     id="path3" />
  <ellipse
     cx="-56.241024"
     cy="143.67973"
     rx="1.52"
     ry="3.4300001"
     transform="rotate(-60.07)"
     id="ellipse3" />
  <ellipse
     cx="-79.757317"
     cy="125.77908"
     rx="1.52"
     ry="3.4300001"
     transform="rotate(-75.07)"
     id="ellipse4" />
  <ellipse
     cx="102.43676"
     cy="97.839447"
     rx="3.4300001"
     ry="1.52"
     transform="rotate(-0.07)"
     id="ellipse5" />
  <ellipse
     cx="75.163849"
     cy="109.24532"
     rx="3.4300001"
     ry="1.52"
     transform="rotate(-15.07)"
     id="ellipse6" />
  <ellipse
     cx="45.873802"
     cy="113.21485"
     rx="3.4300001"
     ry="1.52"
     transform="rotate(-30.07)"
     id="ellipse7" />
  <ellipse
     cx="16.549261"
     cy="109.47001"
     rx="3.4300001"
     ry="1.52"
     transform="rotate(-45.07)"
     id="ellipse8" />
  <ellipse
     cx="-10.800187"
     cy="98.261864"
     rx="3.4300001"
     ry="1.52"
     transform="rotate(-60.07)"
     id="ellipse9" />
  <ellipse
     cx="-34.315758"
     cy="80.341614"
     rx="3.4300001"
     ry="1.52"
     transform="rotate(-75.07)"
     id="ellipse10" />
  <ellipse
     cx="56.720013"
     cy="52.679996"
     rx="1.52"
     ry="3.4300001"
     id="ellipse11" />
  <ellipse
     cx="29.731247"
     cy="63.819981"
     rx="1.52"
     ry="3.4300001"
     transform="rotate(-15.07)"
     id="ellipse12" />
  <ellipse
     cx="0.43213609"
     cy="67.780548"
     rx="1.52"
     ry="3.4300001"
     transform="rotate(-30.07)"
     id="ellipse13" />
  <path
     class="cls-4"
     d="m 152.81,62.45 h -26.07 v 57.6 h 9.07 v -19.51 h 17 c 6.19,0 11.17,-1.74 14.79,-5.15 3.62,-3.41 5.49,-8.11 5.49,-13.9 0,-5.79 -1.84,-10.46 -5.49,-13.9 -3.65,-3.44 -8.6,-5.14 -14.79,-5.14 z m 11.21,19 c 0,3.31 -0.93,5.81 -2.86,7.64 -1.93,1.83 -4.86,2.75 -8.76,2.75 H 135.81 V 71.23 h 16.59 c 3.89,0 6.85,0.92 8.76,2.74 1.91,1.82 2.86,4.26 2.86,7.52 z"
     id="path13" />
  <path
     class="cls-4"
     d="m 203.69,80.71 a 18.09,18.09 0 0 0 -3.82,-2.72 19.46,19.46 0 0 0 -9.34,-2.13 20.14,20.14 0 0 0 -18.52,11.15 25.71,25.71 0 0 0 0,22.49 20.06,20.06 0 0 0 18.52,11.2 19.46,19.46 0 0 0 9.34,-2.13 18.76,18.76 0 0 0 3.82,-2.7 v 4.18 h 8.9 V 76.51 h -8.9 z m -1.17,10.43 a 16.72,16.72 0 0 1 1.5,7.14 16.92,16.92 0 0 1 -1.5,7.1 11.53,11.53 0 0 1 -11.17,7 12.11,12.11 0 0 1 -11.43,-7 16.82,16.82 0 0 1 0,-14.19 12.11,12.11 0 0 1 11.43,-6.96 12,12 0 0 1 6.9,1.87 12.19,12.19 0 0 1 4.27,5.04 z"
     id="path14" />
  <path
     class="cls-2"
     d="M 254.81,120.05 V 68.64 h -21.05 v -6.17 h 48.62 v 6.17 h -21.05 v 51.41 z"
     id="path15" />
  <path
     class="cls-2"
     d="m 282.8,120.74 a 21.88,21.88 0 0 1 -11.56,-3 20.76,20.76 0 0 1 -7.7,-8.13 23.59,23.59 0 0 1 -2.74,-11.31 24.54,24.54 0 0 1 2.61,-11.35 20.08,20.08 0 0 1 7.48,-8.08 23.47,23.47 0 0 1 23,0 20.19,20.19 0 0 1 7.44,8.08 24.54,24.54 0 0 1 2.61,11.35 v 2.61 H 267.5 a 17.52,17.52 0 0 0 2.48,7 14.33,14.33 0 0 0 5.26,5.05 15.22,15.22 0 0 0 7.65,1.87 13.9,13.9 0 0 0 7.74,-2 14.38,14.38 0 0 0 4.87,-5.27 h 7.09 a 21.33,21.33 0 0 1 -7.17,9.53 q -4.83,3.65 -12.62,3.65 z M 267.59,94.82 h 29.58 a 16.14,16.14 0 0 0 -4.7,-9.3 13.8,13.8 0 0 0 -10.09,-3.74 13.65,13.65 0 0 0 -10,3.74 16.74,16.74 0 0 0 -4.79,9.3 z"
     id="path16" />
  <path
     class="cls-2"
     d="m 324.82,120.74 a 20.85,20.85 0 0 1 -11.31,-3 20.53,20.53 0 0 1 -7.43,-8.13 25.46,25.46 0 0 1 0,-22.66 20.27,20.27 0 0 1 18.74,-11.09 21.62,21.62 0 0 1 13.18,4 19.57,19.57 0 0 1 7.35,10.37 h -7 a 13.33,13.33 0 0 0 -4.76,-6.1 13.08,13.08 0 0 0 -7.87,-2.35 15,15 0 0 0 -13.83,8.26 18.73,18.73 0 0 0 0,16.48 15.08,15.08 0 0 0 5.48,6 15.24,15.24 0 0 0 8.35,2.26 13.08,13.08 0 0 0 7.87,-2.35 13.31,13.31 0 0 0 4.74,-6.09 h 7 a 19.56,19.56 0 0 1 -7.35,10.35 21.62,21.62 0 0 1 -13.16,4.05 z"
     id="path17" />
  <path
     class="cls-2"
     d="M 344.71,120.05 V 59.16 h 6.52 v 24.18 a 21.91,21.91 0 0 1 5.75,-5.3 15.84,15.84 0 0 1 8.69,-2.18 17.61,17.61 0 0 1 8.48,2.13 16.56,16.56 0 0 1 6.44,6.35 20.27,20.27 0 0 1 2.48,10.4 v 25.31 h -6.48 V 94.91 a 13.35,13.35 0 0 0 -3.39,-9.52 11.49,11.49 0 0 0 -8.78,-3.61 13.32,13.32 0 0 0 -6.61,1.65 12.59,12.59 0 0 0 -4.74,4.65 13.28,13.28 0 0 0 -1.79,6.92 v 25.05 z"
     id="path18" />
  <path
     class="cls-4"
     d="m 248.53,128.09 v 6.44 a 3.43,3.43 0 0 0 0.65,2.22 2.41,2.41 0 0 0 2,0.81 3.63,3.63 0 0 0 1.84,-0.5 5.54,5.54 0 0 0 1.53,-1.39 v -7.58 h 1 v 10.08 h -0.53 a 0.26,0.26 0 0 1 -0.29,-0.27 l -0.09,-1.5 a 5.64,5.64 0 0 1 -1.62,1.4 4,4 0 0 1 -2,0.53 3.9,3.9 0 0 1 -1.47,-0.26 2.79,2.79 0 0 1 -1.05,-0.76 3.6,3.6 0 0 1 -0.63,-1.2 5.45,5.45 0 0 1 -0.21,-1.58 v -6.44 z"
     id="path19" />
  <path
     class="cls-4"
     d="m 258.13,141.73 v -13.64 h 0.53 a 0.41,0.41 0 0 1 0.21,0.05 0.23,0.23 0 0 1 0.09,0.2 l 0.09,1.56 a 5.39,5.39 0 0 1 1.57,-1.45 3.92,3.92 0 0 1 2,-0.53 3.51,3.51 0 0 1 2.9,1.28 6.15,6.15 0 0 1 1,3.86 7.12,7.12 0 0 1 -0.29,2.06 4.81,4.81 0 0 1 -0.84,1.66 4,4 0 0 1 -1.38,1.11 4.16,4.16 0 0 1 -1.88,0.41 4,4 0 0 1 -1.78,-0.38 3.6,3.6 0 0 1 -1.3,-1.11 v 4.92 z m 4.23,-13 a 3.28,3.28 0 0 0 -1.77,0.5 5,5 0 0 0 -1.45,1.45 v 5.29 a 3.22,3.22 0 0 0 2.89,1.58 3.59,3.59 0 0 0 1.56,-0.32 3.13,3.13 0 0 0 1.12,-0.92 4.16,4.16 0 0 0 0.68,-1.42 6.92,6.92 0 0 0 0.23,-1.82 5.39,5.39 0 0 0 -0.83,-3.31 2.84,2.84 0 0 0 -2.43,-1.06 z"
     id="path20" />
  <path
     class="cls-4"
     d="m 181.69,123.83 v 0.86 h -7.55 v 6 h 6.53 v 0.86 h -6.53 v 6.59 h -1.05 v -14.31 z"
     id="path21" />
  <path
     class="cls-4"
     d="m 183.42,138.16 v -10.08 h 0.5 a 0.34,0.34 0 0 1 0.25,0.07 0.38,0.38 0 0 1 0.09,0.24 l 0.08,2.13 a 4.79,4.79 0 0 1 1.3,-1.92 3,3 0 0 1 2,-0.69 3.61,3.61 0 0 1 0.84,0.09 3.56,3.56 0 0 1 0.73,0.28 l -0.13,0.67 a 0.18,0.18 0 0 1 -0.2,0.16 0.45,0.45 0 0 1 -0.17,0 l -0.28,-0.09 -0.41,-0.09 a 3.2,3.2 0 0 0 -0.56,0 2.61,2.61 0 0 0 -1.88,0.71 5,5 0 0 0 -1.19,2.05 v 6.55 z"
     id="path22" />
  <path
     class="cls-4"
     d="m 194.86,127.92 a 4.27,4.27 0 0 1 1.58,0.29 3.5,3.5 0 0 1 1.25,0.86 3.82,3.82 0 0 1 0.84,1.38 5.75,5.75 0 0 1 0.29,1.88 0.58,0.58 0 0 1 -0.06,0.31 0.27,0.27 0 0 1 -0.21,0.08 h -7.27 v 0.19 a 6.74,6.74 0 0 0 0.26,2 4.27,4.27 0 0 0 0.75,1.44 3.1,3.1 0 0 0 1.18,0.88 3.94,3.94 0 0 0 1.53,0.29 4.32,4.32 0 0 0 1.32,-0.17 4.72,4.72 0 0 0 0.94,-0.37 6.08,6.08 0 0 0 0.6,-0.37 0.63,0.63 0 0 1 0.33,-0.17 0.23,0.23 0 0 1 0.2,0.1 l 0.26,0.32 a 2.39,2.39 0 0 1 -0.64,0.57 4.37,4.37 0 0 1 -0.89,0.45 5.68,5.68 0 0 1 -1.06,0.3 6.1,6.1 0 0 1 -1.13,0.11 4.81,4.81 0 0 1 -1.88,-0.36 4,4 0 0 1 -1.46,-1.05 4.73,4.73 0 0 1 -0.94,-1.68 7.3,7.3 0 0 1 -0.34,-2.29 6.4,6.4 0 0 1 0.31,-2 4.77,4.77 0 0 1 0.89,-1.58 4.16,4.16 0 0 1 1.43,-1 4.73,4.73 0 0 1 1.92,-0.41 z m 0,0.72 a 3.84,3.84 0 0 0 -1.4,0.24 3.2,3.2 0 0 0 -1.07,0.7 3.63,3.63 0 0 0 -0.72,1.09 4.84,4.84 0 0 0 -0.37,1.43 h 6.63 a 4.37,4.37 0 0 0 -0.22,-1.45 3.16,3.16 0 0 0 -0.63,-1.09 2.55,2.55 0 0 0 -1,-0.68 3.17,3.17 0 0 0 -1.2,-0.24 z"
     id="path23" />
  <path
     class="cls-4"
     d="m 207.2,129.34 a 0.23,0.23 0 0 1 -0.22,0.14 0.54,0.54 0 0 1 -0.29,-0.13 5,5 0 0 0 -0.46,-0.28 4,4 0 0 0 -0.71,-0.29 3.83,3.83 0 0 0 -1,-0.12 3.13,3.13 0 0 0 -1,0.15 2.69,2.69 0 0 0 -0.77,0.42 2,2 0 0 0 -0.5,0.62 1.66,1.66 0 0 0 -0.17,0.73 1.28,1.28 0 0 0 0.24,0.79 2.13,2.13 0 0 0 0.64,0.53 4.13,4.13 0 0 0 0.9,0.38 l 1,0.33 c 0.35,0.11 0.7,0.23 1,0.36 a 3.7,3.7 0 0 1 0.9,0.49 2.59,2.59 0 0 1 0.64,0.72 2.06,2.06 0 0 1 0.24,1 3.14,3.14 0 0 1 -0.24,1.23 2.82,2.82 0 0 1 -0.69,1 3.21,3.21 0 0 1 -1.11,0.66 4.37,4.37 0 0 1 -1.5,0.24 4.43,4.43 0 0 1 -1.83,-0.34 5.23,5.23 0 0 1 -1.38,-0.88 l 0.24,-0.35 a 0.43,0.43 0 0 1 0.11,-0.12 0.27,0.27 0 0 1 0.17,0 0.51,0.51 0 0 1 0.32,0.16 3.87,3.87 0 0 0 0.5,0.35 4.29,4.29 0 0 0 0.77,0.35 3.44,3.44 0 0 0 1.14,0.16 3.53,3.53 0 0 0 1.13,-0.17 2.34,2.34 0 0 0 0.81,-0.49 1.93,1.93 0 0 0 0.51,-0.75 2.29,2.29 0 0 0 0.17,-0.87 1.37,1.37 0 0 0 -0.25,-0.84 2,2 0 0 0 -0.63,-0.56 4.63,4.63 0 0 0 -0.9,-0.4 l -1,-0.32 c -0.36,-0.11 -0.7,-0.23 -1,-0.36 a 4,4 0 0 1 -0.89,-0.48 2.31,2.31 0 0 1 -0.64,-0.72 2.09,2.09 0 0 1 -0.24,-1 2.34,2.34 0 0 1 0.23,-1 2.52,2.52 0 0 1 0.66,-0.87 3.35,3.35 0 0 1 1.05,-0.6 4,4 0 0 1 1.39,-0.22 4.57,4.57 0 0 1 1.63,0.27 4,4 0 0 1 1.32,0.81 z"
     id="path24" />
  <path
     class="cls-4"
     d="m 210.23,138.16 v -14.74 h 1 v 6.38 a 5.75,5.75 0 0 1 1.6,-1.37 4,4 0 0 1 2,-0.51 3.88,3.88 0 0 1 1.46,0.26 2.79,2.79 0 0 1 1.05,0.76 3.27,3.27 0 0 1 0.63,1.2 5.45,5.45 0 0 1 0.21,1.58 v 6.44 h -1 v -6.44 a 3.48,3.48 0 0 0 -0.65,-2.23 2.4,2.4 0 0 0 -2,-0.8 3.53,3.53 0 0 0 -1.85,0.51 5.41,5.41 0 0 0 -1.52,1.4 v 7.56 z"
     id="path25" />
  <path
     class="cls-4"
     d="m 225.26,127.92 a 4.26,4.26 0 0 1 1.57,0.29 3.54,3.54 0 0 1 1.26,0.86 3.94,3.94 0 0 1 0.83,1.38 5.49,5.49 0 0 1 0.3,1.88 0.49,0.49 0 0 1 -0.07,0.31 0.25,0.25 0 0 1 -0.2,0.08 h -7.28 v 0.19 a 7.08,7.08 0 0 0 0.26,2 4.27,4.27 0 0 0 0.75,1.44 3.18,3.18 0 0 0 1.18,0.88 4,4 0 0 0 1.54,0.29 4.36,4.36 0 0 0 1.32,-0.17 4.61,4.61 0 0 0 0.93,-0.37 5.34,5.34 0 0 0 0.61,-0.37 0.58,0.58 0 0 1 0.32,-0.17 0.21,0.21 0 0 1 0.2,0.1 l 0.27,0.32 a 2.61,2.61 0 0 1 -0.65,0.57 3.91,3.91 0 0 1 -0.89,0.45 5.8,5.8 0 0 1 -1.05,0.3 6.18,6.18 0 0 1 -1.13,0.11 4.82,4.82 0 0 1 -1.89,-0.36 4.1,4.1 0 0 1 -1.46,-1.05 4.89,4.89 0 0 1 -0.94,-1.68 7.31,7.31 0 0 1 -0.33,-2.29 6.12,6.12 0 0 1 0.31,-2 4.45,4.45 0 0 1 0.89,-1.58 4.06,4.06 0 0 1 1.43,-1 4.67,4.67 0 0 1 1.92,-0.41 z m 0,0.72 a 3.79,3.79 0 0 0 -1.39,0.24 3,3 0 0 0 -1.07,0.7 3.65,3.65 0 0 0 -0.73,1.09 5.17,5.17 0 0 0 -0.37,1.43 h 6.64 a 4.37,4.37 0 0 0 -0.23,-1.45 3,3 0 0 0 -0.62,-1.09 2.63,2.63 0 0 0 -1,-0.68 3.22,3.22 0 0 0 -1.22,-0.24 z"
     id="path26" />
  <path
     class="cls-4"
     d="m 231.89,138.16 v -10.08 h 0.53 a 0.26,0.26 0 0 1 0.3,0.25 l 0.1,1.52 a 5.46,5.46 0 0 1 1.6,-1.4 4,4 0 0 1 2,-0.53 3.94,3.94 0 0 1 1.47,0.26 2.68,2.68 0 0 1 1,0.76 3.27,3.27 0 0 1 0.63,1.2 5.43,5.43 0 0 1 0.22,1.58 v 6.44 h -1 v -6.44 a 3.42,3.42 0 0 0 -0.65,-2.23 2.4,2.4 0 0 0 -2,-0.8 3.56,3.56 0 0 0 -1.85,0.51 5.38,5.38 0 0 0 -1.51,1.4 v 7.56 z"
     id="path27" />
  <path
     class="cls-4"
     d="m 248.53,128.09 v 6.44 a 3.43,3.43 0 0 0 0.65,2.22 2.41,2.41 0 0 0 2,0.81 3.63,3.63 0 0 0 1.84,-0.5 5.54,5.54 0 0 0 1.53,-1.39 v -7.58 h 1 v 10.08 h -0.53 a 0.26,0.26 0 0 1 -0.29,-0.27 l -0.09,-1.5 a 5.64,5.64 0 0 1 -1.62,1.4 4,4 0 0 1 -2,0.53 3.9,3.9 0 0 1 -1.47,-0.26 2.79,2.79 0 0 1 -1.05,-0.76 3.6,3.6 0 0 1 -0.63,-1.2 5.45,5.45 0 0 1 -0.21,-1.58 v -6.44 z"
     id="path28" />
  <path
     class="cls-4"
     d="m 258.13,141.73 v -13.64 h 0.53 a 0.41,0.41 0 0 1 0.21,0.05 0.23,0.23 0 0 1 0.09,0.2 l 0.09,1.56 a 5.39,5.39 0 0 1 1.57,-1.45 3.92,3.92 0 0 1 2,-0.53 3.51,3.51 0 0 1 2.9,1.28 6.15,6.15 0 0 1 1,3.86 7.12,7.12 0 0 1 -0.29,2.06 4.81,4.81 0 0 1 -0.84,1.66 4,4 0 0 1 -1.38,1.11 4.16,4.16 0 0 1 -1.88,0.41 4,4 0 0 1 -1.78,-0.38 3.6,3.6 0 0 1 -1.3,-1.11 v 4.92 z m 4.23,-13 a 3.28,3.28 0 0 0 -1.77,0.5 5,5 0 0 0 -1.45,1.45 v 5.29 a 3.22,3.22 0 0 0 2.89,1.58 3.59,3.59 0 0 0 1.56,-0.32 3.13,3.13 0 0 0 1.12,-0.92 4.16,4.16 0 0 0 0.68,-1.42 6.92,6.92 0 0 0 0.23,-1.82 5.39,5.39 0 0 0 -0.83,-3.31 2.84,2.84 0 0 0 -2.43,-1.06 z"
     id="path29" />
  <path
     class="cls-4"
     d="m 275.41,141.4 a 0.66,0.66 0 0 1 -0.15,0.23 0.41,0.41 0 0 1 -0.28,0.1 h -0.69 l 1.77,-3.95 -4.26,-9.7 h 0.8 a 0.28,0.28 0 0 1 0.23,0.08 0.48,0.48 0 0 1 0.13,0.16 l 3.39,7.84 a 1.92,1.92 0 0 1 0.11,0.31 l 0.09,0.32 c 0,-0.11 0.07,-0.21 0.1,-0.32 l 0.12,-0.31 3.35,-7.84 a 0.62,0.62 0 0 1 0.14,-0.18 0.39,0.39 0 0 1 0.21,-0.06 h 0.74 z"
     id="path30" />
  <path
     class="cls-4"
     d="m 286.4,127.92 a 4.8,4.8 0 0 1 1.94,0.37 3.78,3.78 0 0 1 1.44,1.05 4.68,4.68 0 0 1 0.9,1.63 7.54,7.54 0 0 1 0,4.28 4.68,4.68 0 0 1 -0.9,1.63 3.89,3.89 0 0 1 -1.44,1.05 5.41,5.41 0 0 1 -3.88,0 3.93,3.93 0 0 1 -1.45,-1.05 4.38,4.38 0 0 1 -0.9,-1.63 7.54,7.54 0 0 1 0,-4.28 4.38,4.38 0 0 1 0.9,-1.63 3.82,3.82 0 0 1 1.45,-1.05 4.76,4.76 0 0 1 1.94,-0.37 z m 0,9.61 a 3.67,3.67 0 0 0 1.57,-0.31 3,3 0 0 0 1.13,-0.88 4,4 0 0 0 0.67,-1.4 6.85,6.85 0 0 0 0.22,-1.83 6.93,6.93 0 0 0 -0.22,-1.82 4,4 0 0 0 -0.67,-1.4 3,3 0 0 0 -1.13,-0.9 3.67,3.67 0 0 0 -1.57,-0.31 3.71,3.71 0 0 0 -1.58,0.31 3,3 0 0 0 -1.12,0.9 4,4 0 0 0 -0.68,1.4 6.92,6.92 0 0 0 -0.23,1.82 6.83,6.83 0 0 0 0.23,1.83 4,4 0 0 0 0.68,1.4 2.93,2.93 0 0 0 1.12,0.88 3.71,3.71 0 0 0 1.58,0.31 z"
     id="path31" />
  <path
     class="cls-4"
     d="m 294.21,128.08 v 6.44 a 3.43,3.43 0 0 0 0.66,2.23 2.4,2.4 0 0 0 2,0.8 3.63,3.63 0 0 0 1.84,-0.5 5.26,5.26 0 0 0 1.53,-1.39 v -7.58 h 1 v 10.08 h -0.53 a 0.26,0.26 0 0 1 -0.29,-0.26 l -0.09,-1.5 a 5.5,5.5 0 0 1 -1.62,1.39 4.23,4.23 0 0 1 -3.51,0.27 2.79,2.79 0 0 1 -1,-0.76 3.41,3.41 0 0 1 -0.62,-1.2 5.11,5.11 0 0 1 -0.22,-1.58 v -6.44 z"
     id="path32" />
  <path
     class="cls-4"
     d="m 303.81,138.16 v -10.08 h 0.51 a 0.33,0.33 0 0 1 0.24,0.07 0.38,0.38 0 0 1 0.09,0.24 l 0.08,2.13 a 4.82,4.82 0 0 1 1.3,-1.92 3,3 0 0 1 2,-0.69 3.76,3.76 0 0 1 0.85,0.09 3.7,3.7 0 0 1 0.72,0.28 l -0.13,0.67 a 0.18,0.18 0 0 1 -0.2,0.16 0.45,0.45 0 0 1 -0.17,0 l -0.28,-0.09 -0.41,-0.09 a 3.13,3.13 0 0 0 -0.56,0 2.61,2.61 0 0 0 -1.88,0.71 5.07,5.07 0 0 0 -1.19,2.05 v 6.55 z"
     id="path33" />
  <path
     class="cls-4"
     d="m 315.59,138.16 v -14.74 h 1 v 6.42 a 5.13,5.13 0 0 1 1.55,-1.4 3.78,3.78 0 0 1 2,-0.52 3.51,3.51 0 0 1 2.89,1.28 6,6 0 0 1 1,3.85 6.91,6.91 0 0 1 -0.29,2.07 4.83,4.83 0 0 1 -0.85,1.66 3.94,3.94 0 0 1 -1.38,1.11 4.16,4.16 0 0 1 -1.88,0.4 3.85,3.85 0 0 1 -1.82,-0.41 3.64,3.64 0 0 1 -1.3,-1.21 l -0.06,1.24 a 0.25,0.25 0 0 1 -0.28,0.25 z m 4.23,-9.47 a 3.32,3.32 0 0 0 -1.81,0.51 5.22,5.22 0 0 0 -1.45,1.44 v 5.32 a 3.4,3.4 0 0 0 1.27,1.22 3.51,3.51 0 0 0 1.62,0.35 3.65,3.65 0 0 0 1.56,-0.32 3,3 0 0 0 1.12,-0.92 4.08,4.08 0 0 0 0.68,-1.42 6.87,6.87 0 0 0 0.23,-1.82 5.33,5.33 0 0 0 -0.83,-3.3 2.85,2.85 0 0 0 -2.38,-1.06 z"
     id="path34" />
  <path
     class="cls-4"
     d="m 327.13,128.08 v 6.44 a 3.42,3.42 0 0 0 0.65,2.23 2.4,2.4 0 0 0 2,0.8 3.51,3.51 0 0 0 1.84,-0.5 5.26,5.26 0 0 0 1.53,-1.39 v -7.58 h 1 v 10.08 h -0.56 c -0.19,0 -0.29,-0.09 -0.29,-0.26 l -0.1,-1.5 a 5.79,5.79 0 0 1 -1.61,1.4 4.09,4.09 0 0 1 -2.05,0.52 3.9,3.9 0 0 1 -1.47,-0.26 2.68,2.68 0 0 1 -1,-0.76 3.27,3.27 0 0 1 -0.63,-1.2 5.43,5.43 0 0 1 -0.22,-1.58 v -6.44 z"
     id="path35" />
  <path
     class="cls-4"
     d="m 342.33,129.34 a 0.24,0.24 0 0 1 -0.22,0.14 0.51,0.51 0 0 1 -0.29,-0.13 5,5 0 0 0 -0.46,-0.28 4,4 0 0 0 -0.71,-0.29 3.83,3.83 0 0 0 -1,-0.12 3.13,3.13 0 0 0 -1,0.15 2.69,2.69 0 0 0 -0.77,0.42 2,2 0 0 0 -0.5,0.62 1.66,1.66 0 0 0 -0.17,0.73 1.28,1.28 0 0 0 0.24,0.79 2.13,2.13 0 0 0 0.64,0.53 4.26,4.26 0 0 0 0.89,0.38 l 1,0.33 c 0.35,0.11 0.7,0.23 1,0.36 a 3.7,3.7 0 0 1 0.9,0.49 2.59,2.59 0 0 1 0.64,0.72 2.06,2.06 0 0 1 0.24,1 3.14,3.14 0 0 1 -0.24,1.23 2.82,2.82 0 0 1 -0.69,1 3.21,3.21 0 0 1 -1.11,0.66 4.37,4.37 0 0 1 -1.5,0.24 4.43,4.43 0 0 1 -1.83,-0.34 5.23,5.23 0 0 1 -1.38,-0.88 l 0.23,-0.35 0.12,-0.12 a 0.27,0.27 0 0 1 0.17,0 0.53,0.53 0 0 1 0.32,0.16 3.87,3.87 0 0 0 0.5,0.35 4.29,4.29 0 0 0 0.77,0.35 3.44,3.44 0 0 0 1.14,0.16 3.53,3.53 0 0 0 1.13,-0.17 2.34,2.34 0 0 0 0.81,-0.49 2.06,2.06 0 0 0 0.49,-0.71 2.29,2.29 0 0 0 0.17,-0.87 1.37,1.37 0 0 0 -0.25,-0.84 2,2 0 0 0 -0.63,-0.56 4.63,4.63 0 0 0 -0.9,-0.4 c -0.34,-0.11 -0.68,-0.22 -1,-0.32 -0.32,-0.1 -0.69,-0.23 -1,-0.36 a 4,4 0 0 1 -0.89,-0.48 2.31,2.31 0 0 1 -0.64,-0.72 2.09,2.09 0 0 1 -0.25,-1 2.35,2.35 0 0 1 0.24,-1 2.52,2.52 0 0 1 0.66,-0.87 3.35,3.35 0 0 1 1,-0.6 4,4 0 0 1 1.39,-0.22 4.57,4.57 0 0 1 1.63,0.27 4,4 0 0 1 1.32,0.81 z"
     id="path36" />
  <path
     class="cls-4"
     d="m 346.4,124.61 a 0.72,0.72 0 0 1 -0.07,0.33 1,1 0 0 1 -0.2,0.28 1,1 0 0 1 -0.29,0.2 0.86,0.86 0 0 1 -0.68,0 1,1 0 0 1 -0.29,-0.2 0.92,0.92 0 0 1 -0.19,-0.28 0.72,0.72 0 0 1 -0.07,-0.33 0.81,0.81 0 0 1 0.07,-0.35 0.86,0.86 0 0 1 0.19,-0.29 1,1 0 0 1 0.29,-0.2 0.86,0.86 0 0 1 0.68,0 1,1 0 0 1 0.29,0.2 0.88,0.88 0 0 1 0.2,0.29 0.81,0.81 0 0 1 0.07,0.35 z m -0.42,3.47 v 10.08 h -1 v -10.08 z"
     id="path37" />
  <path
     class="cls-4"
     d="m 348.59,138.16 v -10.08 h 0.52 a 0.28,0.28 0 0 1 0.31,0.25 l 0.09,1.52 a 5.59,5.59 0 0 1 1.6,-1.4 4.09,4.09 0 0 1 2.05,-0.53 3.88,3.88 0 0 1 1.43,0.31 2.79,2.79 0 0 1 1.05,0.76 3.6,3.6 0 0 1 0.63,1.2 5.45,5.45 0 0 1 0.21,1.58 v 6.44 h -1 v -6.44 a 3.48,3.48 0 0 0 -0.65,-2.23 2.42,2.42 0 0 0 -2,-0.8 3.52,3.52 0 0 0 -1.84,0.51 5.28,5.28 0 0 0 -1.52,1.4 v 7.56 z"
     id="path38" />
  <path
     class="cls-4"
     d="m 363.18,127.92 a 4.31,4.31 0 0 1 1.58,0.29 3.5,3.5 0 0 1 1.25,0.86 3.67,3.67 0 0 1 0.83,1.38 5.49,5.49 0 0 1 0.3,1.88 0.58,0.58 0 0 1 -0.06,0.31 0.29,0.29 0 0 1 -0.21,0.08 h -7.28 v 0.19 a 6.74,6.74 0 0 0 0.26,2 4.1,4.1 0 0 0 0.75,1.44 3.07,3.07 0 0 0 1.17,0.88 4,4 0 0 0 1.54,0.29 4.32,4.32 0 0 0 1.32,-0.17 5,5 0 0 0 0.94,-0.37 6.08,6.08 0 0 0 0.6,-0.37 0.65,0.65 0 0 1 0.32,-0.17 0.24,0.24 0 0 1 0.21,0.1 l 0.26,0.32 a 2.55,2.55 0 0 1 -0.64,0.57 4.37,4.37 0 0 1 -0.89,0.45 5.68,5.68 0 0 1 -1.06,0.3 6.1,6.1 0 0 1 -1.13,0.11 4.77,4.77 0 0 1 -1.88,-0.36 3.93,3.93 0 0 1 -1.46,-1.05 4.73,4.73 0 0 1 -0.94,-1.68 7,7 0 0 1 -0.34,-2.29 6.4,6.4 0 0 1 0.31,-2 4.77,4.77 0 0 1 0.89,-1.58 4.16,4.16 0 0 1 1.43,-1 4.73,4.73 0 0 1 1.93,-0.41 z m 0,0.72 a 3.84,3.84 0 0 0 -1.4,0.24 3.11,3.11 0 0 0 -1.07,0.7 3.45,3.45 0 0 0 -0.72,1.09 4.84,4.84 0 0 0 -0.37,1.43 h 6.63 a 4.37,4.37 0 0 0 -0.22,-1.45 3.16,3.16 0 0 0 -0.63,-1.09 2.55,2.55 0 0 0 -1,-0.68 3.17,3.17 0 0 0 -1.2,-0.24 z"
     id="path39" />
  <path
     class="cls-4"
     d="m 374.9,129.34 a 0.24,0.24 0 0 1 -0.22,0.14 0.51,0.51 0 0 1 -0.29,-0.13 4.15,4.15 0 0 0 -0.47,-0.28 3.47,3.47 0 0 0 -0.71,-0.29 3.7,3.7 0 0 0 -1,-0.12 3.13,3.13 0 0 0 -1,0.15 2.69,2.69 0 0 0 -0.77,0.42 2,2 0 0 0 -0.5,0.62 1.54,1.54 0 0 0 -0.17,0.73 1.28,1.28 0 0 0 0.24,0.79 2.13,2.13 0 0 0 0.64,0.53 4.26,4.26 0 0 0 0.89,0.38 l 1,0.33 c 0.35,0.11 0.7,0.23 1,0.36 a 3.9,3.9 0 0 1 0.9,0.49 2.41,2.41 0 0 1 0.63,0.72 2,2 0 0 1 0.25,1 3.14,3.14 0 0 1 -0.24,1.23 2.82,2.82 0 0 1 -0.69,1 3.21,3.21 0 0 1 -1.11,0.66 4.37,4.37 0 0 1 -1.5,0.24 4.43,4.43 0 0 1 -1.83,-0.34 5.23,5.23 0 0 1 -1.38,-0.88 l 0.23,-0.35 0.12,-0.12 a 0.27,0.27 0 0 1 0.17,0 0.53,0.53 0 0 1 0.32,0.16 3.87,3.87 0 0 0 0.5,0.35 4.29,4.29 0 0 0 0.77,0.35 3.44,3.44 0 0 0 1.14,0.16 3.53,3.53 0 0 0 1.13,-0.17 2.34,2.34 0 0 0 0.81,-0.49 2.06,2.06 0 0 0 0.49,-0.71 2.29,2.29 0 0 0 0.17,-0.87 1.44,1.44 0 0 0 -0.25,-0.84 2,2 0 0 0 -0.64,-0.56 4.28,4.28 0 0 0 -0.89,-0.4 c -0.34,-0.11 -0.68,-0.22 -1,-0.32 -0.32,-0.1 -0.69,-0.23 -1,-0.36 a 4,4 0 0 1 -0.89,-0.48 2.31,2.31 0 0 1 -0.64,-0.72 2.09,2.09 0 0 1 -0.25,-1 2.35,2.35 0 0 1 0.24,-1 2.52,2.52 0 0 1 0.66,-0.87 3.35,3.35 0 0 1 1.05,-0.6 4,4 0 0 1 1.39,-0.22 4.57,4.57 0 0 1 1.63,0.27 3.82,3.82 0 0 1 1.31,0.81 z"
     id="path40" />
  <path
     class="cls-4"
     d="m 382.64,129.33 a 0.23,0.23 0 0 1 -0.21,0.15 0.54,0.54 0 0 1 -0.27,-0.13 c -0.12,-0.09 -0.26,-0.18 -0.44,-0.29 a 4.84,4.84 0 0 0 -0.67,-0.28 3.4,3.4 0 0 0 -1,-0.13 2.76,2.76 0 0 0 -0.94,0.16 2.26,2.26 0 0 0 -0.73,0.42 1.85,1.85 0 0 0 -0.47,0.61 1.7,1.7 0 0 0 -0.16,0.74 1.28,1.28 0 0 0 0.22,0.78 2.13,2.13 0 0 0 0.61,0.54 3.82,3.82 0 0 0 0.84,0.38 l 1,0.33 c 0.33,0.11 0.66,0.23 1,0.36 a 3.37,3.37 0 0 1 0.85,0.49 2.46,2.46 0 0 1 0.6,0.72 2.18,2.18 0 0 1 0.23,1 3.32,3.32 0 0 1 -0.23,1.23 2.63,2.63 0 0 1 -0.65,1 3,3 0 0 1 -1,0.66 3.74,3.74 0 0 1 -1.42,0.25 4.17,4.17 0 0 1 -1.73,-0.34 4.79,4.79 0 0 1 -1.29,-0.89 l 0.22,-0.35 a 0.4,0.4 0 0 1 0.1,-0.12 0.34,0.34 0 0 1 0.16,0 0.54,0.54 0 0 1 0.31,0.16 4.35,4.35 0 0 0 0.47,0.36 4.54,4.54 0 0 0 0.73,0.35 3.3,3.3 0 0 0 1.07,0.16 2.87,2.87 0 0 0 1.06,-0.18 2.29,2.29 0 0 0 0.77,-0.48 2.16,2.16 0 0 0 0.46,-0.72 2.48,2.48 0 0 0 0.16,-0.86 1.52,1.52 0 0 0 -0.23,-0.85 2,2 0 0 0 -0.6,-0.56 3.93,3.93 0 0 0 -0.85,-0.4 l -1,-0.32 c -0.34,-0.11 -0.66,-0.23 -1,-0.36 a 3.83,3.83 0 0 1 -0.84,-0.48 2.31,2.31 0 0 1 -0.6,-0.72 2.09,2.09 0 0 1 -0.23,-1 2.45,2.45 0 0 1 0.22,-1 2.66,2.66 0 0 1 0.62,-0.88 3,3 0 0 1 1,-0.59 3.6,3.6 0 0 1 1.31,-0.23 4.11,4.11 0 0 1 1.5,0.21 3.77,3.77 0 0 1 1.24,0.82 z"
     id="path41" />
  <path
     class="cls-4"
     d="m 248.53,128.08 v 6.44 a 3.48,3.48 0 0 0 0.65,2.23 2.44,2.44 0 0 0 2,0.8 3.54,3.54 0 0 0 1.84,-0.5 5.39,5.39 0 0 0 1.53,-1.39 v -7.58 h 1 v 10.08 h -0.53 a 0.26,0.26 0 0 1 -0.29,-0.26 l -0.09,-1.5 a 5.8,5.8 0 0 1 -1.62,1.4 4,4 0 0 1 -2,0.52 3.71,3.71 0 0 1 -1.47,-0.26 2.79,2.79 0 0 1 -1.05,-0.76 3.6,3.6 0 0 1 -0.63,-1.2 5.45,5.45 0 0 1 -0.21,-1.58 v -6.44 z"
     id="path42" />
  <path
     class="cls-4"
     d="m 258.13,141.73 v -13.65 h 0.53 a 0.33,0.33 0 0 1 0.21,0.06 0.2,0.2 0 0 1 0.09,0.19 l 0.09,1.56 a 5.35,5.35 0 0 1 1.57,-1.44 3.83,3.83 0 0 1 2,-0.54 3.53,3.53 0 0 1 2.9,1.28 6.16,6.16 0 0 1 1,3.87 7.22,7.22 0 0 1 -0.29,2.06 5,5 0 0 1 -0.84,1.66 4,4 0 0 1 -1.38,1.11 4.16,4.16 0 0 1 -1.88,0.4 4,4 0 0 1 -1.78,-0.37 3.63,3.63 0 0 1 -1.3,-1.12 v 4.93 z m 4.23,-13 a 3.28,3.28 0 0 0 -1.77,0.5 5,5 0 0 0 -1.45,1.45 v 5.29 a 3.17,3.17 0 0 0 2.89,1.58 3.45,3.45 0 0 0 1.56,-0.32 3,3 0 0 0 1.12,-0.92 4.08,4.08 0 0 0 0.68,-1.42 6.84,6.84 0 0 0 0.23,-1.81 5.37,5.37 0 0 0 -0.83,-3.31 2.82,2.82 0 0 0 -2.43,-1.08 z"
     id="path43" />
  <polygon
     class="cls-4"
     points="463.17,317.57 453.42,303.28 442.03,303.28 457.82,324.4 441.05,346.82 452.35,346.82 463.17,331.27 473.91,346.82 485.3,346.82 468.44,324.4 484.23,303.28 472.84,303.28 "
     id="polygon43"
     transform="translate(-229.41,-226.77)" />
</svg>
