<svg id="Layer_1" data-name="Layer 1" xmlns="http://www.w3.org/2000/svg" viewBox="0 0 841.89 595.28"><defs><style>.cls-1{fill:#e0e8d2;}.cls-2{fill:#eb0045;}.cls-3{fill:#00bc70;}.cls-4{fill:#231f20;}</style></defs><path class="cls-1" d="M240.71,326.49a71.42,71.42,0,0,0,99.72,16.11L335.67,336a63.3,63.3,0,0,1-74.1-102.65l-4.76-6.59A71.43,71.43,0,0,0,240.71,326.49Z"/><path class="cls-2" d="M296.13,259.42A63.3,63.3,0,1,1,208.71,351Z"/><path class="cls-3" d="M357.76,287.19a71.43,71.43,0,0,0-127.92,63.6l-.49.24a1.71,1.71,0,0,1-2.31-.8,73.71,73.71,0,0,1,132-65.61,1.72,1.72,0,0,1-.75,2.33Z"/><ellipse cx="315.61" cy="360.25" rx="1.68" ry="3.8" transform="translate(-154.08 453.99) rotate(-60.07)"/><ellipse cx="320.62" cy="348.11" rx="1.68" ry="3.8" transform="translate(-98.35 568.19) rotate(-75.07)"/><ellipse cx="322.32" cy="335.07" rx="3.8" ry="1.68" transform="translate(-0.38 0.37) rotate(-0.07)"/><ellipse cx="320.59" cy="322.04" rx="3.8" ry="1.68" transform="translate(-72.69 94.4) rotate(-15.07)"/><ellipse cx="315.55" cy="309.91" rx="3.8" ry="1.68" transform="translate(-112.8 199.78) rotate(-30.07)"/><ellipse cx="307.54" cy="299.49" rx="3.8" ry="1.68" transform="translate(-121.69 305.67) rotate(-45.07)"/><ellipse cx="297.1" cy="291.5" rx="3.8" ry="1.68" transform="matrix(0.5, -0.87, 0.87, 0.5, -103.77, 403.5)"/><ellipse cx="284.95" cy="286.48" rx="3.8" ry="1.68" transform="translate(-65.29 487.98) rotate(-75.07)"/><ellipse cx="271.92" cy="284.78" rx="1.68" ry="3.8" transform="matrix(1, 0, 0, 1, -0.33, 0.31)"/><ellipse cx="258.89" cy="286.51" rx="1.68" ry="3.8" transform="translate(-65.57 77.14) rotate(-15.07)"/><ellipse cx="246.75" cy="291.56" rx="1.68" ry="3.8" transform="translate(-112.87 162.85) rotate(-30.07)"/><path class="cls-4" d="M378,296H349.15v63.82H359.2V338.17H378c6.87,0,12.38-1.92,16.39-5.7s6.09-9,6.09-15.4-2.05-11.59-6.09-15.4S384.89,296,378,296Zm12.43,21.1c0,3.67-1,6.44-3.17,8.47s-5.39,3-9.71,3H359.2V305.65h18.38c4.32,0,7.59,1,9.71,3.05S390.46,313.46,390.46,317.07Z"/><path class="cls-4" d="M434.42,316.21a20.68,20.68,0,0,0-4.23-3,21.53,21.53,0,0,0-10.36-2.36,22.33,22.33,0,0,0-20.52,12.35,28.5,28.5,0,0,0,0,24.93,22.22,22.22,0,0,0,20.52,12.4,21.65,21.65,0,0,0,10.36-2.35,20.71,20.71,0,0,0,4.23-3v4.63h9.89V311.55h-9.89Zm-1.3,11.55a19.58,19.58,0,0,1,0,15.78,12.79,12.79,0,0,1-12.38,7.71,13.46,13.46,0,0,1-12.67-7.73,18.74,18.74,0,0,1,0-15.73,13.47,13.47,0,0,1,12.67-7.69,12.81,12.81,0,0,1,12.38,7.66Z"/><path class="cls-2" d="M491.05,359.79v-57H467.73V296h53.88v6.84H498.28v57Z"/><path class="cls-2" d="M522.08,360.57a24.25,24.25,0,0,1-12.82-3.33,23.1,23.1,0,0,1-8.53-9,26.23,26.23,0,0,1-3-12.53,27.13,27.13,0,0,1,2.9-12.58,22.29,22.29,0,0,1,8.29-9,26.05,26.05,0,0,1,25.49,0,22.45,22.45,0,0,1,8.24,9,27.25,27.25,0,0,1,2.89,12.58v2.89H505.12a19.69,19.69,0,0,0,2.74,7.76,16,16,0,0,0,5.83,5.59,17,17,0,0,0,8.49,2.07,15.35,15.35,0,0,0,8.57-2.26,16,16,0,0,0,5.4-5.84h7.9a23.62,23.62,0,0,1-7.95,10.56Q530.66,360.56,522.08,360.57Zm-16.87-28.73H538a17.91,17.91,0,0,0-5.2-10.31q-4.24-4.14-11.18-4.14t-11.13,4.14A18.53,18.53,0,0,0,505.21,331.84Z"/><path class="cls-2" d="M568.64,360.57a23.05,23.05,0,0,1-12.53-3.33,22.75,22.75,0,0,1-8.24-9,28.28,28.28,0,0,1,0-25.11,22.81,22.81,0,0,1,8.24-9,23.05,23.05,0,0,1,12.53-3.33,23.93,23.93,0,0,1,14.6,4.44,21.67,21.67,0,0,1,8.14,11.47h-7.8a14.91,14.91,0,0,0-5.26-6.75,14.48,14.48,0,0,0-8.72-2.6,16.61,16.61,0,0,0-15.32,9.15,20.74,20.74,0,0,0,0,18.27,16.6,16.6,0,0,0,6.07,6.69A16.82,16.82,0,0,0,569.6,354a14.54,14.54,0,0,0,8.72-2.6,15,15,0,0,0,5.26-6.75h7.8a21.67,21.67,0,0,1-8.14,11.47A23.93,23.93,0,0,1,568.64,360.57Z"/><path class="cls-2" d="M590.68,359.79V292.33h7.23v26.79a24.16,24.16,0,0,1,6.36-5.88,17.6,17.6,0,0,1,9.63-2.41,19.44,19.44,0,0,1,9.4,2.37,18.25,18.25,0,0,1,7.14,7,22.43,22.43,0,0,1,2.74,11.52v28H626V331.94q0-6.56-3.76-10.55a12.73,12.73,0,0,0-9.73-4,14.73,14.73,0,0,0-7.32,1.83,14,14,0,0,0-5.26,5.15,14.82,14.82,0,0,0-2,7.67v27.75Z"/><polygon class="cls-4" points="491.07 311.55 478.45 311.55 467.73 327.38 456.93 311.55 444.31 311.55 461.81 334.95 443.23 359.79 455.74 359.79 467.73 342.57 479.63 359.79 492.25 359.79 473.57 334.95 491.07 311.55"/></svg>